<svg xmlns="http://www.w3.org/2000/svg" xmlns:xlink="http://www.w3.org/1999/xlink" width="500" zoomAndPan="magnify" viewBox="0 0 375 374.999991" height="500" preserveAspectRatio="xMidYMid meet" version="1.0"><defs><g/><clipPath id="d9d90c8cf8"><path d="M 0.238281 4 L 46 4 L 46 55 L 0.238281 55 Z M 0.238281 4 " clip-rule="nonzero"/></clipPath><clipPath id="ba7286aac2"><rect x="0" width="49" y="0" height="74"/></clipPath><clipPath id="cab522f583"><path d="M 79.789062 79.789062 L 295.039062 79.789062 L 295.039062 295.039062 L 79.789062 295.039062 Z M 79.789062 79.789062 " clip-rule="nonzero"/></clipPath><clipPath id="e8ef64e3e7"><rect x="0" width="50" y="0" height="74"/></clipPath></defs><g transform="matrix(1, 0, 0, 1, 180, 177)"><g clip-path="url(#ba7286aac2)"><g clip-path="url(#d9d90c8cf8)"><g fill="#f7c6b7" fill-opacity="1"><g transform="translate(0.305632, 54.729096)"><g><path d="M 16.234375 -49.78125 L 16.234375 -49.125 C 14.679688 -49.21875 13.515625 -48.597656 12.734375 -47.265625 C 11.960938 -45.929688 11.578125 -43.328125 11.578125 -39.453125 L 11.578125 -23.296875 C 12.835938 -26.003906 14.445312 -27.6875 16.40625 -28.34375 C 18.375 -29 20.742188 -28.84375 23.515625 -27.875 C 24.628906 -27.488281 25.765625 -27.097656 26.921875 -26.703125 C 28.085938 -26.316406 29.203125 -26.207031 30.265625 -26.375 C 31.335938 -26.550781 32.3125 -27.242188 33.1875 -28.453125 L 33.1875 -39.453125 C 33.1875 -43.328125 32.796875 -45.929688 32.015625 -47.265625 C 31.242188 -48.597656 30.082031 -49.21875 28.53125 -49.125 L 28.53125 -49.78125 L 44.828125 -49.78125 L 44.828125 -49.125 C 43.234375 -49.21875 42.046875 -48.597656 41.265625 -47.265625 C 40.492188 -45.929688 40.109375 -43.328125 40.109375 -39.453125 L 40.109375 -10.265625 C 40.109375 -6.429688 40.492188 -3.859375 41.265625 -2.546875 C 42.046875 -1.234375 43.234375 -0.601562 44.828125 -0.65625 L 44.828125 0 L 28.53125 0 L 28.53125 -0.65625 C 30.082031 -0.601562 31.242188 -1.234375 32.015625 -2.546875 C 32.796875 -3.859375 33.1875 -6.429688 33.1875 -10.265625 L 33.1875 -26.5 C 31.976562 -23.78125 30.378906 -22.09375 28.390625 -21.4375 C 26.398438 -20.78125 24.019531 -20.9375 21.25 -21.90625 C 20.132812 -22.289062 18.992188 -22.675781 17.828125 -23.0625 C 16.660156 -23.457031 15.539062 -23.566406 14.46875 -23.390625 C 13.40625 -23.222656 12.441406 -22.507812 11.578125 -21.25 L 11.578125 -10.265625 C 11.578125 -6.429688 11.960938 -3.859375 12.734375 -2.546875 C 13.515625 -1.234375 14.679688 -0.601562 16.234375 -0.65625 L 16.234375 0 L 0 0 L 0 -0.65625 C 1.550781 -0.601562 2.710938 -1.234375 3.484375 -2.546875 C 4.265625 -3.859375 4.65625 -6.429688 4.65625 -10.265625 L 4.65625 -39.453125 C 4.65625 -43.328125 4.265625 -45.929688 3.484375 -47.265625 C 2.710938 -48.597656 1.550781 -49.21875 0 -49.125 L 0 -49.78125 Z M 16.234375 -49.78125 "/></g></g></g></g></g></g><g clip-path="url(#cab522f583)"><path fill="#203a7e" d="M 294.851562 179.4375 C 292.972656 153.695312 282.050781 129.753906 263.613281 111.316406 C 243.28125 90.984375 216.246094 79.789062 187.488281 79.789062 C 164.429688 79.789062 142.441406 86.972656 123.902344 100.566406 C 114.980469 107.109375 107.140625 114.949219 100.597656 123.875 C 95.515625 130.808594 91.3125 138.28125 88.035156 146.164062 C 87.976562 146.308594 87.921875 146.449219 87.863281 146.585938 C 87.617188 147.179688 87.378906 147.777344 87.144531 148.375 C 87.0625 148.59375 86.976562 148.808594 86.890625 149.027344 C 86.675781 149.59375 86.46875 150.160156 86.257812 150.734375 C 86.1875 150.933594 86.113281 151.132812 86.042969 151.332031 C 85.792969 152.027344 85.550781 152.726562 85.320312 153.429688 L 85.269531 153.582031 C 81.691406 164.398438 79.832031 175.828125 79.832031 187.542969 C 79.832031 216.300781 91.03125 243.335938 111.367188 263.671875 C 131.699219 284.003906 158.738281 295.207031 187.496094 295.207031 C 216.25 295.207031 243.285156 284.007812 263.621094 263.671875 C 283.953125 243.339844 295.15625 216.300781 295.15625 187.542969 C 295.15625 184.824219 295.054688 182.121094 294.855469 179.4375 Z M 187.488281 294.238281 C 181.363281 294.238281 175.355469 293.714844 169.503906 292.714844 C 168.929688 292.546875 168.367188 292.375 167.8125 292.195312 C 173.492188 293.15625 179.285156 293.652344 185.148438 293.652344 C 185.308594 293.652344 185.480469 293.652344 185.644531 293.652344 C 211.851562 293.527344 234.5 285.335938 256.929688 267.875 C 259.796875 265.640625 262.519531 263.242188 265.097656 260.683594 C 245.628906 281.332031 218.042969 294.238281 187.496094 294.238281 Z M 138.113281 282.011719 C 136.007812 280.84375 133.945312 279.609375 131.914062 278.296875 C 132.886719 278.878906 133.859375 279.445312 134.84375 279.988281 C 136.113281 280.792969 137.398438 281.5625 138.691406 282.300781 C 138.496094 282.203125 138.304688 282.113281 138.109375 282.011719 Z M 239.179688 262.425781 C 242.414062 262.425781 245.730469 261.863281 249.0625 260.78125 C 245.785156 261.867188 242.515625 262.449219 239.324219 262.476562 C 219.058594 262.648438 212.601562 265.492188 205.128906 268.789062 C 197.394531 272.195312 188.632812 276.054688 161.585938 277.390625 C 160.632812 277.4375 159.695312 277.460938 158.757812 277.460938 C 154.242188 277.460938 149.945312 276.921875 145.882812 275.984375 C 145.71875 275.765625 145.558594 275.539062 145.394531 275.3125 C 149.222656 276.136719 153.09375 276.550781 156.976562 276.550781 C 157.898438 276.550781 158.824219 276.53125 159.75 276.480469 C 187.199219 275.007812 196.421875 270.875 203.832031 267.550781 C 211.367188 264.171875 217.320312 261.503906 237.972656 262.402344 C 238.375 262.421875 238.777344 262.429688 239.179688 262.429688 Z M 114.121094 262.375 C 113.960938 262.199219 113.800781 262.027344 113.644531 261.855469 C 116 264.054688 118.425781 266.121094 120.917969 268.039062 C 121.140625 268.253906 121.367188 268.472656 121.597656 268.683594 C 119.035156 266.726562 116.539062 264.625 114.121094 262.375 Z M 110.644531 258.484375 C 110.554688 258.378906 110.460938 258.269531 110.375 258.167969 C 111.046875 258.851562 111.726562 259.53125 112.410156 260.195312 C 114.339844 262.050781 116.3125 263.804688 118.335938 265.464844 C 118.488281 265.621094 118.640625 265.78125 118.792969 265.933594 C 116.6875 264.207031 114.621094 262.378906 112.617188 260.441406 C 111.945312 259.800781 111.289062 259.144531 110.644531 258.484375 Z M 112.632812 257.152344 C 112.632812 257.152344 112.664062 257.191406 112.683594 257.210938 C 112.632812 257.167969 112.585938 257.125 112.539062 257.078125 C 111.988281 256.550781 111.433594 256.011719 110.886719 255.46875 C 111.328125 255.902344 111.761719 256.332031 112.203125 256.75 C 112.34375 256.890625 112.492188 257.019531 112.632812 257.152344 Z M 148.875 280.804688 C 148.691406 280.613281 148.507812 280.425781 148.328125 280.234375 C 148.566406 280.300781 148.804688 280.363281 149.042969 280.425781 C 149.21875 280.617188 149.394531 280.8125 149.570312 281.003906 C 149.335938 280.941406 149.105469 280.871094 148.875 280.804688 Z M 147.519531 280.410156 C 147.335938 280.226562 147.152344 280.039062 146.972656 279.851562 C 147.222656 279.929688 147.476562 279.996094 147.730469 280.066406 C 147.902344 280.253906 148.078125 280.441406 148.257812 280.628906 C 148.011719 280.558594 147.769531 280.484375 147.527344 280.410156 Z M 118.839844 265.457031 C 118.699219 265.3125 118.558594 265.171875 118.421875 265.03125 C 119.828125 266.179688 121.253906 267.277344 122.703125 268.328125 C 122.847656 268.472656 122.992188 268.613281 123.140625 268.761719 C 121.6875 267.707031 120.253906 266.609375 118.839844 265.457031 Z M 139.15625 276.777344 C 138.738281 276.601562 138.320312 276.417969 137.910156 276.238281 C 137.710938 276.050781 137.515625 275.863281 137.320312 275.671875 C 137.742188 275.851562 138.160156 276.035156 138.585938 276.210938 C 138.777344 276.402344 138.96875 276.585938 139.15625 276.777344 Z M 151.023438 286.066406 C 150.492188 285.765625 149.964844 285.457031 149.449219 285.140625 C 149.519531 285.164062 149.589844 285.191406 149.660156 285.21875 C 150.117188 285.507812 150.582031 285.792969 151.050781 286.078125 C 151.042969 286.078125 151.035156 286.066406 151.023438 286.066406 Z M 148.214844 284.375 C 147.78125 284.101562 147.355469 283.816406 146.9375 283.535156 C 147.085938 283.585938 147.242188 283.640625 147.394531 283.691406 C 147.777344 283.964844 148.167969 284.234375 148.5625 284.496094 C 148.445312 284.453125 148.332031 284.414062 148.214844 284.371094 Z M 145.863281 282.796875 C 145.503906 282.546875 145.152344 282.289062 144.800781 282.03125 C 145.03125 282.121094 145.257812 282.210938 145.484375 282.292969 C 145.800781 282.535156 146.121094 282.777344 146.445312 283.011719 C 146.25 282.941406 146.058594 282.867188 145.863281 282.796875 Z M 143.84375 281.3125 C 143.542969 281.082031 143.242188 280.847656 142.945312 280.613281 C 143.21875 280.722656 143.496094 280.828125 143.769531 280.929688 C 144.050781 281.164062 144.339844 281.394531 144.628906 281.625 C 144.367188 281.523438 144.105469 281.417969 143.84375 281.3125 Z M 142.085938 279.921875 C 141.847656 279.726562 141.609375 279.527344 141.367188 279.328125 C 141.6875 279.457031 142.007812 279.585938 142.324219 279.710938 C 142.546875 279.902344 142.769531 280.097656 142.992188 280.285156 C 142.691406 280.167969 142.386719 280.046875 142.085938 279.921875 Z M 140.492188 278.582031 C 140.28125 278.402344 140.078125 278.222656 139.875 278.039062 C 140.238281 278.191406 140.601562 278.347656 140.964844 278.492188 C 141.15625 278.667969 141.351562 278.847656 141.546875 279.019531 C 141.195312 278.878906 140.84375 278.730469 140.496094 278.585938 Z M 131.335938 269.773438 C 131.445312 269.902344 131.554688 270.027344 131.664062 270.15625 C 131.050781 269.855469 130.441406 269.550781 129.832031 269.230469 C 129.726562 269.109375 129.617188 268.992188 129.511719 268.871094 C 130.117188 269.1875 130.722656 269.488281 131.332031 269.78125 Z M 128.921875 268.199219 C 123.519531 262.039062 118.550781 255.167969 113.328125 247.949219 C 108.410156 241.144531 103.320312 234.113281 97.449219 227.082031 C 90.699219 219.003906 85.839844 205.53125 83.761719 189.160156 C 83.707031 188.734375 83.664062 188.308594 83.613281 187.882812 C 83.402344 185.984375 83.246094 184.09375 83.132812 182.214844 C 83.273438 184.117188 83.460938 186.042969 83.703125 187.980469 C 83.757812 188.40625 83.808594 188.832031 83.867188 189.257812 C 86.207031 205.882812 91.320312 219.289062 98.277344 227.007812 C 105.652344 235.191406 111.585938 243.453125 117.324219 251.441406 C 121.839844 257.722656 126.148438 263.722656 130.800781 269.164062 C 130.171875 268.855469 129.542969 268.535156 128.917969 268.203125 Z M 132.210938 270.78125 C 132.355469 270.941406 132.496094 271.097656 132.636719 271.253906 C 132.039062 270.960938 131.445312 270.664062 130.867188 270.359375 C 130.722656 270.210938 130.585938 270.054688 130.449219 269.902344 C 131.035156 270.203125 131.621094 270.496094 132.214844 270.777344 Z M 133.214844 271.886719 C 133.355469 272.042969 133.496094 272.203125 133.644531 272.359375 C 133.070312 272.082031 132.503906 271.804688 131.945312 271.515625 C 131.804688 271.367188 131.660156 271.214844 131.515625 271.0625 C 132.074219 271.347656 132.640625 271.621094 133.214844 271.890625 Z M 134.230469 272.988281 C 134.386719 273.15625 134.546875 273.320312 134.707031 273.484375 C 134.160156 273.226562 133.617188 272.960938 133.085938 272.691406 C 132.925781 272.53125 132.769531 272.367188 132.609375 272.203125 C 133.148438 272.46875 133.6875 272.730469 134.238281 272.980469 Z M 138.144531 276.894531 C 137.695312 276.695312 137.253906 276.492188 136.808594 276.28125 C 136.636719 276.121094 136.460938 275.964844 136.289062 275.804688 C 136.738281 276.011719 137.191406 276.214844 137.644531 276.414062 C 137.8125 276.574219 137.980469 276.734375 138.148438 276.890625 Z M 111.40625 257.75 C 111.449219 257.804688 111.5 257.859375 111.542969 257.914062 C 110.6875 257.066406 109.847656 256.203125 109.019531 255.324219 C 109.800781 256.148438 110.601562 256.957031 111.402344 257.75 Z M 113.800781 260.042969 C 115.40625 261.519531 117.136719 263.019531 119 264.503906 C 119.105469 264.617188 119.214844 264.734375 119.320312 264.847656 C 117.417969 263.324219 115.640625 261.789062 114.007812 260.273438 C 113.941406 260.199219 113.867188 260.117188 113.800781 260.042969 Z M 120.335938 265.542969 C 121.578125 266.496094 122.871094 267.4375 124.214844 268.359375 C 124.335938 268.480469 124.453125 268.605469 124.570312 268.726562 C 124.589844 268.742188 124.601562 268.757812 124.621094 268.773438 C 123.265625 267.84375 121.960938 266.890625 120.710938 265.929688 C 120.589844 265.800781 120.460938 265.667969 120.335938 265.539062 Z M 130.527344 271.917969 C 129.769531 271.488281 129.023438 271.054688 128.292969 270.613281 C 128.136719 270.457031 127.980469 270.300781 127.828125 270.148438 C 128.5625 270.589844 129.3125 271.027344 130.074219 271.453125 C 130.222656 271.609375 130.375 271.765625 130.527344 271.917969 Z M 131.058594 271.996094 C 131.660156 272.316406 132.265625 272.636719 132.882812 272.945312 C 133.046875 273.113281 133.207031 273.277344 133.378906 273.445312 C 132.765625 273.132812 132.160156 272.8125 131.5625 272.492188 C 131.394531 272.328125 131.230469 272.160156 131.058594 271.996094 Z M 127.222656 269.953125 C 126.335938 269.394531 125.464844 268.828125 124.617188 268.25 C 124.488281 268.117188 124.359375 267.984375 124.230469 267.855469 C 125.070312 268.425781 125.933594 268.988281 126.816406 269.535156 C 126.953125 269.675781 127.085938 269.820312 127.222656 269.957031 Z M 123.070312 267.171875 C 121.613281 266.128906 120.214844 265.070312 118.890625 264.003906 C 118.804688 263.90625 118.710938 263.808594 118.621094 263.707031 C 119.917969 264.746094 121.28125 265.78125 122.707031 266.789062 C 122.824219 266.917969 122.949219 267.042969 123.070312 267.164062 Z M 125.761719 269.394531 C 126.554688 269.914062 127.367188 270.421875 128.195312 270.921875 C 128.359375 271.085938 128.523438 271.246094 128.6875 271.410156 C 127.859375 270.90625 127.046875 270.394531 126.25 269.871094 C 126.085938 269.714844 125.921875 269.558594 125.761719 269.394531 Z M 129.246094 271.550781 C 129.933594 271.953125 130.636719 272.347656 131.347656 272.738281 C 131.527344 272.910156 131.699219 273.085938 131.875 273.253906 C 131.15625 272.859375 130.453125 272.460938 129.757812 272.050781 C 129.585938 271.886719 129.417969 271.71875 129.246094 271.554688 Z M 132.386719 273.296875 C 132.953125 273.59375 133.523438 273.886719 134.105469 274.171875 C 134.285156 274.351562 134.46875 274.527344 134.648438 274.707031 C 134.074219 274.417969 133.503906 274.128906 132.949219 273.832031 C 132.761719 273.65625 132.574219 273.476562 132.390625 273.300781 Z M 135.316406 275.347656 C 135.476562 275.5 135.640625 275.652344 135.804688 275.804688 C 135.269531 275.542969 134.738281 275.277344 134.207031 275.007812 C 134.042969 274.855469 133.878906 274.707031 133.714844 274.554688 C 134.246094 274.824219 134.78125 275.089844 135.316406 275.351562 Z M 135.605469 275.175781 C 135.410156 274.992188 135.21875 274.808594 135.023438 274.621094 C 135.503906 274.851562 135.984375 275.074219 136.472656 275.292969 C 136.660156 275.480469 136.851562 275.667969 137.039062 275.847656 C 136.558594 275.625 136.078125 275.40625 135.605469 275.179688 Z M 134.304688 273.917969 C 134.125 273.742188 133.949219 273.566406 133.769531 273.394531 C 134.28125 273.640625 134.792969 273.886719 135.316406 274.125 C 135.488281 274.300781 135.664062 274.480469 135.835938 274.652344 C 135.316406 274.414062 134.808594 274.164062 134.304688 273.917969 Z M 132.1875 272.238281 C 131.539062 271.902344 130.902344 271.558594 130.277344 271.210938 C 130.125 271.058594 129.980469 270.90625 129.828125 270.753906 C 130.457031 271.097656 131.089844 271.441406 131.738281 271.773438 C 131.890625 271.929688 132.035156 272.085938 132.1875 272.242188 Z M 129.273438 270.640625 C 128.472656 270.171875 127.683594 269.699219 126.910156 269.21875 C 126.785156 269.089844 126.65625 268.957031 126.535156 268.824219 C 127.289062 269.292969 128.070312 269.753906 128.859375 270.203125 C 128.996094 270.351562 129.136719 270.492188 129.273438 270.640625 Z M 125.867188 268.550781 C 124.925781 267.941406 124.003906 267.316406 123.109375 266.6875 C 123 266.574219 122.890625 266.457031 122.78125 266.34375 C 123.667969 266.960938 124.574219 267.574219 125.511719 268.171875 C 125.628906 268.300781 125.75 268.425781 125.867188 268.550781 Z M 121.59375 265.597656 C 120.042969 264.453125 118.574219 263.289062 117.183594 262.125 C 117.125 262.058594 117.066406 261.992188 117.003906 261.925781 C 118.363281 263.058594 119.800781 264.195312 121.320312 265.300781 C 121.410156 265.398438 121.5 265.5 121.59375 265.597656 Z M 115.847656 260.980469 C 114.714844 259.996094 113.636719 259.011719 112.625 258.039062 C 112.078125 257.519531 111.539062 256.988281 111.003906 256.449219 C 111.453125 256.902344 111.910156 257.351562 112.371094 257.789062 C 113.417969 258.785156 114.535156 259.800781 115.707031 260.816406 C 115.75 260.871094 115.800781 260.925781 115.847656 260.976562 Z M 112.402344 258.269531 C 113.90625 259.707031 115.542969 261.175781 117.304688 262.640625 C 117.382812 262.722656 117.453125 262.804688 117.527344 262.886719 C 115.773438 261.421875 114.144531 259.953125 112.644531 258.519531 C 112.351562 258.230469 112.054688 257.945312 111.757812 257.65625 C 111.734375 257.628906 111.714844 257.605469 111.695312 257.582031 C 111.929688 257.8125 112.167969 258.039062 112.40625 258.265625 Z M 112.429688 259.234375 C 112.824219 259.609375 113.222656 259.980469 113.621094 260.351562 C 113.691406 260.433594 113.761719 260.511719 113.832031 260.597656 C 113.4375 260.230469 113.046875 259.863281 112.652344 259.484375 C 111.074219 257.96875 109.550781 256.398438 108.070312 254.785156 C 109.484375 256.316406 110.9375 257.800781 112.429688 259.234375 Z M 107.882812 254.582031 C 107.582031 254.253906 107.28125 253.921875 106.984375 253.589844 C 107.28125 253.921875 107.582031 254.253906 107.882812 254.582031 Z M 105.683594 252.101562 C 105.640625 252.050781 105.59375 252.003906 105.554688 251.949219 C 105.597656 252 105.644531 252.050781 105.683594 252.101562 Z M 116.027344 262.515625 C 117.582031 263.871094 119.167969 265.160156 120.773438 266.382812 C 120.894531 266.507812 121.007812 266.625 121.128906 266.746094 C 119.507812 265.507812 117.910156 264.210938 116.339844 262.847656 C 116.234375 262.738281 116.132812 262.621094 116.027344 262.511719 Z M 122.15625 267.414062 C 123.34375 268.28125 124.542969 269.113281 125.757812 269.914062 C 125.898438 270.050781 126.042969 270.183594 126.179688 270.320312 C 124.957031 269.519531 123.746094 268.679688 122.550781 267.808594 C 122.417969 267.675781 122.289062 267.542969 122.15625 267.414062 Z M 127.371094 270.953125 C 128.109375 271.417969 128.851562 271.871094 129.597656 272.308594 C 129.742188 272.445312 129.886719 272.582031 130.027344 272.714844 C 129.289062 272.28125 128.550781 271.839844 127.816406 271.378906 C 127.667969 271.238281 127.515625 271.09375 127.367188 270.949219 Z M 130.667969 272.921875 C 131.328125 273.292969 131.992188 273.660156 132.65625 274.011719 C 132.808594 274.15625 132.964844 274.304688 133.121094 274.453125 C 132.460938 274.101562 131.804688 273.742188 131.152344 273.371094 C 130.988281 273.222656 130.824219 273.070312 130.660156 272.914062 Z M 134.121094 275.375 C 134.304688 275.539062 134.488281 275.703125 134.671875 275.867188 C 134.0625 275.550781 133.457031 275.230469 132.851562 274.898438 C 132.664062 274.734375 132.476562 274.566406 132.292969 274.402344 C 132.898438 274.734375 133.511719 275.054688 134.121094 275.371094 Z M 135.234375 275.9375 C 135.726562 276.179688 136.214844 276.414062 136.707031 276.644531 C 136.902344 276.824219 137.097656 276.996094 137.292969 277.167969 C 136.800781 276.9375 136.3125 276.695312 135.824219 276.449219 C 135.621094 276.277344 135.429688 276.105469 135.230469 275.933594 Z M 137.714844 277.109375 C 138.128906 277.300781 138.546875 277.488281 138.96875 277.667969 C 139.15625 277.839844 139.347656 278.015625 139.539062 278.183594 C 139.132812 278.003906 138.722656 277.820312 138.316406 277.632812 C 138.113281 277.457031 137.914062 277.285156 137.710938 277.105469 Z M 139.046875 277.304688 C 138.871094 277.144531 138.695312 276.980469 138.519531 276.816406 C 138.914062 276.988281 139.308594 277.15625 139.703125 277.3125 C 139.871094 277.476562 140.042969 277.640625 140.214844 277.804688 C 139.828125 277.640625 139.4375 277.472656 139.046875 277.304688 Z M 136.671875 275.046875 C 136.492188 274.871094 136.3125 274.6875 136.132812 274.507812 C 136.574219 274.707031 137.027344 274.894531 137.472656 275.082031 C 137.652344 275.261719 137.824219 275.445312 138 275.625 C 137.554688 275.4375 137.105469 275.242188 136.667969 275.042969 Z M 135.515625 273.875 C 135.347656 273.703125 135.183594 273.535156 135.019531 273.363281 C 135.488281 273.574219 135.964844 273.785156 136.441406 273.984375 C 136.605469 274.160156 136.765625 274.332031 136.929688 274.507812 C 136.457031 274.300781 135.980469 274.089844 135.515625 273.875 Z M 134.429688 272.742188 C 134.277344 272.578125 134.125 272.414062 133.972656 272.25 C 134.460938 272.476562 134.957031 272.695312 135.460938 272.90625 C 135.609375 273.074219 135.765625 273.242188 135.917969 273.417969 C 135.417969 273.199219 134.921875 272.972656 134.429688 272.746094 Z M 133.40625 271.636719 C 133.257812 271.46875 133.101562 271.304688 132.953125 271.136719 C 133.464844 271.375 133.984375 271.601562 134.503906 271.820312 C 134.652344 271.996094 134.804688 272.167969 134.953125 272.339844 C 134.429688 272.109375 133.917969 271.875 133.402344 271.636719 Z M 132.414062 270.53125 C 132.296875 270.394531 132.175781 270.261719 132.058594 270.125 C 132.589844 270.367188 133.121094 270.609375 133.65625 270.832031 C 133.78125 270.980469 133.90625 271.125 134.027344 271.269531 C 133.488281 271.027344 132.953125 270.785156 132.414062 270.53125 Z M 131.539062 269.53125 C 126.707031 263.949219 122.253906 257.757812 117.589844 251.261719 C 111.84375 243.269531 105.910156 235.003906 98.519531 226.804688 C 91.609375 219.128906 86.519531 205.785156 84.191406 189.226562 C 84.132812 188.800781 84.078125 188.378906 84.027344 187.953125 C 83.8125 186.265625 83.644531 184.589844 83.511719 182.921875 C 83.671875 184.621094 83.871094 186.332031 84.113281 188.058594 C 84.171875 188.480469 84.234375 188.902344 84.296875 189.328125 C 86.851562 205.882812 92.339844 219.515625 99.351562 226.738281 C 108.15625 235.800781 114.699219 245.0625 121.023438 254.015625 C 125.089844 259.773438 128.984375 265.277344 133.1875 270.289062 C 132.632812 270.046875 132.082031 269.796875 131.535156 269.535156 Z M 83.296875 187.925781 C 83.34375 188.347656 83.394531 188.773438 83.441406 189.203125 C 85.523438 205.636719 90.410156 219.167969 97.199219 227.292969 C 103.066406 234.316406 108.148438 241.34375 113.066406 248.144531 C 118.109375 255.117188 122.917969 261.765625 128.105469 267.765625 C 127.367188 267.355469 126.628906 266.9375 125.894531 266.496094 C 119.800781 259.570312 114.203125 251.769531 108.308594 243.570312 C 104.523438 238.292969 100.605469 232.839844 96.375 227.382812 C 89.785156 218.875 85.15625 205.28125 83.335938 189.117188 C 83.292969 188.691406 83.246094 188.265625 83.207031 187.835938 C 83.019531 185.910156 82.886719 183.992188 82.804688 182.085938 C 82.917969 184.015625 83.078125 185.964844 83.296875 187.925781 Z M 128.710938 268.460938 C 128.804688 268.566406 128.902344 268.675781 128.996094 268.78125 C 128.273438 268.386719 127.554688 267.980469 126.84375 267.558594 C 126.757812 267.460938 126.671875 267.371094 126.585938 267.273438 C 127.289062 267.683594 128 268.082031 128.710938 268.460938 Z M 129.628906 269.492188 C 129.757812 269.632812 129.886719 269.78125 130.015625 269.921875 C 129.304688 269.539062 128.617188 269.152344 127.929688 268.75 C 127.800781 268.613281 127.675781 268.476562 127.546875 268.339844 C 128.238281 268.734375 128.929688 269.125 129.625 269.492188 Z M 130.65625 270.625 C 130.792969 270.773438 130.933594 270.921875 131.070312 271.070312 C 130.390625 270.710938 129.71875 270.335938 129.0625 269.960938 C 128.933594 269.828125 128.804688 269.691406 128.683594 269.554688 C 129.328125 269.921875 129.992188 270.277344 130.660156 270.625 Z M 128.089844 269.398438 C 127.25 268.902344 126.429688 268.398438 125.628906 267.878906 C 125.519531 267.757812 125.402344 267.640625 125.292969 267.519531 C 126.085938 268.023438 126.902344 268.519531 127.730469 269.003906 C 127.847656 269.136719 127.96875 269.265625 128.09375 269.398438 Z M 124.609375 267.214844 C 123.601562 266.546875 122.621094 265.863281 121.675781 265.171875 C 121.585938 265.078125 121.5 264.980469 121.414062 264.890625 C 122.347656 265.5625 123.304688 266.226562 124.296875 266.878906 C 124.398438 266.992188 124.503906 267.105469 124.609375 267.214844 Z M 120.171875 264.050781 C 118.546875 262.8125 117.015625 261.554688 115.578125 260.300781 C 115.546875 260.265625 115.519531 260.230469 115.488281 260.199219 C 116.890625 261.410156 118.386719 262.628906 119.972656 263.832031 C 120.039062 263.90625 120.105469 263.980469 120.171875 264.054688 Z M 114.226562 259.089844 C 113.699219 258.613281 113.1875 258.132812 112.691406 257.660156 C 113.179688 258.117188 113.675781 258.578125 114.1875 259.042969 C 114.203125 259.058594 114.214844 259.074219 114.226562 259.089844 Z M 107.285156 254.410156 C 108.941406 256.246094 110.65625 258.019531 112.421875 259.714844 C 113.5625 260.8125 114.71875 261.871094 115.894531 262.894531 C 116.007812 263.019531 116.125 263.144531 116.238281 263.269531 C 115.019531 262.199219 113.816406 261.101562 112.632812 259.964844 C 110.800781 258.195312 109.027344 256.351562 107.320312 254.453125 C 107.308594 254.441406 107.300781 254.421875 107.285156 254.410156 Z M 124.125 269.34375 C 125.230469 270.117188 126.347656 270.859375 127.476562 271.574219 C 127.644531 271.734375 127.8125 271.890625 127.980469 272.046875 C 126.851562 271.335938 125.730469 270.589844 124.621094 269.820312 C 124.453125 269.664062 124.289062 269.503906 124.125 269.34375 Z M 129.128906 272.59375 C 129.800781 272.996094 130.476562 273.390625 131.15625 273.773438 C 131.339844 273.945312 131.519531 274.105469 131.703125 274.269531 C 131.03125 273.890625 130.359375 273.5 129.695312 273.101562 C 129.503906 272.933594 129.316406 272.765625 129.128906 272.59375 Z M 132.875 275.3125 C 133.085938 275.492188 133.292969 275.675781 133.503906 275.855469 C 132.917969 275.539062 132.328125 275.210938 131.746094 274.878906 C 131.519531 274.6875 131.296875 274.496094 131.070312 274.300781 C 131.671875 274.648438 132.273438 274.984375 132.882812 275.3125 Z M 134.046875 275.9375 C 134.601562 276.226562 135.152344 276.507812 135.707031 276.78125 C 135.925781 276.972656 136.144531 277.160156 136.367188 277.34375 C 135.8125 277.070312 135.265625 276.792969 134.71875 276.503906 C 134.492188 276.316406 134.273438 276.128906 134.046875 275.9375 Z M 136.867188 277.34375 C 137.320312 277.558594 137.765625 277.773438 138.21875 277.980469 C 138.4375 278.164062 138.652344 278.351562 138.871094 278.535156 C 138.441406 278.335938 138.007812 278.144531 137.578125 277.933594 C 137.335938 277.738281 137.097656 277.542969 136.863281 277.34375 Z M 139.273438 278.449219 C 139.460938 278.53125 139.644531 278.617188 139.835938 278.695312 C 140.023438 278.777344 140.207031 278.851562 140.394531 278.925781 C 140.613281 279.117188 140.835938 279.308594 141.058594 279.492188 C 140.703125 279.34375 140.347656 279.195312 140 279.042969 C 139.757812 278.84375 139.515625 278.644531 139.277344 278.445312 Z M 141.898438 280.199219 C 142.183594 280.433594 142.472656 280.664062 142.761719 280.890625 C 142.453125 280.761719 142.148438 280.632812 141.84375 280.5 C 141.542969 280.269531 141.238281 280.035156 140.9375 279.800781 C 141.257812 279.9375 141.582031 280.066406 141.898438 280.199219 Z M 143.695312 281.609375 C 144.015625 281.855469 144.339844 282.097656 144.664062 282.335938 C 144.429688 282.246094 144.191406 282.152344 143.957031 282.058594 C 143.59375 281.800781 143.238281 281.542969 142.878906 281.285156 C 143.148438 281.394531 143.417969 281.503906 143.6875 281.609375 Z M 145.691406 283.078125 C 146.078125 283.351562 146.472656 283.617188 146.867188 283.882812 C 146.71875 283.832031 146.574219 283.777344 146.429688 283.722656 C 145.992188 283.441406 145.554688 283.152344 145.125 282.863281 C 145.316406 282.9375 145.5 283.011719 145.691406 283.082031 Z M 148.046875 284.660156 C 148.523438 284.960938 149.003906 285.261719 149.488281 285.554688 C 149.457031 285.539062 149.421875 285.53125 149.390625 285.519531 C 148.839844 285.203125 148.300781 284.882812 147.769531 284.5625 C 147.863281 284.597656 147.957031 284.628906 148.046875 284.660156 Z M 150.9375 285.636719 C 150.988281 285.65625 151.039062 285.671875 151.089844 285.6875 C 151.472656 285.929688 151.851562 286.167969 152.242188 286.402344 C 151.804688 286.152344 151.367188 285.898438 150.9375 285.636719 Z M 149.792969 284.925781 C 149.378906 284.660156 148.964844 284.386719 148.5625 284.113281 C 148.691406 284.15625 148.816406 284.199219 148.941406 284.238281 C 149.316406 284.503906 149.691406 284.761719 150.074219 285.015625 C 149.980469 284.988281 149.886719 284.957031 149.792969 284.925781 Z M 147.574219 283.433594 C 147.214844 283.179688 146.859375 282.921875 146.511719 282.660156 C 146.707031 282.730469 146.902344 282.796875 147.097656 282.867188 C 147.414062 283.113281 147.734375 283.355469 148.058594 283.59375 C 147.898438 283.539062 147.734375 283.488281 147.574219 283.433594 Z M 145.628906 282 C 145.332031 281.769531 145.035156 281.539062 144.738281 281.304688 C 144.976562 281.394531 145.21875 281.476562 145.457031 281.5625 C 145.734375 281.792969 146.015625 282.019531 146.296875 282.25 C 146.074219 282.167969 145.851562 282.085938 145.628906 282 Z M 143.949219 280.671875 C 143.710938 280.472656 143.46875 280.273438 143.234375 280.074219 C 143.515625 280.179688 143.796875 280.28125 144.078125 280.386719 C 144.300781 280.582031 144.523438 280.773438 144.742188 280.96875 C 144.476562 280.871094 144.210938 280.777344 143.949219 280.675781 Z M 142.425781 279.378906 C 142.21875 279.195312 142.011719 279.011719 141.808594 278.828125 C 142.128906 278.953125 142.449219 279.082031 142.773438 279.203125 C 142.96875 279.382812 143.164062 279.558594 143.355469 279.742188 C 143.046875 279.621094 142.738281 279.503906 142.425781 279.382812 Z M 141.042969 278.132812 C 140.863281 277.964844 140.6875 277.800781 140.507812 277.632812 C 140.863281 277.773438 141.214844 277.914062 141.566406 278.046875 C 141.742188 278.214844 141.914062 278.382812 142.085938 278.546875 C 141.742188 278.414062 141.390625 278.269531 141.042969 278.128906 Z M 142.3125 278.320312 C 142.628906 278.433594 142.953125 278.554688 143.273438 278.667969 C 143.445312 278.84375 143.617188 279.015625 143.796875 279.183594 C 143.480469 279.074219 143.171875 278.953125 142.859375 278.839844 C 142.679688 278.664062 142.492188 278.492188 142.3125 278.320312 Z M 143.976562 278.910156 C 144.269531 279.007812 144.5625 279.109375 144.859375 279.203125 C 145.03125 279.378906 145.207031 279.554688 145.382812 279.726562 C 145.097656 279.636719 144.816406 279.539062 144.53125 279.441406 C 144.34375 279.261719 144.164062 279.085938 143.976562 278.910156 Z M 145.523438 279.414062 C 145.792969 279.5 146.0625 279.582031 146.332031 279.660156 C 146.507812 279.84375 146.683594 280.023438 146.859375 280.207031 C 146.601562 280.128906 146.339844 280.046875 146.082031 279.964844 C 145.894531 279.78125 145.710938 279.601562 145.523438 279.414062 Z M 149.617188 280.570312 C 155.15625 281.960938 160.785156 282.664062 166.449219 282.664062 C 167.300781 282.664062 168.148438 282.648438 169 282.617188 C 195.902344 281.621094 205.777344 277.472656 216.230469 273.078125 C 223.511719 270.019531 231.039062 266.855469 244.742188 264.371094 C 255.492188 262.421875 266.183594 255.023438 275.1875 243.382812 C 266.90625 254.226562 256.703125 261.96875 246.023438 264.449219 C 233.882812 267.273438 226.515625 270.402344 219.390625 273.4375 C 207.835938 278.359375 197.851562 282.609375 170.835938 283.523438 C 163.894531 283.757812 156.957031 282.949219 150.160156 281.160156 C 149.976562 280.964844 149.792969 280.765625 149.613281 280.570312 Z M 244.691406 264.054688 C 230.949219 266.550781 223.40625 269.722656 216.105469 272.789062 C 205.683594 277.167969 195.835938 281.304688 168.988281 282.300781 C 161.921875 282.5625 155.339844 281.742188 149.269531 280.195312 C 149.074219 279.976562 148.886719 279.757812 148.695312 279.539062 C 153.621094 280.742188 158.875 281.445312 164.453125 281.445312 C 165.339844 281.445312 166.242188 281.429688 167.148438 281.394531 C 193.984375 280.316406 203.351562 276.394531 213.269531 272.238281 C 220.589844 269.171875 228.152344 266 243.386719 263.980469 C 254.515625 262.5 265.71875 255.03125 275.203125 242.84375 C 266.1875 254.621094 255.46875 262.101562 244.683594 264.0625 Z M 148.707031 280.042969 C 148.460938 279.976562 148.207031 279.910156 147.960938 279.84375 C 147.765625 279.632812 147.570312 279.414062 147.375 279.203125 C 147.636719 279.273438 147.894531 279.34375 148.15625 279.410156 C 148.335938 279.621094 148.519531 279.835938 148.703125 280.046875 Z M 147.367188 279.675781 C 147.101562 279.601562 146.835938 279.519531 146.570312 279.445312 C 146.375 279.238281 146.179688 279.027344 145.984375 278.820312 C 146.253906 278.898438 146.527344 278.972656 146.804688 279.046875 C 146.988281 279.257812 147.175781 279.46875 147.367188 279.675781 Z M 145.949219 279.257812 C 145.664062 279.171875 145.378906 279.082031 145.09375 278.988281 C 144.894531 278.785156 144.695312 278.582031 144.5 278.371094 C 144.789062 278.464844 145.085938 278.550781 145.378906 278.640625 C 145.566406 278.847656 145.757812 279.054688 145.949219 279.257812 Z M 144.4375 278.773438 C 144.132812 278.667969 143.828125 278.5625 143.519531 278.457031 C 143.320312 278.257812 143.117188 278.054688 142.921875 277.851562 C 143.238281 277.957031 143.550781 278.0625 143.871094 278.164062 C 144.0625 278.367188 144.246094 278.566406 144.441406 278.765625 Z M 142.820312 278.214844 C 142.484375 278.09375 142.152344 277.96875 141.820312 277.847656 C 141.617188 277.648438 141.417969 277.445312 141.21875 277.246094 C 141.5625 277.375 141.902344 277.5 142.25 277.625 C 142.441406 277.824219 142.628906 278.019531 142.820312 278.214844 Z M 141.070312 277.5625 C 140.699219 277.417969 140.332031 277.269531 139.964844 277.121094 C 139.765625 276.925781 139.5625 276.730469 139.363281 276.535156 C 139.738281 276.683594 140.117188 276.835938 140.5 276.980469 C 140.691406 277.175781 140.882812 277.367188 141.070312 277.558594 Z M 138.777344 275.953125 C 138.589844 275.769531 138.410156 275.582031 138.222656 275.394531 C 138.621094 275.558594 139.023438 275.71875 139.433594 275.875 C 139.609375 276.0625 139.785156 276.246094 139.964844 276.433594 C 139.566406 276.277344 139.167969 276.117188 138.777344 275.953125 Z M 137.667969 274.820312 C 137.5 274.644531 137.332031 274.464844 137.164062 274.285156 C 137.585938 274.457031 138.011719 274.625 138.441406 274.789062 C 138.605469 274.972656 138.769531 275.152344 138.933594 275.328125 C 138.507812 275.160156 138.089844 274.992188 137.667969 274.816406 Z M 136.632812 273.71875 C 136.472656 273.542969 136.320312 273.375 136.160156 273.203125 C 136.601562 273.386719 137.046875 273.5625 137.496094 273.734375 C 137.652344 273.914062 137.808594 274.085938 137.960938 274.257812 C 137.515625 274.082031 137.070312 273.898438 136.632812 273.714844 Z M 135.644531 272.636719 C 135.488281 272.464844 135.335938 272.285156 135.179688 272.113281 C 135.644531 272.304688 136.105469 272.492188 136.570312 272.671875 C 136.726562 272.855469 136.875 273.03125 137.03125 273.207031 C 136.566406 273.023438 136.101562 272.832031 135.644531 272.636719 Z M 134.691406 271.554688 C 134.5625 271.410156 134.441406 271.261719 134.3125 271.117188 C 134.789062 271.316406 135.269531 271.507812 135.75 271.6875 C 135.878906 271.84375 136.007812 272 136.136719 272.148438 C 135.652344 271.957031 135.175781 271.757812 134.691406 271.554688 Z M 133.84375 270.5625 C 129.484375 265.429688 125.480469 259.757812 121.28125 253.820312 C 114.945312 244.855469 108.394531 235.585938 99.574219 226.5 C 92.605469 219.324219 87.148438 205.753906 84.601562 189.265625 C 84.539062 188.84375 84.476562 188.425781 84.421875 188 C 84.160156 186.144531 83.949219 184.300781 83.78125 182.476562 C 83.976562 184.335938 84.21875 186.210938 84.507812 188.101562 C 84.570312 188.523438 84.636719 188.945312 84.707031 189.367188 C 87.515625 206.070312 93.246094 219.582031 100.417969 226.433594 C 110.589844 236.160156 117.554688 246.257812 124.289062 256.027344 C 127.972656 261.371094 131.503906 266.488281 135.320312 271.164062 C 134.824219 270.972656 134.328125 270.765625 133.832031 270.554688 Z M 82.886719 187.867188 C 82.929688 188.296875 82.972656 188.722656 83.015625 189.152344 C 84.847656 205.375 89.5 219.023438 96.125 227.578125 C 100.34375 233.035156 104.261719 238.484375 108.046875 243.753906 C 113.722656 251.652344 119.128906 259.183594 124.964844 265.921875 C 124.054688 265.355469 123.148438 264.761719 122.246094 264.140625 C 115.285156 256.136719 108.921875 247.046875 102.214844 237.46875 C 99.976562 234.277344 97.664062 230.972656 95.304688 227.675781 C 88.875 218.707031 84.472656 204.992188 82.90625 189.0625 C 82.867188 188.636719 82.832031 188.207031 82.796875 187.777344 C 82.589844 185.367188 82.46875 182.984375 82.417969 180.628906 C 82.492188 183.019531 82.648438 185.4375 82.882812 187.867188 Z M 125.675781 266.730469 C 125.75 266.820312 125.828125 266.90625 125.90625 266.992188 C 125.015625 266.449219 124.132812 265.878906 123.25 265.285156 C 123.195312 265.222656 123.140625 265.15625 123.082031 265.09375 C 123.941406 265.664062 124.800781 266.210938 125.667969 266.730469 Z M 126.628906 267.808594 C 126.746094 267.9375 126.859375 268.0625 126.976562 268.1875 C 126.105469 267.664062 125.253906 267.125 124.421875 266.578125 C 124.320312 266.464844 124.214844 266.355469 124.121094 266.246094 C 124.953125 266.789062 125.792969 267.308594 126.636719 267.808594 Z M 123.410156 265.902344 C 122.347656 265.179688 121.324219 264.441406 120.332031 263.699219 C 120.257812 263.617188 120.1875 263.535156 120.113281 263.449219 C 121.113281 264.195312 122.117188 264.902344 123.132812 265.585938 C 123.222656 265.691406 123.320312 265.796875 123.414062 265.902344 Z M 118.867188 262.566406 C 117.140625 261.210938 115.535156 259.839844 114.046875 258.484375 C 114.019531 258.449219 113.992188 258.417969 113.960938 258.382812 C 115.511719 259.78125 117.082031 261.105469 118.671875 262.347656 C 118.738281 262.421875 118.800781 262.492188 118.867188 262.566406 Z M 107.570312 255.203125 C 107.632812 255.277344 107.695312 255.351562 107.757812 255.425781 C 105.773438 253.242188 103.878906 250.988281 102.085938 248.664062 C 103.828125 250.914062 105.65625 253.09375 107.570312 255.195312 Z M 101.921875 248.445312 C 101.488281 247.878906 101.054688 247.308594 100.628906 246.730469 C 101.054688 247.308594 101.484375 247.878906 101.921875 248.445312 Z M 120.960938 267.558594 C 122.21875 268.519531 123.488281 269.449219 124.777344 270.335938 C 124.964844 270.511719 125.152344 270.6875 125.335938 270.859375 C 124.054688 269.980469 122.78125 269.0625 121.527344 268.105469 C 121.335938 267.921875 121.152344 267.742188 120.960938 267.558594 Z M 126.261719 271.339844 C 127.277344 272.007812 128.296875 272.660156 129.328125 273.277344 C 129.53125 273.464844 129.742188 273.640625 129.945312 273.824219 C 128.917969 273.203125 127.894531 272.5625 126.878906 271.898438 C 126.671875 271.710938 126.46875 271.523438 126.257812 271.339844 Z M 131.304688 275.003906 C 131.570312 275.226562 131.835938 275.453125 132.101562 275.675781 C 131.191406 275.152344 130.285156 274.617188 129.390625 274.058594 C 129.101562 273.820312 128.816406 273.574219 128.53125 273.332031 C 129.449219 273.902344 130.375 274.464844 131.304688 275.003906 Z M 133.121094 276.019531 C 133.632812 276.304688 134.152344 276.574219 134.671875 276.84375 C 134.949219 277.074219 135.230469 277.304688 135.507812 277.53125 C 135.007812 277.273438 134.511719 277.007812 134.015625 276.738281 C 133.714844 276.5 133.417969 276.261719 133.121094 276.019531 Z M 135.902344 277.472656 C 136.398438 277.722656 136.898438 277.96875 137.394531 278.210938 C 137.679688 278.441406 137.960938 278.667969 138.246094 278.894531 C 137.765625 278.667969 137.292969 278.441406 136.820312 278.203125 C 136.507812 277.964844 136.203125 277.722656 135.898438 277.472656 Z M 138.628906 278.789062 C 139.019531 278.964844 139.410156 279.140625 139.804688 279.3125 C 140.09375 279.546875 140.378906 279.777344 140.671875 280.011719 C 140.292969 279.84375 139.914062 279.667969 139.535156 279.492188 C 139.234375 279.257812 138.933594 279.023438 138.628906 278.789062 Z M 141.6875 280.800781 C 142.011719 281.046875 142.339844 281.292969 142.667969 281.535156 C 142.371094 281.410156 142.078125 281.289062 141.78125 281.160156 C 141.414062 280.898438 141.042969 280.632812 140.6875 280.367188 C 141.019531 280.511719 141.355469 280.664062 141.6875 280.804688 Z M 143.785156 282.34375 C 144.175781 282.617188 144.574219 282.890625 144.972656 283.15625 C 144.773438 283.078125 144.574219 283.003906 144.375 282.921875 C 143.933594 282.632812 143.496094 282.34375 143.058594 282.046875 C 143.304688 282.148438 143.546875 282.246094 143.792969 282.34375 Z M 146.253906 284.003906 C 146.734375 284.3125 147.21875 284.613281 147.710938 284.910156 C 147.636719 284.882812 147.5625 284.859375 147.484375 284.828125 C 146.933594 284.507812 146.382812 284.179688 145.84375 283.84375 C 145.980469 283.898438 146.117188 283.945312 146.253906 284 Z M 152.308594 286.078125 C 152.34375 286.089844 152.386719 286.097656 152.421875 286.105469 C 152.707031 286.292969 153 286.476562 153.292969 286.65625 C 152.960938 286.464844 152.632812 286.269531 152.304688 286.070312 Z M 151.238281 285.40625 C 150.820312 285.140625 150.414062 284.871094 150.007812 284.597656 C 150.121094 284.632812 150.238281 284.671875 150.351562 284.707031 C 150.714844 284.96875 151.085938 285.222656 151.460938 285.472656 C 151.382812 285.453125 151.3125 285.429688 151.238281 285.402344 Z M 149.089844 283.957031 C 148.742188 283.710938 148.402344 283.460938 148.0625 283.210938 C 148.230469 283.269531 148.398438 283.320312 148.570312 283.378906 C 148.886719 283.625 149.207031 283.871094 149.53125 284.109375 C 149.386719 284.0625 149.238281 284.007812 149.09375 283.957031 Z M 147.246094 282.589844 C 146.949219 282.359375 146.65625 282.128906 146.363281 281.894531 C 146.582031 281.96875 146.792969 282.039062 147.011719 282.113281 C 147.28125 282.34375 147.554688 282.5625 147.835938 282.789062 C 147.640625 282.722656 147.445312 282.65625 147.25 282.589844 Z M 145.632812 281.300781 C 145.394531 281.101562 145.15625 280.898438 144.917969 280.695312 C 145.171875 280.78125 145.429688 280.875 145.6875 280.964844 C 145.902344 281.160156 146.125 281.355469 146.347656 281.550781 C 146.109375 281.464844 145.867188 281.386719 145.628906 281.300781 Z M 144.175781 280.050781 C 143.96875 279.867188 143.761719 279.679688 143.550781 279.492188 C 143.84375 279.601562 144.136719 279.710938 144.429688 279.808594 C 144.625 279.996094 144.824219 280.175781 145.019531 280.363281 C 144.734375 280.265625 144.457031 280.15625 144.175781 280.050781 Z M 145.164062 280.050781 C 145.429688 280.140625 145.695312 280.234375 145.960938 280.316406 C 146.15625 280.507812 146.351562 280.695312 146.550781 280.878906 C 146.292969 280.796875 146.042969 280.707031 145.785156 280.617188 C 145.578125 280.429688 145.367188 280.242188 145.160156 280.050781 Z M 146.667969 280.539062 C 146.910156 280.613281 147.152344 280.691406 147.402344 280.765625 C 147.597656 280.957031 147.792969 281.152344 147.984375 281.335938 C 147.75 281.265625 147.519531 281.195312 147.285156 281.121094 C 147.078125 280.929688 146.871094 280.734375 146.667969 280.539062 Z M 148.074219 280.96875 C 148.300781 281.035156 148.527344 281.09375 148.753906 281.160156 C 148.949219 281.355469 149.140625 281.554688 149.335938 281.742188 C 149.121094 281.683594 148.902344 281.621094 148.691406 281.558594 C 148.480469 281.363281 148.277344 281.167969 148.074219 280.96875 Z M 149.390625 281.335938 C 149.609375 281.394531 149.824219 281.457031 150.042969 281.511719 C 150.230469 281.714844 150.425781 281.914062 150.621094 282.113281 C 150.414062 282.054688 150.210938 281.992188 150 281.933594 C 149.796875 281.734375 149.59375 281.535156 149.390625 281.335938 Z M 150.640625 281.664062 C 156.480469 283.144531 162.417969 283.898438 168.402344 283.898438 C 169.21875 283.898438 170.03125 283.882812 170.847656 283.855469 C 197.921875 282.941406 207.933594 278.679688 219.519531 273.742188 C 226.628906 270.71875 233.980469 267.585938 246.097656 264.773438 C 258.996094 261.78125 271.203125 251.15625 280.203125 236.679688 C 271.609375 250.761719 259.957031 261.261719 247.367188 264.859375 C 236.890625 267.851562 229.5625 271.042969 223.101562 273.859375 C 210.703125 279.257812 199.996094 283.921875 172.691406 284.765625 C 165.480469 284.988281 158.285156 284.136719 151.25 282.285156 C 151.046875 282.082031 150.84375 281.875 150.640625 281.671875 Z M 243.347656 263.671875 C 228.074219 265.699219 220.484375 268.875 213.144531 271.949219 C 203.253906 276.089844 193.914062 280.007812 167.136719 281.078125 C 160.414062 281.351562 154.144531 280.59375 148.339844 279.128906 C 148.160156 278.914062 147.976562 278.695312 147.800781 278.480469 C 152.421875 279.585938 157.335938 280.234375 162.539062 280.234375 C 163.445312 280.234375 164.367188 280.214844 165.296875 280.175781 C 192.164062 279.015625 201.53125 275.070312 210.59375 271.25 C 218.179688 268.054688 225.339844 265.035156 242.035156 263.59375 C 252.929688 262.65625 264.464844 255.46875 274.105469 243.71875 C 264.859375 255.214844 254.0625 262.25 243.347656 263.671875 Z M 147.804688 278.996094 C 147.535156 278.925781 147.265625 278.855469 146.992188 278.78125 C 146.8125 278.574219 146.628906 278.359375 146.449219 278.148438 C 146.722656 278.21875 147.003906 278.289062 147.28125 278.359375 C 147.453125 278.578125 147.628906 278.789062 147.804688 279.003906 Z M 146.425781 278.621094 C 146.140625 278.542969 145.851562 278.457031 145.566406 278.371094 C 145.382812 278.167969 145.199219 277.964844 145.019531 277.757812 C 145.3125 277.839844 145.601562 277.917969 145.898438 277.996094 C 146.078125 278.203125 146.25 278.414062 146.429688 278.621094 Z M 144.972656 278.191406 C 144.664062 278.097656 144.359375 278 144.050781 277.902344 C 143.867188 277.703125 143.679688 277.5 143.496094 277.296875 C 143.808594 277.394531 144.125 277.492188 144.4375 277.585938 C 144.613281 277.789062 144.792969 277.992188 144.972656 278.195312 Z M 143.421875 277.695312 C 143.089844 277.585938 142.761719 277.472656 142.4375 277.359375 C 142.25 277.164062 142.0625 276.964844 141.878906 276.765625 C 142.214844 276.878906 142.550781 276.996094 142.890625 277.105469 C 143.070312 277.304688 143.246094 277.5 143.421875 277.695312 Z M 141.761719 277.121094 C 141.398438 276.992188 141.039062 276.855469 140.6875 276.722656 C 140.5 276.53125 140.3125 276.335938 140.128906 276.144531 C 140.496094 276.28125 140.859375 276.417969 141.230469 276.546875 C 141.40625 276.738281 141.585938 276.933594 141.761719 277.125 Z M 139.628906 275.613281 C 139.453125 275.425781 139.277344 275.242188 139.105469 275.054688 C 139.496094 275.203125 139.878906 275.347656 140.273438 275.484375 C 140.4375 275.671875 140.605469 275.855469 140.769531 276.042969 C 140.386719 275.90625 140.003906 275.757812 139.621094 275.617188 Z M 138.628906 274.53125 C 138.46875 274.351562 138.308594 274.167969 138.144531 273.988281 C 138.550781 274.136719 138.957031 274.292969 139.371094 274.433594 C 139.527344 274.617188 139.683594 274.800781 139.839844 274.980469 C 139.4375 274.832031 139.035156 274.683594 138.628906 274.527344 Z M 137.691406 273.476562 C 137.527344 273.292969 137.363281 273.101562 137.199219 272.910156 C 137.625 273.070312 138.050781 273.226562 138.476562 273.371094 C 138.636719 273.5625 138.789062 273.753906 138.949219 273.945312 C 138.527344 273.792969 138.109375 273.636719 137.691406 273.476562 Z M 136.769531 272.410156 C 136.632812 272.246094 136.496094 272.082031 136.359375 271.921875 C 136.796875 272.085938 137.234375 272.242188 137.675781 272.394531 C 137.8125 272.5625 137.945312 272.730469 138.082031 272.898438 C 137.644531 272.738281 137.203125 272.578125 136.765625 272.410156 Z M 135.945312 271.425781 C 131.984375 266.640625 128.355469 261.371094 124.558594 255.867188 C 117.816406 246.085938 110.84375 235.972656 100.640625 226.226562 C 93.519531 219.417969 87.828125 205.96875 85.027344 189.335938 C 84.957031 188.917969 84.894531 188.496094 84.828125 188.074219 C 84.539062 186.222656 84.304688 184.382812 84.113281 182.570312 C 84.332031 184.429688 84.601562 186.308594 84.917969 188.183594 C 84.988281 188.605469 85.058594 189.027344 85.132812 189.449219 C 88.195312 206.285156 94.160156 219.675781 101.492188 226.179688 C 113.003906 236.382812 120.234375 247.210938 127.234375 257.683594 C 130.589844 262.707031 133.808594 267.519531 137.300781 271.933594 C 136.851562 271.773438 136.394531 271.605469 135.941406 271.433594 Z M 82.484375 187.804688 C 82.519531 188.234375 82.554688 188.664062 82.59375 189.09375 C 84.171875 205.078125 88.59375 218.847656 95.050781 227.863281 C 97.410156 231.152344 99.726562 234.457031 101.957031 237.652344 C 108.371094 246.8125 114.535156 255.605469 121.253906 263.441406 C 120.132812 262.644531 119.019531 261.804688 117.917969 260.925781 C 109.535156 251.074219 102.113281 239.851562 94.515625 228.375 L 94.246094 227.964844 C 87.988281 218.507812 83.808594 204.667969 82.488281 189.003906 C 82.453125 188.574219 82.421875 188.144531 82.394531 187.714844 C 82.257812 185.761719 82.175781 183.820312 82.140625 181.894531 C 82.203125 183.84375 82.3125 185.816406 82.480469 187.800781 Z M 122.097656 264.429688 C 122.144531 264.480469 122.191406 264.53125 122.238281 264.582031 C 121.160156 263.832031 120.097656 263.050781 119.039062 262.226562 C 119.019531 262.203125 119 262.183594 118.980469 262.160156 C 120.011719 262.949219 121.054688 263.707031 122.097656 264.429688 Z M 117.585938 261.074219 C 117.53125 261.03125 117.480469 260.988281 117.425781 260.941406 C 117.476562 260.980469 117.523438 261.019531 117.570312 261.058594 C 117.578125 261.0625 117.582031 261.070312 117.585938 261.074219 Z M 111.011719 259.316406 C 111.121094 259.441406 111.230469 259.570312 111.339844 259.691406 C 108.769531 257.121094 106.335938 254.421875 104.046875 251.613281 C 106.253906 254.308594 108.578125 256.878906 111.011719 259.320312 Z M 123.636719 270.0625 C 124.734375 270.847656 125.84375 271.605469 126.957031 272.335938 C 127.21875 272.566406 127.480469 272.792969 127.738281 273.023438 C 126.636719 272.308594 125.546875 271.570312 124.464844 270.808594 C 124.1875 270.5625 123.910156 270.316406 123.636719 270.066406 Z M 129.480469 274.496094 C 129.792969 274.757812 130.113281 275.019531 130.425781 275.277344 C 129.523438 274.726562 128.628906 274.164062 127.742188 273.585938 C 127.394531 273.296875 127.042969 273.007812 126.695312 272.722656 C 127.617188 273.332031 128.542969 273.921875 129.480469 274.496094 Z M 131.152344 275.503906 C 131.949219 275.96875 132.75 276.425781 133.554688 276.867188 C 133.878906 277.125 134.199219 277.378906 134.523438 277.628906 C 133.753906 277.210938 132.988281 276.78125 132.230469 276.34375 C 131.871094 276.066406 131.511719 275.785156 131.15625 275.503906 Z M 135.496094 277.898438 C 135.914062 278.117188 136.335938 278.324219 136.761719 278.535156 C 137.09375 278.796875 137.429688 279.050781 137.765625 279.308594 C 137.371094 279.113281 136.984375 278.917969 136.59375 278.71875 C 136.226562 278.449219 135.863281 278.179688 135.5 277.898438 Z M 138.097656 279.1875 C 138.519531 279.386719 138.941406 279.585938 139.367188 279.78125 C 139.695312 280.03125 140.023438 280.277344 140.347656 280.527344 C 139.96875 280.351562 139.585938 280.183594 139.210938 280.007812 C 138.839844 279.738281 138.472656 279.46875 138.105469 279.191406 Z M 141.59375 281.429688 C 141.988281 281.714844 142.386719 281.988281 142.789062 282.261719 C 142.511719 282.144531 142.230469 282.027344 141.953125 281.90625 C 141.5 281.609375 141.058594 281.308594 140.613281 281.003906 C 140.9375 281.152344 141.265625 281.292969 141.59375 281.433594 Z M 144.191406 283.191406 C 144.675781 283.511719 145.171875 283.820312 145.667969 284.128906 C 145.527344 284.070312 145.382812 284.015625 145.238281 283.953125 C 144.675781 283.621094 144.125 283.285156 143.574219 282.941406 C 143.777344 283.023438 143.984375 283.109375 144.191406 283.1875 Z M 147.316406 285.105469 C 147.582031 285.261719 147.851562 285.410156 148.128906 285.5625 C 147.8125 285.394531 147.496094 285.226562 147.183594 285.054688 C 147.230469 285.070312 147.273438 285.089844 147.320312 285.105469 Z M 153.570312 286.449219 C 153.601562 286.457031 153.628906 286.464844 153.660156 286.476562 C 153.898438 286.628906 154.140625 286.78125 154.378906 286.929688 C 154.109375 286.773438 153.835938 286.613281 153.570312 286.449219 Z M 152.574219 285.824219 C 152.164062 285.558594 151.761719 285.292969 151.355469 285.015625 C 151.453125 285.046875 151.554688 285.074219 151.652344 285.105469 C 152.023438 285.371094 152.394531 285.628906 152.769531 285.886719 C 152.703125 285.867188 152.640625 285.847656 152.574219 285.824219 Z M 150.496094 284.414062 C 150.160156 284.175781 149.828125 283.929688 149.5 283.679688 C 149.652344 283.726562 149.800781 283.773438 149.953125 283.816406 C 150.257812 284.054688 150.5625 284.296875 150.878906 284.53125 C 150.75 284.492188 150.625 284.449219 150.496094 284.410156 Z M 148.742188 283.097656 C 148.441406 282.863281 148.144531 282.628906 147.851562 282.390625 C 148.058594 282.457031 148.257812 282.527344 148.460938 282.589844 C 148.726562 282.816406 148.996094 283.042969 149.265625 283.261719 C 149.09375 283.210938 148.921875 283.15625 148.75 283.097656 Z M 147.175781 281.828125 C 146.9375 281.628906 146.703125 281.425781 146.472656 281.222656 C 146.707031 281.300781 146.941406 281.378906 147.179688 281.457031 C 147.402344 281.65625 147.621094 281.855469 147.84375 282.054688 C 147.621094 281.984375 147.402344 281.902344 147.179688 281.828125 Z M 147.914062 281.6875 C 148.132812 281.753906 148.34375 281.820312 148.5625 281.882812 C 148.777344 282.085938 148.996094 282.285156 149.21875 282.484375 C 149.015625 282.421875 148.816406 282.359375 148.609375 282.292969 C 148.375 282.09375 148.144531 281.890625 147.914062 281.683594 Z M 149.273438 282.097656 C 149.472656 282.15625 149.675781 282.210938 149.867188 282.261719 C 150.082031 282.464844 150.296875 282.667969 150.519531 282.875 C 150.332031 282.820312 150.148438 282.773438 149.964844 282.714844 C 149.730469 282.511719 149.5 282.304688 149.273438 282.097656 Z M 150.546875 282.449219 C 150.738281 282.5 150.925781 282.554688 151.117188 282.609375 C 151.332031 282.816406 151.546875 283.019531 151.765625 283.222656 C 151.585938 283.175781 151.40625 283.121094 151.230469 283.074219 C 151 282.871094 150.773438 282.660156 150.546875 282.449219 Z M 151.753906 282.761719 C 157.875 284.316406 164.09375 285.105469 170.371094 285.105469 C 171.144531 285.105469 171.917969 285.09375 172.691406 285.070312 C 200.058594 284.230469 210.789062 279.554688 223.21875 274.136719 C 229.671875 271.324219 236.988281 268.140625 247.445312 265.152344 C 258.8125 261.902344 269.417969 253.070312 277.71875 241.0625 C 269.574219 253.066406 259.378906 261.585938 248.695312 265.238281 C 239.964844 268.226562 233.242188 271.253906 227.3125 273.925781 C 213.324219 280.230469 202.277344 285.210938 174.527344 285.972656 C 167.082031 286.179688 159.667969 285.292969 152.429688 283.390625 C 152.199219 283.183594 151.976562 282.972656 151.75 282.757812 Z M 242 263.261719 C 225.257812 264.707031 218.070312 267.734375 210.460938 270.941406 C 201.425781 274.746094 192.082031 278.683594 165.273438 279.839844 C 158.925781 280.113281 152.976562 279.421875 147.464844 278.0625 C 147.289062 277.851562 147.121094 277.632812 146.953125 277.417969 C 151.257812 278.417969 155.820312 278.996094 160.632812 278.996094 C 161.558594 278.996094 162.496094 278.976562 163.441406 278.929688 C 190.425781 277.683594 199.4375 273.832031 208.148438 270.105469 C 215.578125 266.929688 222.59375 263.933594 240.675781 263.183594 C 250.914062 262.757812 261.835938 256.730469 271.335938 246.421875 C 262.296875 256.367188 251.878906 262.402344 242.003906 263.257812 Z M 146.949219 277.933594 C 146.65625 277.859375 146.371094 277.785156 146.082031 277.707031 C 145.910156 277.5 145.734375 277.292969 145.566406 277.085938 C 145.859375 277.160156 146.15625 277.226562 146.453125 277.296875 C 146.617188 277.507812 146.78125 277.722656 146.949219 277.933594 Z M 145.539062 277.558594 C 145.234375 277.472656 144.925781 277.386719 144.625 277.292969 C 144.453125 277.089844 144.273438 276.882812 144.101562 276.679688 C 144.410156 276.769531 144.726562 276.855469 145.039062 276.9375 C 145.203125 277.144531 145.371094 277.351562 145.539062 277.558594 Z M 144.050781 277.125 C 143.726562 277.023438 143.398438 276.921875 143.074219 276.816406 C 142.898438 276.617188 142.722656 276.417969 142.546875 276.21875 C 142.878906 276.320312 143.214844 276.429688 143.550781 276.527344 C 143.714844 276.726562 143.882812 276.925781 144.050781 277.125 Z M 142.46875 276.617188 C 142.113281 276.5 141.761719 276.378906 141.414062 276.261719 C 141.234375 276.070312 141.0625 275.875 140.890625 275.679688 C 141.25 275.804688 141.609375 275.929688 141.96875 276.042969 C 142.132812 276.238281 142.304688 276.429688 142.472656 276.617188 Z M 140.457031 275.191406 C 140.292969 275.003906 140.125 274.816406 139.960938 274.625 C 140.335938 274.753906 140.710938 274.882812 141.09375 275.003906 C 141.253906 275.191406 141.40625 275.382812 141.566406 275.574219 C 141.195312 275.449219 140.824219 275.324219 140.457031 275.191406 Z M 139.550781 274.148438 C 139.386719 273.953125 139.21875 273.757812 139.054688 273.558594 C 139.449219 273.691406 139.839844 273.820312 140.234375 273.9375 C 140.394531 274.136719 140.554688 274.335938 140.71875 274.535156 C 140.328125 274.410156 139.9375 274.28125 139.550781 274.144531 Z M 138.660156 273.085938 C 138.519531 272.914062 138.382812 272.742188 138.242188 272.570312 C 138.648438 272.703125 139.050781 272.832031 139.460938 272.957031 C 139.597656 273.132812 139.738281 273.308594 139.875 273.488281 C 139.46875 273.355469 139.066406 273.21875 138.65625 273.078125 Z M 137.863281 272.101562 C 134.25 267.589844 130.949219 262.648438 127.5 257.484375 C 120.820312 247.484375 113.25 236.148438 101.707031 225.917969 C 94.421875 219.464844 88.5 206.140625 85.449219 189.371094 C 85.371094 188.953125 85.300781 188.535156 85.230469 188.113281 C 84.929688 186.320312 84.671875 184.53125 84.460938 182.753906 C 84.699219 184.566406 84.988281 186.390625 85.324219 188.226562 C 85.398438 188.644531 85.480469 189.0625 85.558594 189.484375 C 88.875 206.449219 95.074219 219.710938 102.570312 225.871094 C 115.386719 236.414062 123.101562 248.402344 129.90625 258.980469 C 132.96875 263.746094 135.910156 268.316406 139.121094 272.511719 C 138.703125 272.378906 138.285156 272.242188 137.863281 272.101562 Z M 82.078125 187.742188 C 82.109375 188.171875 82.140625 188.601562 82.171875 189.035156 C 83.496094 204.753906 87.691406 218.644531 93.980469 228.144531 L 94.25 228.558594 C 101.597656 239.664062 108.640625 250.300781 116.441406 259.722656 C 115.078125 258.582031 113.726562 257.375 112.394531 256.113281 C 111.976562 255.71875 111.574219 255.316406 111.171875 254.917969 C 104.574219 246.488281 98.738281 237.375 93.179688 228.265625 C 87.085938 218.285156 83.140625 204.328125 82.0625 188.960938 C 82.039062 188.53125 82.011719 188.101562 81.988281 187.667969 C 81.878906 185.699219 81.824219 183.746094 81.816406 181.800781 C 81.851562 183.769531 81.929688 185.75 82.074219 187.742188 Z M 112.363281 261.15625 C 113.097656 261.867188 113.847656 262.5625 114.601562 263.25 C 114.804688 263.460938 115.007812 263.675781 115.210938 263.886719 C 114.316406 263.078125 113.425781 262.25 112.550781 261.402344 C 110.058594 258.984375 107.691406 256.441406 105.453125 253.796875 C 107.636719 256.351562 109.941406 258.8125 112.363281 261.160156 Z M 117.203125 265.550781 C 119.339844 267.371094 121.53125 269.085938 123.773438 270.691406 C 124.0625 270.949219 124.34375 271.207031 124.632812 271.457031 C 122.371094 269.851562 120.148438 268.140625 117.988281 266.320312 C 117.726562 266.0625 117.464844 265.808594 117.203125 265.550781 Z M 126.953125 273.441406 C 127.320312 273.75 127.691406 274.050781 128.0625 274.351562 C 126.09375 273.066406 124.164062 271.707031 122.273438 270.269531 C 121.914062 269.960938 121.558594 269.640625 121.203125 269.328125 C 123.082031 270.777344 125 272.148438 126.953125 273.441406 Z M 130.109375 275.449219 C 130.851562 275.902344 131.597656 276.347656 132.347656 276.777344 C 132.753906 277.089844 133.15625 277.394531 133.558594 277.691406 C 132.871094 277.304688 132.195312 276.910156 131.515625 276.507812 C 131.042969 276.15625 130.574219 275.804688 130.109375 275.449219 Z M 134.160156 277.789062 C 134.808594 278.144531 135.460938 278.484375 136.113281 278.820312 C 136.507812 279.113281 136.90625 279.40625 137.304688 279.6875 C 136.710938 279.386719 136.117188 279.085938 135.53125 278.773438 C 135.070312 278.449219 134.613281 278.121094 134.160156 277.789062 Z M 138.214844 279.871094 C 138.519531 280.015625 138.832031 280.164062 139.140625 280.304688 C 139.539062 280.59375 139.941406 280.878906 140.34375 281.160156 C 140.089844 281.039062 139.828125 280.921875 139.570312 280.800781 C 139.113281 280.496094 138.667969 280.183594 138.214844 279.871094 Z M 141.898438 282.214844 C 142.390625 282.535156 142.882812 282.855469 143.378906 283.171875 C 143.289062 283.128906 143.199219 283.09375 143.109375 283.054688 C 142.539062 282.710938 141.964844 282.359375 141.402344 282 C 141.566406 282.078125 141.730469 282.144531 141.894531 282.214844 Z M 154.746094 286.773438 C 154.769531 286.777344 154.789062 286.785156 154.8125 286.789062 C 155.015625 286.921875 155.222656 287.054688 155.433594 287.1875 C 155.203125 287.050781 154.972656 286.914062 154.742188 286.773438 Z M 153.800781 286.171875 C 153.40625 285.917969 153.019531 285.65625 152.636719 285.394531 C 152.726562 285.421875 152.816406 285.445312 152.902344 285.46875 C 153.253906 285.726562 153.605469 285.972656 153.964844 286.222656 C 153.914062 286.210938 153.855469 286.191406 153.800781 286.179688 Z M 151.835938 284.828125 C 151.496094 284.578125 151.15625 284.332031 150.824219 284.078125 C 150.96875 284.121094 151.109375 284.167969 151.253906 284.207031 C 151.554688 284.449219 151.863281 284.691406 152.171875 284.925781 C 152.0625 284.894531 151.945312 284.863281 151.835938 284.828125 Z M 150.117188 283.523438 C 149.824219 283.292969 149.535156 283.0625 149.253906 282.824219 C 149.433594 282.882812 149.621094 282.9375 149.800781 282.992188 C 150.066406 283.222656 150.339844 283.453125 150.613281 283.679688 C 150.449219 283.632812 150.285156 283.578125 150.117188 283.523438 Z M 150.570312 283.21875 C 150.738281 283.269531 150.90625 283.3125 151.074219 283.355469 C 151.332031 283.585938 151.597656 283.8125 151.863281 284.039062 C 151.710938 283.996094 151.5625 283.953125 151.414062 283.910156 C 151.132812 283.679688 150.847656 283.449219 150.574219 283.21875 Z M 151.796875 283.554688 C 151.960938 283.601562 152.117188 283.648438 152.28125 283.6875 C 152.535156 283.917969 152.796875 284.148438 153.058594 284.375 C 152.917969 284.335938 152.773438 284.296875 152.632812 284.261719 C 152.347656 284.03125 152.070312 283.796875 151.796875 283.554688 Z M 152.960938 283.863281 C 159.347656 285.488281 165.867188 286.324219 172.429688 286.324219 C 173.132812 286.324219 173.84375 286.316406 174.550781 286.292969 C 202.359375 285.53125 213.433594 280.539062 227.453125 274.21875 C 233.375 271.546875 240.085938 268.523438 248.804688 265.539062 C 260.574219 261.515625 271.746094 251.636719 280.261719 237.722656 C 281.011719 236.492188 281.738281 235.238281 282.4375 233.960938 C 274.402344 248.839844 263.003906 260.429688 250.039062 265.632812 C 243.171875 268.394531 237.617188 271.015625 232.246094 273.550781 C 216.902344 280.792969 204.777344 286.515625 176.390625 287.195312 C 168.757812 287.378906 161.167969 286.476562 153.777344 284.550781 C 153.5 284.320312 153.226562 284.089844 152.960938 283.851562 Z M 274.566406 242.1875 C 264.378906 254.878906 252.085938 262.398438 240.671875 262.875 C 222.53125 263.621094 215.488281 266.632812 208.035156 269.824219 C 199.347656 273.535156 190.363281 277.375 163.4375 278.621094 C 157.472656 278.894531 151.871094 278.277344 146.65625 277.027344 C 146.492188 276.8125 146.332031 276.597656 146.171875 276.382812 C 150.148438 277.273438 154.347656 277.789062 158.753906 277.789062 C 159.695312 277.789062 160.640625 277.765625 161.597656 277.71875 C 188.707031 276.382812 197.5 272.507812 205.257812 269.089844 C 212.703125 265.8125 219.128906 262.976562 239.328125 262.804688 C 251.113281 262.699219 263.921875 255.195312 274.5625 242.191406 Z M 146.160156 276.902344 C 145.855469 276.828125 145.550781 276.746094 145.246094 276.667969 C 145.082031 276.460938 144.917969 276.25 144.753906 276.039062 C 145.0625 276.117188 145.378906 276.195312 145.691406 276.269531 C 145.847656 276.480469 146.007812 276.695312 146.160156 276.902344 Z M 144.722656 276.527344 C 144.398438 276.4375 144.074219 276.34375 143.75 276.25 C 143.582031 276.046875 143.417969 275.84375 143.25 275.640625 C 143.582031 275.734375 143.910156 275.824219 144.246094 275.914062 C 144.402344 276.117188 144.5625 276.320312 144.722656 276.527344 Z M 143.199219 276.085938 C 142.851562 275.980469 142.507812 275.875 142.164062 275.769531 C 141.996094 275.574219 141.832031 275.378906 141.667969 275.179688 C 142.019531 275.285156 142.371094 275.394531 142.722656 275.5 C 142.882812 275.699219 143.039062 275.890625 143.199219 276.085938 Z M 141.289062 274.726562 C 141.125 274.527344 140.957031 274.324219 140.792969 274.121094 C 141.160156 274.230469 141.527344 274.335938 141.890625 274.441406 C 142.050781 274.648438 142.210938 274.855469 142.375 275.058594 C 142.011719 274.953125 141.648438 274.839844 141.289062 274.726562 Z M 140.433594 273.671875 C 140.289062 273.492188 140.144531 273.308594 140.003906 273.128906 C 140.386719 273.238281 140.765625 273.355469 141.152344 273.457031 C 141.289062 273.640625 141.429688 273.828125 141.570312 274.015625 C 141.195312 273.902344 140.816406 273.789062 140.4375 273.671875 Z M 139.664062 272.691406 C 136.347656 268.402344 133.332031 263.710938 130.183594 258.816406 C 123.367188 248.21875 115.640625 236.207031 102.78125 225.632812 C 95.34375 219.515625 89.183594 206.324219 85.882812 189.429688 C 85.800781 189.011719 85.722656 188.59375 85.648438 188.175781 C 85.324219 186.410156 85.046875 184.644531 84.808594 182.902344 C 85.070312 184.6875 85.382812 186.484375 85.734375 188.296875 C 85.816406 188.710938 85.898438 189.132812 85.988281 189.550781 C 89.507812 206.378906 96.105469 219.851562 103.648438 225.597656 C 117.761719 236.347656 125.523438 248.945312 132.367188 260.0625 C 135.175781 264.625 137.875 269 140.835938 273.03125 C 140.445312 272.921875 140.050781 272.804688 139.664062 272.691406 Z M 81.496094 181.710938 C 81.5 183.6875 81.554688 185.683594 81.667969 187.683594 C 81.691406 188.117188 81.71875 188.546875 81.75 188.976562 C 82.832031 204.394531 86.789062 218.40625 92.90625 228.425781 C 97.796875 236.441406 103.363281 245.15625 109.707031 253.433594 C 106.601562 250.246094 103.738281 246.863281 101.117188 243.367188 C 97.714844 238.25 94.738281 233.222656 92.113281 228.546875 C 86.117188 217.851562 82.492188 204.140625 81.648438 188.898438 C 81.625 188.46875 81.601562 188.035156 81.585938 187.605469 C 81.5 185.632812 81.476562 183.664062 81.496094 181.703125 Z M 96.984375 237.472656 C 94.953125 234.359375 93.113281 231.183594 91.445312 227.996094 C 91.574219 228.234375 91.699219 228.476562 91.832031 228.710938 C 93.542969 231.753906 95.253906 234.675781 96.984375 237.472656 Z M 107.109375 256.1875 C 108.789062 258.070312 110.527344 259.886719 112.324219 261.632812 C 114.324219 263.578125 116.386719 265.417969 118.492188 267.160156 C 118.816406 267.46875 119.140625 267.773438 119.464844 268.074219 C 117.074219 266.128906 114.75 264.0625 112.5 261.871094 C 110.773438 260.1875 109.113281 258.453125 107.507812 256.671875 C 107.375 256.511719 107.238281 256.347656 107.105469 256.1875 Z M 113.882812 263.625 C 116.792969 266.347656 119.824219 268.871094 122.949219 271.1875 C 123.394531 271.566406 123.835938 271.941406 124.277344 272.308594 C 121.085938 269.996094 118 267.480469 115.035156 264.769531 C 114.648438 264.394531 114.261719 264.007812 113.878906 263.621094 Z M 125.734375 273.175781 C 127.320312 274.269531 128.933594 275.316406 130.5625 276.308594 C 131.058594 276.683594 131.5625 277.054688 132.058594 277.417969 C 130.476562 276.476562 128.910156 275.492188 127.375 274.460938 C 126.824219 274.039062 126.277344 273.609375 125.734375 273.171875 Z M 134.039062 278.324219 C 134.542969 278.601562 135.050781 278.882812 135.5625 279.152344 C 136.070312 279.511719 136.578125 279.855469 137.089844 280.203125 C 136.691406 280 136.296875 279.796875 135.902344 279.582031 C 135.273438 279.171875 134.648438 278.75 134.039062 278.324219 Z M 137.644531 280.21875 C 138.113281 280.453125 138.585938 280.691406 139.058594 280.921875 C 139.554688 281.257812 140.050781 281.585938 140.554688 281.90625 C 140.164062 281.726562 139.777344 281.535156 139.394531 281.351562 C 138.804688 280.976562 138.222656 280.605469 137.644531 280.21875 Z M 142.5625 283.164062 C 142.945312 283.394531 143.332031 283.625 143.710938 283.847656 C 143.5625 283.78125 143.410156 283.714844 143.257812 283.648438 C 142.820312 283.40625 142.382812 283.152344 141.953125 282.898438 C 142.15625 282.992188 142.359375 283.078125 142.570312 283.164062 Z M 155.851562 287.070312 C 155.851562 287.070312 155.890625 287.078125 155.90625 287.082031 C 156.078125 287.195312 156.25 287.308594 156.429688 287.417969 C 156.234375 287.304688 156.042969 287.183594 155.851562 287.0625 Z M 154.972656 286.507812 C 154.574219 286.246094 154.183594 285.980469 153.796875 285.714844 C 153.878906 285.734375 153.960938 285.757812 154.042969 285.78125 C 154.390625 286.039062 154.75 286.292969 155.109375 286.546875 C 155.058594 286.53125 155.015625 286.519531 154.96875 286.511719 Z M 153.039062 285.167969 C 152.710938 284.929688 152.390625 284.683594 152.070312 284.4375 C 152.199219 284.472656 152.332031 284.507812 152.460938 284.542969 C 152.757812 284.789062 153.054688 285.027344 153.359375 285.261719 C 153.253906 285.230469 153.148438 285.199219 153.039062 285.171875 Z M 153.25 284.761719 C 153.371094 284.792969 153.496094 284.832031 153.621094 284.863281 C 153.910156 285.101562 154.195312 285.335938 154.492188 285.570312 C 154.394531 285.542969 154.304688 285.523438 154.207031 285.496094 C 153.882812 285.257812 153.5625 285.007812 153.25 284.761719 Z M 154.359375 285.042969 C 160.9375 286.691406 167.664062 287.546875 174.4375 287.546875 C 175.085938 287.546875 175.738281 287.539062 176.394531 287.523438 C 204.851562 286.839844 217 281.105469 232.378906 273.847656 C 237.746094 271.3125 243.292969 268.695312 250.15625 265.933594 C 261.878906 261.226562 272.835938 250.964844 281.003906 237.058594 C 281.683594 235.90625 282.332031 234.738281 282.960938 233.550781 C 275.246094 248.320312 264.203125 260.0625 251.375 266.035156 C 246.550781 268.28125 242.292969 270.417969 238.175781 272.484375 C 220.414062 281.394531 207.585938 287.824219 178.234375 288.433594 C 170.480469 288.59375 162.785156 287.683594 155.300781 285.78125 C 154.980469 285.539062 154.671875 285.296875 154.363281 285.046875 Z M 249.289062 260.707031 C 249.441406 260.65625 249.59375 260.601562 249.75 260.546875 C 249.59375 260.601562 249.441406 260.65625 249.289062 260.707031 Z M 145.390625 275.863281 C 145.070312 275.785156 144.75 275.710938 144.433594 275.625 C 144.269531 275.410156 144.105469 275.191406 143.941406 274.976562 C 144.269531 275.054688 144.597656 275.128906 144.921875 275.203125 C 145.074219 275.421875 145.230469 275.640625 145.390625 275.863281 Z M 143.917969 275.488281 C 143.578125 275.394531 143.238281 275.304688 142.902344 275.210938 C 142.738281 275.003906 142.574219 274.792969 142.410156 274.585938 C 142.753906 274.679688 143.101562 274.765625 143.441406 274.851562 C 143.601562 275.0625 143.753906 275.28125 143.914062 275.488281 Z M 142.078125 274.15625 C 141.929688 273.964844 141.785156 273.769531 141.636719 273.582031 C 141.996094 273.671875 142.355469 273.765625 142.71875 273.855469 C 142.859375 274.054688 143.003906 274.25 143.144531 274.445312 C 142.789062 274.351562 142.429688 274.257812 142.078125 274.15625 Z M 141.332031 273.164062 C 138.28125 269.054688 135.515625 264.566406 132.632812 259.882812 C 125.769531 248.742188 117.996094 236.117188 103.835938 225.332031 C 96.355469 219.632812 89.792969 206.226562 86.292969 189.472656 C 86.210938 189.058594 86.125 188.640625 86.042969 188.226562 C 85.699219 186.488281 85.402344 184.761719 85.148438 183.046875 C 85.429688 184.800781 85.757812 186.574219 86.136719 188.347656 C 86.222656 188.765625 86.3125 189.183594 86.40625 189.597656 C 90.171875 206.527344 97.015625 219.875 104.71875 225.304688 C 120.105469 236.152344 127.824219 249.308594 134.628906 260.921875 C 137.214844 265.324219 139.695312 269.550781 142.4375 273.445312 C 142.066406 273.355469 141.699219 273.261719 141.332031 273.164062 Z M 81.179688 181.621094 C 81.152344 183.613281 81.179688 185.617188 81.265625 187.621094 C 81.285156 188.058594 81.300781 188.492188 81.328125 188.921875 C 82.019531 201.304688 84.535156 212.679688 88.664062 222.265625 C 87.164062 218.945312 85.859375 215.640625 84.761719 212.402344 C 82.765625 205.039062 81.5625 197.105469 81.222656 188.855469 C 81.203125 188.421875 81.191406 187.992188 81.179688 187.554688 C 81.121094 185.578125 81.125 183.597656 81.179688 181.625 Z M 105.984375 255.402344 C 106.105469 255.550781 106.222656 255.703125 106.34375 255.847656 C 104.90625 254.191406 103.515625 252.496094 102.191406 250.761719 C 103.414062 252.34375 104.683594 253.890625 105.984375 255.402344 Z M 128.082031 275.316406 C 128.1875 275.390625 128.289062 275.472656 128.390625 275.546875 C 126.890625 274.5625 125.421875 273.542969 123.976562 272.492188 C 125.328125 273.46875 126.695312 274.414062 128.082031 275.320312 Z M 122.957031 271.738281 C 122.847656 271.652344 122.738281 271.570312 122.625 271.488281 C 122.738281 271.574219 122.847656 271.65625 122.957031 271.738281 Z M 131.320312 277.355469 C 132.480469 278.054688 133.660156 278.722656 134.84375 279.371094 C 135.097656 279.539062 135.347656 279.710938 135.601562 279.875 C 134.351562 279.191406 133.117188 278.480469 131.894531 277.742188 C 131.703125 277.617188 131.511719 277.484375 131.320312 277.351562 Z M 138.816406 281.429688 C 139.035156 281.535156 139.246094 281.640625 139.464844 281.75 C 139.796875 281.957031 140.132812 282.164062 140.464844 282.367188 C 140.332031 282.304688 140.199219 282.246094 140.070312 282.183594 C 139.648438 281.933594 139.230469 281.6875 138.816406 281.433594 Z M 156.886719 287.328125 C 156.886719 287.328125 156.917969 287.339844 156.929688 287.339844 C 157.082031 287.441406 157.234375 287.542969 157.390625 287.640625 C 157.222656 287.539062 157.054688 287.433594 156.886719 287.324219 Z M 156.039062 286.785156 C 155.664062 286.53125 155.289062 286.28125 154.921875 286.019531 C 155 286.035156 155.070312 286.054688 155.144531 286.070312 C 155.480469 286.324219 155.820312 286.574219 156.167969 286.816406 C 156.125 286.800781 156.078125 286.792969 156.039062 286.78125 Z M 155.96875 286.277344 C 162.679688 287.917969 169.550781 288.769531 176.476562 288.769531 C 177.0625 288.769531 177.652344 288.765625 178.234375 288.75 C 207.65625 288.144531 220.515625 281.695312 238.3125 272.773438 C 242.429688 270.710938 246.6875 268.574219 251.503906 266.328125 C 263.167969 260.894531 273.902344 250.257812 281.734375 236.371094 C 281.957031 235.980469 282.171875 235.585938 282.386719 235.191406 C 275.039062 248.886719 264.777344 259.980469 252.707031 266.433594 C 250.269531 267.738281 247.933594 269.007812 245.671875 270.238281 C 225.5 281.210938 210.925781 289.136719 180.082031 289.660156 C 172.296875 289.792969 164.589844 288.902344 157.089844 287.058594 C 156.707031 286.800781 156.335938 286.546875 155.972656 286.28125 Z M 238.945312 262.105469 C 244.558594 262.105469 250.417969 260.441406 256.1875 257.289062 C 250.527344 260.417969 244.675781 262.15625 238.945312 262.105469 Z M 203.695312 267.257812 C 195.925781 270.746094 187.113281 274.691406 159.726562 276.164062 C 158.804688 276.210938 157.890625 276.234375 156.96875 276.234375 C 152.992188 276.234375 149.027344 275.789062 145.109375 274.921875 C 144.964844 274.710938 144.816406 274.5 144.667969 274.289062 C 148.101562 274.984375 151.5625 275.339844 155.035156 275.339844 C 155.980469 275.339844 156.9375 275.3125 157.886719 275.257812 C 185.726562 273.71875 194.707031 269.535156 201.921875 266.179688 C 209.121094 262.828125 214.808594 260.179688 236.605469 262.011719 C 236.875 262.03125 237.144531 262.046875 237.417969 262.0625 C 217.132812 261.234375 211.1875 263.898438 203.683594 267.261719 Z M 144.640625 274.8125 C 144.304688 274.734375 143.96875 274.65625 143.636719 274.574219 C 143.488281 274.367188 143.339844 274.167969 143.191406 273.964844 C 143.535156 274.046875 143.875 274.121094 144.214844 274.191406 C 144.359375 274.398438 144.5 274.609375 144.640625 274.8125 Z M 142.914062 273.570312 C 140.09375 269.597656 137.554688 265.269531 134.910156 260.761719 C 128.082031 249.125 120.34375 235.933594 104.902344 225.042969 C 97.265625 219.664062 90.46875 206.382812 86.71875 189.53125 C 86.625 189.117188 86.539062 188.703125 86.449219 188.289062 C 86.085938 186.554688 85.765625 184.835938 85.488281 183.132812 C 86.097656 186.625 86.890625 190.164062 87.847656 193.660156 C 92.03125 208.894531 98.574219 220.324219 105.792969 225.027344 C 122.441406 235.871094 130.042969 249.550781 136.753906 261.625 C 139.132812 265.902344 141.417969 270.015625 143.960938 273.808594 C 143.609375 273.734375 143.265625 273.660156 142.914062 273.574219 Z M 80.792969 187.542969 C 80.792969 186.820312 80.804688 186.101562 80.820312 185.386719 C 80.824219 186.113281 80.835938 186.835938 80.859375 187.5625 C 80.871094 187.996094 80.886719 188.429688 80.902344 188.863281 C 81.167969 195.289062 81.957031 201.527344 83.234375 207.453125 C 82.820312 205.984375 82.453125 204.535156 82.125 203.113281 C 81.398438 198.542969 80.953125 193.871094 80.808594 189.148438 C 80.800781 188.609375 80.789062 188.078125 80.789062 187.542969 Z M 138.835938 282.082031 C 139.371094 282.347656 139.910156 282.609375 140.453125 282.863281 C 141.578125 283.511719 142.710938 284.136719 143.859375 284.730469 C 143.824219 284.714844 143.785156 284.699219 143.753906 284.683594 C 142.09375 283.867188 140.453125 283.003906 138.835938 282.085938 Z M 157.886719 287.574219 C 164.644531 289.167969 171.574219 289.992188 178.570312 289.992188 C 179.074219 289.992188 179.582031 289.992188 180.09375 289.980469 C 211.015625 289.457031 225.621094 281.511719 245.828125 270.519531 C 248.085938 269.289062 250.425781 268.019531 252.863281 266.714844 C 263.972656 260.773438 273.71875 250.859375 281.171875 237.945312 C 274.265625 250.085938 264.996094 260.167969 254.050781 266.828125 C 230.003906 281.46875 213.660156 290.464844 181.933594 290.882812 C 174.242188 290.984375 166.636719 290.132812 159.238281 288.398438 C 158.777344 288.128906 158.324219 287.851562 157.882812 287.574219 Z M 293.371094 200.742188 C 293.222656 201.582031 293.058594 202.421875 292.878906 203.257812 C 292.734375 203.945312 292.578125 204.632812 292.417969 205.316406 C 292.359375 205.574219 292.296875 205.835938 292.230469 206.097656 C 292.171875 206.320312 292.117188 206.542969 292.0625 206.769531 C 292.042969 206.839844 292.019531 206.914062 292.003906 206.984375 C 291.601562 208.507812 291.15625 210.027344 290.675781 211.539062 C 286.941406 222.929688 280.9375 233.761719 273.277344 242.632812 C 261.960938 255.75 248.609375 262.695312 236.644531 261.695312 C 214.757812 259.863281 209.039062 262.523438 201.796875 265.890625 C 194.609375 269.234375 185.65625 273.402344 157.878906 274.941406 C 153.367188 275.1875 148.863281 274.84375 144.414062 273.914062 C 141.796875 270.050781 139.464844 265.847656 137.03125 261.46875 C 130.308594 249.363281 122.683594 235.644531 105.972656 224.761719 C 98.816406 220.101562 92.324219 208.734375 88.160156 193.574219 C 84.820312 181.417969 83.542969 168.71875 84.609375 159.230469 C 97.054688 114.089844 138.457031 80.847656 187.488281 80.847656 C 246.324219 80.847656 294.1875 128.710938 294.1875 187.542969 C 294.1875 192.011719 293.90625 196.414062 293.371094 200.742188 Z M 122.472656 271.921875 C 123.765625 272.972656 125.070312 273.988281 126.402344 274.964844 C 120.933594 271.136719 115.847656 266.808594 111.199219 262.046875 C 114.769531 265.636719 118.535156 268.933594 122.472656 271.917969 Z M 160.230469 288.949219 C 166.921875 290.4375 173.777344 291.210938 180.703125 291.210938 C 181.117188 291.210938 181.53125 291.210938 181.945312 291.203125 C 213.75 290.785156 230.128906 281.769531 254.222656 267.105469 C 263.972656 261.167969 272.5625 252.414062 279.355469 241.550781 C 273.015625 251.851562 264.902344 260.667969 255.390625 267.226562 C 233.421875 282.386719 213.78125 291.835938 183.792969 292.109375 C 176.277344 292.175781 168.917969 291.359375 161.796875 289.765625 C 161.261719 289.503906 160.738281 289.230469 160.230469 288.949219 Z M 256.730469 267.625 C 234.363281 285.042969 211.773438 293.210938 185.636719 293.335938 C 185.472656 293.335938 185.308594 293.335938 185.148438 293.335938 C 178.574219 293.335938 172.136719 292.710938 165.890625 291.523438 C 165.007812 291.195312 164.15625 290.847656 163.332031 290.480469 C 169.71875 291.769531 176.261719 292.429688 182.886719 292.429688 C 183.1875 292.429688 183.496094 292.429688 183.796875 292.429688 C 213.867188 292.152344 233.554688 282.683594 255.578125 267.488281 C 262.820312 262.492188 269.253906 256.195312 274.714844 248.933594 C 274.210938 249.648438 273.699219 250.351562 273.179688 251.050781 C 268.394531 257.253906 262.886719 262.839844 256.734375 267.625 Z M 256.730469 267.625 " fill-opacity="1" fill-rule="nonzero"/></g><g fill="#f7c6b7" fill-opacity="1"><g transform="translate(160.748845, 103.511149)"><g><path d="M 1.796875 -4.421875 L 2.65625 -0.59375 L 0.765625 -0.171875 L -1.15625 -8.734375 L 0.734375 -9.15625 L 1.59375 -5.328125 L 3.421875 -9.765625 L 5.859375 -10.3125 L 3.53125 -5.28125 L 7.90625 -1.78125 L 5.34375 -1.203125 Z M 1.796875 -4.421875 "/></g></g></g><g fill="#f7c6b7" fill-opacity="1"><g transform="translate(178.090629, 100.516897)"><g><path d="M 5.3125 -11.0625 C 5.300781 -11.382812 5.398438 -11.65625 5.609375 -11.875 C 5.828125 -12.101562 6.097656 -12.21875 6.421875 -12.21875 C 6.734375 -12.226562 7.003906 -12.125 7.234375 -11.90625 C 7.460938 -11.695312 7.582031 -11.429688 7.59375 -11.109375 C 7.59375 -10.804688 7.484375 -10.539062 7.265625 -10.3125 C 7.046875 -10.082031 6.78125 -9.960938 6.46875 -9.953125 C 6.144531 -9.953125 5.867188 -10.0625 5.640625 -10.28125 C 5.421875 -10.5 5.3125 -10.757812 5.3125 -11.0625 Z M 1.921875 -11 C 1.910156 -11.320312 2.015625 -11.59375 2.234375 -11.8125 C 2.453125 -12.03125 2.71875 -12.144531 3.03125 -12.15625 C 3.34375 -12.164062 3.613281 -12.0625 3.84375 -11.84375 C 4.070312 -11.625 4.191406 -11.351562 4.203125 -11.03125 C 4.203125 -10.726562 4.09375 -10.460938 3.875 -10.234375 C 3.65625 -10.015625 3.390625 -9.898438 3.078125 -9.890625 C 2.765625 -9.878906 2.492188 -9.984375 2.265625 -10.203125 C 2.035156 -10.429688 1.921875 -10.695312 1.921875 -11 Z M 7.484375 -4.546875 C 7.472656 -5.003906 7.335938 -5.425781 7.078125 -5.8125 C 6.828125 -6.195312 6.503906 -6.503906 6.109375 -6.734375 C 5.710938 -6.972656 5.285156 -7.085938 4.828125 -7.078125 C 4.378906 -7.066406 3.957031 -6.9375 3.5625 -6.6875 C 3.175781 -6.445312 2.867188 -6.128906 2.640625 -5.734375 C 2.410156 -5.335938 2.300781 -4.910156 2.3125 -4.453125 C 2.3125 -4.003906 2.4375 -3.582031 2.6875 -3.1875 C 2.9375 -2.800781 3.257812 -2.488281 3.65625 -2.25 C 4.0625 -2.007812 4.488281 -1.894531 4.9375 -1.90625 C 5.394531 -1.914062 5.816406 -2.046875 6.203125 -2.296875 C 6.585938 -2.546875 6.894531 -2.867188 7.125 -3.265625 C 7.363281 -3.671875 7.484375 -4.097656 7.484375 -4.546875 Z M 9.421875 -4.578125 C 9.429688 -3.972656 9.320312 -3.394531 9.09375 -2.84375 C 8.863281 -2.289062 8.539062 -1.800781 8.125 -1.375 C 7.707031 -0.945312 7.226562 -0.609375 6.6875 -0.359375 C 6.15625 -0.109375 5.582031 0.0195312 4.96875 0.03125 C 4.375 0.0390625 3.796875 -0.0664062 3.234375 -0.296875 C 2.679688 -0.523438 2.191406 -0.84375 1.765625 -1.25 C 1.347656 -1.65625 1.015625 -2.128906 0.765625 -2.671875 C 0.515625 -3.222656 0.382812 -3.800781 0.375 -4.40625 C 0.363281 -5.019531 0.472656 -5.597656 0.703125 -6.140625 C 0.929688 -6.679688 1.25 -7.164062 1.65625 -7.59375 C 2.0625 -8.019531 2.535156 -8.359375 3.078125 -8.609375 C 3.628906 -8.867188 4.203125 -9.003906 4.796875 -9.015625 C 5.410156 -9.023438 5.988281 -8.910156 6.53125 -8.671875 C 7.082031 -8.441406 7.570312 -8.125 8 -7.71875 C 8.4375 -7.3125 8.78125 -6.835938 9.03125 -6.296875 C 9.28125 -5.765625 9.410156 -5.191406 9.421875 -4.578125 Z M 9.421875 -4.578125 "/></g></g></g><g fill="#f7c6b7" fill-opacity="1"><g transform="translate(197.650217, 101.226836)"><g><path d="M 7.078125 -0.5 L 6.765625 1.21875 L 0.265625 0.046875 L 5.109375 -6.21875 L 1.75 -6.828125 L 2.0625 -8.546875 L 8.53125 -7.375 L 3.671875 -1.109375 Z M 7.078125 -0.5 "/></g></g></g><g fill="#f7c6b7" fill-opacity="1"><g transform="translate(214.190108, 105.06322)"><g><path d="M 9.15625 -8.15625 C 9.28125 -8.445312 9.484375 -8.65625 9.765625 -8.78125 C 10.046875 -8.90625 10.335938 -8.910156 10.640625 -8.796875 C 10.929688 -8.679688 11.140625 -8.476562 11.265625 -8.1875 C 11.398438 -7.894531 11.40625 -7.601562 11.28125 -7.3125 C 11.175781 -7.03125 10.976562 -6.828125 10.6875 -6.703125 C 10.394531 -6.578125 10.101562 -6.570312 9.8125 -6.6875 C 9.507812 -6.800781 9.296875 -7.003906 9.171875 -7.296875 C 9.054688 -7.585938 9.050781 -7.875 9.15625 -8.15625 Z M 6 -9.40625 C 6.125 -9.695312 6.328125 -9.90625 6.609375 -10.03125 C 6.898438 -10.15625 7.191406 -10.160156 7.484375 -10.046875 C 7.773438 -9.929688 7.984375 -9.726562 8.109375 -9.4375 C 8.242188 -9.144531 8.25 -8.851562 8.125 -8.5625 C 8.019531 -8.28125 7.820312 -8.078125 7.53125 -7.953125 C 7.238281 -7.828125 6.945312 -7.820312 6.65625 -7.9375 C 6.363281 -8.050781 6.15625 -8.253906 6.03125 -8.546875 C 5.90625 -8.835938 5.894531 -9.125 6 -9.40625 Z M 8.65625 -1.3125 C 8.820312 -1.738281 8.863281 -2.175781 8.78125 -2.625 C 8.695312 -3.082031 8.519531 -3.492188 8.25 -3.859375 C 7.976562 -4.234375 7.628906 -4.503906 7.203125 -4.671875 C 6.785156 -4.835938 6.347656 -4.878906 5.890625 -4.796875 C 5.429688 -4.722656 5.015625 -4.546875 4.640625 -4.265625 C 4.273438 -3.992188 4.007812 -3.644531 3.84375 -3.21875 C 3.675781 -2.800781 3.628906 -2.363281 3.703125 -1.90625 C 3.785156 -1.457031 3.96875 -1.046875 4.25 -0.671875 C 4.53125 -0.296875 4.878906 -0.0234375 5.296875 0.140625 C 5.722656 0.304688 6.160156 0.347656 6.609375 0.265625 C 7.054688 0.179688 7.46875 0.00390625 7.84375 -0.265625 C 8.21875 -0.546875 8.488281 -0.894531 8.65625 -1.3125 Z M 10.453125 -0.578125 C 10.222656 -0.015625 9.894531 0.472656 9.46875 0.890625 C 9.039062 1.304688 8.554688 1.628906 8.015625 1.859375 C 7.472656 2.097656 6.90625 2.226562 6.3125 2.25 C 5.71875 2.269531 5.140625 2.164062 4.578125 1.9375 C 4.023438 1.71875 3.535156 1.394531 3.109375 0.96875 C 2.679688 0.550781 2.347656 0.0703125 2.109375 -0.46875 C 1.878906 -1.007812 1.753906 -1.578125 1.734375 -2.171875 C 1.710938 -2.765625 1.816406 -3.34375 2.046875 -3.90625 C 2.265625 -4.476562 2.585938 -4.972656 3.015625 -5.390625 C 3.441406 -5.804688 3.921875 -6.128906 4.453125 -6.359375 C 4.992188 -6.597656 5.566406 -6.726562 6.171875 -6.75 C 6.773438 -6.78125 7.351562 -6.6875 7.90625 -6.46875 C 8.46875 -6.238281 8.957031 -5.910156 9.375 -5.484375 C 9.789062 -5.054688 10.117188 -4.570312 10.359375 -4.03125 C 10.597656 -3.488281 10.726562 -2.921875 10.75 -2.328125 C 10.769531 -1.734375 10.671875 -1.148438 10.453125 -0.578125 Z M 10.453125 -0.578125 "/></g></g></g><g fill="#f7c6b7" fill-opacity="1"><g transform="translate(231.954445, 113.249886)"><g><path d="M 4.25 1.140625 C 4.425781 1.253906 4.628906 1.347656 4.859375 1.421875 C 5.097656 1.503906 5.332031 1.53125 5.5625 1.5 C 5.800781 1.476562 5.988281 1.359375 6.125 1.140625 C 6.257812 0.941406 6.285156 0.726562 6.203125 0.5 C 6.128906 0.28125 5.992188 0.0507812 5.796875 -0.1875 C 5.597656 -0.4375 5.367188 -0.691406 5.109375 -0.953125 C 4.859375 -1.222656 4.613281 -1.503906 4.375 -1.796875 C 4.132812 -2.085938 3.941406 -2.394531 3.796875 -2.71875 C 3.648438 -3.050781 3.582031 -3.394531 3.59375 -3.75 C 3.601562 -4.101562 3.734375 -4.472656 3.984375 -4.859375 C 4.234375 -5.234375 4.523438 -5.507812 4.859375 -5.6875 C 5.203125 -5.875 5.566406 -5.96875 5.953125 -5.96875 C 6.335938 -5.976562 6.722656 -5.921875 7.109375 -5.796875 C 7.503906 -5.679688 7.867188 -5.515625 8.203125 -5.296875 C 8.703125 -4.972656 9.117188 -4.582031 9.453125 -4.125 C 9.796875 -3.675781 9.992188 -3.1875 10.046875 -2.65625 C 10.097656 -2.132812 9.941406 -1.59375 9.578125 -1.03125 L 8.015625 -2.046875 C 8.210938 -2.460938 8.25 -2.816406 8.125 -3.109375 C 8.007812 -3.398438 7.75 -3.675781 7.34375 -3.9375 C 7.1875 -4.039062 7.003906 -4.125 6.796875 -4.1875 C 6.597656 -4.25 6.40625 -4.257812 6.21875 -4.21875 C 6.03125 -4.1875 5.875 -4.078125 5.75 -3.890625 C 5.625 -3.703125 5.601562 -3.503906 5.6875 -3.296875 C 5.769531 -3.097656 5.914062 -2.875 6.125 -2.625 C 6.332031 -2.382812 6.5625 -2.132812 6.8125 -1.875 C 7.070312 -1.613281 7.320312 -1.335938 7.5625 -1.046875 C 7.800781 -0.753906 7.992188 -0.441406 8.140625 -0.109375 C 8.296875 0.210938 8.363281 0.550781 8.34375 0.90625 C 8.320312 1.269531 8.179688 1.648438 7.921875 2.046875 C 7.640625 2.484375 7.3125 2.796875 6.9375 2.984375 C 6.570312 3.171875 6.179688 3.257812 5.765625 3.25 C 5.359375 3.25 4.941406 3.171875 4.515625 3.015625 C 4.097656 2.867188 3.703125 2.671875 3.328125 2.421875 C 2.785156 2.066406 2.335938 1.644531 1.984375 1.15625 C 1.640625 0.664062 1.445312 0.132812 1.40625 -0.4375 C 1.363281 -1.019531 1.53125 -1.609375 1.90625 -2.203125 L 3.546875 -1.125 C 3.285156 -0.675781 3.238281 -0.253906 3.40625 0.140625 C 3.570312 0.546875 3.851562 0.878906 4.25 1.140625 Z M 4.25 1.140625 "/></g></g></g><g fill="#203a7e" fill-opacity="1"><g transform="translate(246.307069, 123.75304)"><g><path d="M 10.15625 -2.359375 L 11.625 -0.921875 L 5.484375 5.359375 L 4.015625 3.921875 L 6.484375 1.390625 L 4.40625 -0.625 L 1.9375 1.90625 L 0.5625 0.546875 L 6.703125 -5.734375 L 8.078125 -4.375 L 5.625 -1.875 L 7.703125 0.140625 Z M 10.15625 -2.359375 "/></g></g></g><g fill="#203a7e" fill-opacity="1"><g transform="translate(258.563326, 137.047457)"><g><path d="M 5.90625 2.703125 L 7.859375 0.015625 L 4.65625 0.859375 Z M 4.984375 7.3125 L 3.8125 5.59375 L 4.90625 4.0625 L 3.015625 1.296875 L 1.203125 1.765625 L 0.03125 0.046875 L 9.3125 -1.9375 L 10.234375 -0.578125 Z M 4.984375 7.3125 "/></g></g></g><g fill="#203a7e" fill-opacity="1"><g transform="translate(268.169969, 152.894533)"><g><path d="M 2.984375 7.0625 L 2.234375 5.28125 L 6.109375 0.375 L 1.0625 2.5 L 0.296875 0.71875 L 8.390625 -2.703125 L 9.15625 -0.921875 L 5.28125 4 L 10.328125 1.859375 L 11.078125 3.640625 Z M 2.984375 7.0625 "/></g></g></g><g fill="#203a7e" fill-opacity="1"><g transform="translate(274.354339, 169.867687)"><g><path d="M 7.96875 3.703125 C 7.875 3.242188 7.664062 2.847656 7.34375 2.515625 C 7.03125 2.179688 6.644531 1.941406 6.1875 1.796875 C 5.738281 1.648438 5.273438 1.625 4.796875 1.71875 C 4.304688 1.8125 3.878906 2.015625 3.515625 2.328125 C 3.148438 2.640625 2.878906 3.007812 2.703125 3.4375 C 2.535156 3.863281 2.5 4.304688 2.59375 4.765625 C 2.644531 5.035156 2.742188 5.316406 2.890625 5.609375 C 3.035156 5.898438 3.25 6.15625 3.53125 6.375 C 3.8125 6.601562 4.179688 6.75 4.640625 6.8125 L 4.203125 4.625 L 5.625 4.34375 L 6.46875 8.578125 L 6.1875 8.640625 C 5.582031 8.753906 4.988281 8.75 4.40625 8.625 C 3.820312 8.507812 3.28125 8.289062 2.78125 7.96875 C 2.289062 7.644531 1.878906 7.238281 1.546875 6.75 C 1.222656 6.269531 1 5.722656 0.875 5.109375 C 0.75 4.492188 0.75 3.894531 0.875 3.3125 C 1 2.726562 1.226562 2.191406 1.5625 1.703125 C 1.894531 1.210938 2.304688 0.796875 2.796875 0.453125 C 3.285156 0.117188 3.832031 -0.101562 4.4375 -0.21875 C 5.050781 -0.34375 5.648438 -0.335938 6.234375 -0.203125 C 6.816406 -0.078125 7.347656 0.144531 7.828125 0.46875 C 8.304688 0.800781 8.710938 1.210938 9.046875 1.703125 C 9.390625 2.191406 9.625 2.742188 9.75 3.359375 C 9.875 3.992188 9.859375 4.617188 9.703125 5.234375 C 9.554688 5.859375 9.300781 6.421875 8.9375 6.921875 C 8.570312 7.429688 8.109375 7.84375 7.546875 8.15625 L 7.140625 6.0625 C 7.554688 5.757812 7.816406 5.394531 7.921875 4.96875 C 8.035156 4.539062 8.050781 4.117188 7.96875 3.703125 Z M 7.96875 3.703125 "/></g></g></g><g transform="matrix(1, 0, 0, 1, 154, 144)"><g clip-path="url(#e8ef64e3e7)"><g fill="#203a7e" fill-opacity="1"><g transform="translate(1.013582, 54.852203)"><g><path d="M 45.34375 -2.984375 C 44.851562 -1.921875 44.125 -1.15625 43.15625 -0.6875 C 42.1875 -0.226562 41.171875 0 40.109375 0 C 38.304688 0 36.847656 -0.421875 35.734375 -1.265625 C 34.617188 -2.117188 33.722656 -3.203125 33.046875 -4.515625 C 32.171875 -6.117188 31.40625 -7.910156 30.75 -9.890625 C 30.09375 -11.878906 29.5 -13.867188 28.96875 -15.859375 C 28.4375 -17.847656 27.851562 -19.671875 27.21875 -21.328125 C 26.050781 -24.628906 24.410156 -26.316406 22.296875 -26.390625 C 20.191406 -26.460938 17.878906 -25.285156 15.359375 -22.859375 C 14.628906 -22.128906 13.945312 -21.363281 13.3125 -20.5625 C 12.6875 -19.757812 12.109375 -18.992188 11.578125 -18.265625 L 11.578125 -10.265625 C 11.578125 -6.429688 11.960938 -3.859375 12.734375 -2.546875 C 13.515625 -1.234375 14.679688 -0.601562 16.234375 -0.65625 L 16.234375 0 L 0 0 L 0 -0.65625 C 1.550781 -0.601562 2.710938 -1.234375 3.484375 -2.546875 C 4.265625 -3.859375 4.65625 -6.429688 4.65625 -10.265625 L 4.65625 -39.453125 C 4.65625 -43.328125 4.265625 -45.929688 3.484375 -47.265625 C 2.710938 -48.597656 1.550781 -49.21875 0 -49.125 L 0 -49.78125 L 16.234375 -49.78125 L 16.234375 -49.125 C 14.679688 -49.21875 13.515625 -48.597656 12.734375 -47.265625 C 11.960938 -45.929688 11.578125 -43.328125 11.578125 -39.453125 L 11.578125 -20.59375 C 12.492188 -21.8125 13.398438 -22.90625 14.296875 -23.875 C 15.191406 -24.84375 16.148438 -25.859375 17.171875 -26.921875 L 33.1875 -44.03125 C 33.625 -44.519531 33.960938 -45.003906 34.203125 -45.484375 C 34.453125 -45.972656 34.429688 -46.53125 34.140625 -47.15625 C 34.035156 -47.445312 33.960938 -47.617188 33.921875 -47.671875 C 33.523438 -48.453125 33.035156 -48.898438 32.453125 -49.015625 C 31.878906 -49.140625 31.101562 -49.175781 30.125 -49.125 L 30.125 -49.78125 L 42.28125 -49.78125 L 42.28125 -49.125 C 41.164062 -49.175781 40.328125 -48.984375 39.765625 -48.546875 C 39.210938 -48.109375 38.597656 -47.550781 37.921875 -46.875 C 37.335938 -46.289062 36.753906 -45.707031 36.171875 -45.125 C 35.585938 -44.539062 35.003906 -43.957031 34.421875 -43.375 L 20.8125 -28.828125 C 21.488281 -29.066406 22.164062 -29.269531 22.84375 -29.4375 C 23.53125 -29.601562 24.257812 -29.6875 25.03125 -29.6875 C 27.5625 -29.6875 29.476562 -28.972656 30.78125 -27.546875 C 32.09375 -26.117188 33.066406 -24.429688 33.703125 -22.484375 C 34.035156 -21.472656 34.46875 -20.101562 35 -18.375 C 35.539062 -16.65625 36.125 -14.847656 36.75 -12.953125 C 37.382812 -11.054688 38.039062 -9.320312 38.71875 -7.75 C 39.394531 -6.175781 40.050781 -5.023438 40.6875 -4.296875 C 41.21875 -3.710938 41.859375 -3.257812 42.609375 -2.9375 C 43.359375 -2.625 44.097656 -2.785156 44.828125 -3.421875 Z M 45.34375 -2.984375 "/></g></g></g></g></g></svg>