<svg xmlns="http://www.w3.org/2000/svg" xmlns:xlink="http://www.w3.org/1999/xlink" width="500" zoomAndPan="magnify" viewBox="0 0 375 374.999991" height="500" preserveAspectRatio="xMidYMid meet" version="1.0"><defs><g/><clipPath id="9a63d702d9"><path d="M 84.015625 77.832031 L 291 77.832031 L 291 284.832031 L 84.015625 284.832031 Z M 84.015625 77.832031 " clip-rule="nonzero"/></clipPath><clipPath id="d2aed9ab7d"><path d="M 0.238281 4 L 46 4 L 46 54 L 0.238281 54 Z M 0.238281 4 " clip-rule="nonzero"/></clipPath><clipPath id="a367d6e320"><rect x="0" width="49" y="0" height="73"/></clipPath><clipPath id="7da01245f3"><rect x="0" width="50" y="0" height="74"/></clipPath></defs><g clip-path="url(#9a63d702d9)"><path fill="#203a7e" d="M 290.644531 173.570312 C 288.839844 148.839844 278.34375 125.839844 260.628906 108.125 C 241.09375 88.589844 215.121094 77.832031 187.492188 77.832031 C 165.335938 77.832031 144.210938 84.734375 126.398438 97.796875 C 117.828125 104.082031 110.292969 111.613281 104.007812 120.191406 C 99.125 126.851562 95.089844 134.03125 91.9375 141.605469 C 91.882812 141.742188 91.828125 141.878906 91.773438 142.011719 C 91.539062 142.582031 91.308594 143.15625 91.082031 143.730469 C 91.003906 143.9375 90.921875 144.148438 90.839844 144.355469 C 90.632812 144.898438 90.433594 145.445312 90.230469 145.992188 C 90.164062 146.183594 90.089844 146.378906 90.023438 146.570312 C 89.785156 147.238281 89.550781 147.910156 89.328125 148.585938 L 89.28125 148.730469 C 85.84375 159.125 84.054688 170.105469 84.054688 181.359375 C 84.054688 208.988281 94.816406 234.964844 114.355469 254.503906 C 133.890625 274.039062 159.867188 284.800781 187.496094 284.800781 C 215.125 284.800781 241.101562 274.042969 260.636719 254.503906 C 280.171875 234.96875 290.9375 208.988281 290.9375 181.359375 C 290.9375 178.746094 290.839844 176.152344 290.648438 173.570312 Z M 187.492188 283.871094 C 181.605469 283.871094 175.835938 283.367188 170.214844 282.410156 C 169.660156 282.246094 169.121094 282.082031 168.585938 281.90625 C 174.042969 282.828125 179.609375 283.304688 185.242188 283.304688 C 185.398438 283.304688 185.558594 283.304688 185.71875 283.304688 C 210.898438 283.1875 232.660156 275.316406 254.207031 258.542969 C 256.960938 256.398438 259.578125 254.089844 262.054688 251.632812 C 243.351562 271.472656 216.84375 283.871094 187.496094 283.871094 Z M 140.050781 272.121094 C 138.03125 271.003906 136.046875 269.816406 134.097656 268.554688 C 135.03125 269.113281 135.964844 269.65625 136.910156 270.179688 C 138.132812 270.953125 139.367188 271.691406 140.609375 272.402344 C 140.421875 272.308594 140.234375 272.21875 140.046875 272.121094 Z M 237.15625 253.308594 C 240.261719 253.308594 243.449219 252.765625 246.648438 251.726562 C 243.5 252.769531 240.359375 253.328125 237.292969 253.355469 C 217.824219 253.519531 211.617188 256.25 204.4375 259.417969 C 197.007812 262.691406 188.589844 266.402344 162.605469 267.683594 C 161.6875 267.730469 160.785156 267.75 159.886719 267.75 C 155.546875 267.75 151.417969 267.230469 147.515625 266.335938 C 147.359375 266.121094 147.207031 265.902344 147.046875 265.6875 C 150.726562 266.480469 154.445312 266.878906 158.175781 266.878906 C 159.0625 266.878906 159.953125 266.859375 160.839844 266.8125 C 187.210938 265.394531 196.070312 261.421875 203.191406 258.230469 C 210.429688 254.984375 216.152344 252.421875 235.996094 253.285156 C 236.378906 253.300781 236.765625 253.3125 237.15625 253.3125 Z M 117 253.253906 C 116.847656 253.089844 116.695312 252.921875 116.542969 252.757812 C 118.804688 254.871094 121.136719 256.855469 123.53125 258.699219 C 123.746094 258.90625 123.964844 259.117188 124.183594 259.320312 C 121.722656 257.4375 119.324219 255.417969 117 253.253906 Z M 113.660156 249.519531 C 113.574219 249.417969 113.484375 249.316406 113.402344 249.21875 C 114.046875 249.871094 114.699219 250.523438 115.359375 251.160156 C 117.210938 252.945312 119.109375 254.628906 121.050781 256.226562 C 121.199219 256.375 121.34375 256.527344 121.492188 256.675781 C 119.464844 255.019531 117.484375 253.261719 115.554688 251.398438 C 114.910156 250.78125 114.28125 250.152344 113.660156 249.519531 Z M 115.570312 248.238281 C 115.570312 248.238281 115.601562 248.277344 115.617188 248.296875 C 115.570312 248.253906 115.523438 248.210938 115.480469 248.167969 C 114.949219 247.664062 114.417969 247.144531 113.894531 246.621094 C 114.316406 247.039062 114.734375 247.449219 115.160156 247.855469 C 115.296875 247.988281 115.433594 248.109375 115.570312 248.238281 Z M 150.394531 270.964844 C 150.214844 270.78125 150.039062 270.597656 149.867188 270.414062 C 150.09375 270.480469 150.324219 270.539062 150.554688 270.597656 C 150.722656 270.785156 150.890625 270.972656 151.0625 271.15625 C 150.835938 271.097656 150.613281 271.027344 150.394531 270.964844 Z M 149.089844 270.585938 C 148.914062 270.40625 148.738281 270.226562 148.5625 270.050781 C 148.804688 270.121094 149.046875 270.1875 149.292969 270.253906 C 149.457031 270.4375 149.628906 270.617188 149.796875 270.792969 C 149.5625 270.726562 149.328125 270.65625 149.09375 270.585938 Z M 121.535156 256.21875 C 121.398438 256.082031 121.265625 255.945312 121.132812 255.808594 C 122.484375 256.910156 123.855469 257.96875 125.246094 258.976562 C 125.386719 259.117188 125.527344 259.253906 125.667969 259.394531 C 124.269531 258.378906 122.890625 257.324219 121.535156 256.21875 Z M 141.054688 267.097656 C 140.652344 266.925781 140.25 266.75 139.855469 266.578125 C 139.664062 266.398438 139.476562 266.214844 139.289062 266.03125 C 139.695312 266.207031 140.097656 266.382812 140.507812 266.550781 C 140.691406 266.734375 140.871094 266.914062 141.054688 267.097656 Z M 152.457031 276.019531 C 151.945312 275.730469 151.441406 275.433594 150.941406 275.132812 C 151.011719 275.152344 151.078125 275.179688 151.148438 275.203125 C 151.585938 275.484375 152.03125 275.757812 152.484375 276.027344 C 152.472656 276.027344 152.464844 276.019531 152.457031 276.019531 Z M 149.757812 274.394531 C 149.34375 274.132812 148.933594 273.859375 148.53125 273.585938 C 148.675781 273.636719 148.824219 273.6875 148.96875 273.738281 C 149.339844 274 149.710938 274.257812 150.089844 274.507812 C 149.980469 274.472656 149.871094 274.433594 149.757812 274.390625 Z M 147.5 272.878906 C 147.15625 272.636719 146.8125 272.390625 146.476562 272.144531 C 146.699219 272.226562 146.917969 272.3125 147.132812 272.394531 C 147.441406 272.628906 147.746094 272.859375 148.058594 273.082031 C 147.871094 273.015625 147.6875 272.949219 147.5 272.878906 Z M 145.558594 271.453125 C 145.269531 271.234375 144.980469 271.007812 144.695312 270.78125 C 144.957031 270.882812 145.222656 270.984375 145.488281 271.082031 C 145.757812 271.308594 146.035156 271.53125 146.3125 271.75 C 146.0625 271.652344 145.808594 271.550781 145.558594 271.453125 Z M 143.867188 270.117188 C 143.640625 269.929688 143.410156 269.738281 143.179688 269.546875 C 143.484375 269.671875 143.792969 269.792969 144.097656 269.914062 C 144.3125 270.097656 144.523438 270.285156 144.742188 270.464844 C 144.453125 270.351562 144.160156 270.238281 143.867188 270.117188 Z M 142.335938 268.828125 C 142.136719 268.65625 141.941406 268.484375 141.746094 268.308594 C 142.09375 268.453125 142.445312 268.601562 142.792969 268.742188 C 142.976562 268.914062 143.164062 269.082031 143.351562 269.25 C 143.015625 269.113281 142.675781 268.972656 142.339844 268.832031 Z M 133.539062 260.367188 C 133.644531 260.492188 133.753906 260.609375 133.855469 260.734375 C 133.269531 260.445312 132.679688 260.148438 132.097656 259.84375 C 131.996094 259.730469 131.890625 259.613281 131.785156 259.5 C 132.371094 259.800781 132.953125 260.089844 133.535156 260.371094 Z M 131.21875 258.851562 C 126.03125 252.9375 121.257812 246.332031 116.238281 239.398438 C 111.515625 232.859375 106.625 226.101562 100.980469 219.347656 C 94.496094 211.585938 89.828125 198.644531 87.832031 182.914062 C 87.78125 182.503906 87.738281 182.097656 87.691406 181.6875 C 87.488281 179.863281 87.339844 178.046875 87.226562 176.242188 C 87.363281 178.070312 87.542969 179.917969 87.777344 181.78125 C 87.828125 182.191406 87.878906 182.597656 87.933594 183.007812 C 90.179688 198.980469 95.097656 211.863281 101.777344 219.277344 C 108.863281 227.140625 114.566406 235.078125 120.078125 242.753906 C 124.414062 248.785156 128.554688 254.554688 133.023438 259.78125 C 132.421875 259.480469 131.816406 259.175781 131.214844 258.855469 Z M 134.382812 261.332031 C 134.519531 261.488281 134.65625 261.640625 134.792969 261.789062 C 134.214844 261.507812 133.644531 261.222656 133.089844 260.929688 C 132.953125 260.785156 132.820312 260.636719 132.6875 260.492188 C 133.25 260.78125 133.816406 261.0625 134.386719 261.328125 Z M 135.34375 262.398438 C 135.480469 262.546875 135.617188 262.699219 135.757812 262.847656 C 135.207031 262.585938 134.664062 262.316406 134.128906 262.039062 C 133.992188 261.894531 133.851562 261.75 133.714844 261.605469 C 134.25 261.878906 134.796875 262.140625 135.34375 262.402344 Z M 136.324219 263.453125 C 136.472656 263.613281 136.625 263.773438 136.777344 263.929688 C 136.253906 263.683594 135.730469 263.425781 135.222656 263.167969 C 135.066406 263.015625 134.917969 262.855469 134.765625 262.699219 C 135.28125 262.953125 135.800781 263.207031 136.328125 263.449219 Z M 140.082031 267.207031 C 139.652344 267.015625 139.226562 266.820312 138.800781 266.621094 C 138.632812 266.464844 138.464844 266.3125 138.296875 266.160156 C 138.730469 266.359375 139.167969 266.554688 139.601562 266.746094 C 139.761719 266.898438 139.925781 267.054688 140.085938 267.203125 Z M 114.394531 248.8125 C 114.433594 248.867188 114.480469 248.917969 114.523438 248.96875 C 113.703125 248.15625 112.894531 247.328125 112.097656 246.484375 C 112.851562 247.277344 113.617188 248.050781 114.386719 248.8125 Z M 116.695312 251.015625 C 118.234375 252.433594 119.898438 253.878906 121.6875 255.300781 C 121.789062 255.414062 121.894531 255.523438 121.996094 255.632812 C 120.167969 254.171875 118.460938 252.695312 116.890625 251.238281 C 116.828125 251.164062 116.757812 251.089844 116.695312 251.015625 Z M 122.972656 256.304688 C 124.164062 257.21875 125.40625 258.121094 126.699219 259.003906 C 126.816406 259.125 126.925781 259.242188 127.042969 259.359375 C 127.058594 259.375 127.070312 259.386719 127.089844 259.40625 C 125.785156 258.511719 124.535156 257.597656 123.335938 256.671875 C 123.214844 256.550781 123.089844 256.421875 122.972656 256.296875 Z M 132.765625 262.425781 C 132.039062 262.015625 131.320312 261.597656 130.617188 261.171875 C 130.46875 261.023438 130.316406 260.875 130.167969 260.726562 C 130.875 261.148438 131.59375 261.570312 132.328125 261.980469 C 132.472656 262.128906 132.617188 262.277344 132.765625 262.425781 Z M 133.277344 262.5 C 133.851562 262.808594 134.433594 263.117188 135.023438 263.414062 C 135.183594 263.578125 135.339844 263.734375 135.503906 263.894531 C 134.914062 263.59375 134.332031 263.285156 133.757812 262.976562 C 133.59375 262.820312 133.4375 262.65625 133.277344 262.5 Z M 129.589844 260.539062 C 128.734375 260 127.902344 259.457031 127.082031 258.902344 C 126.960938 258.777344 126.835938 258.648438 126.714844 258.523438 C 127.523438 259.070312 128.351562 259.609375 129.199219 260.136719 C 129.332031 260.273438 129.457031 260.410156 129.589844 260.542969 Z M 125.597656 257.863281 C 124.199219 256.863281 122.859375 255.847656 121.585938 254.820312 C 121.5 254.726562 121.410156 254.632812 121.324219 254.535156 C 122.574219 255.535156 123.878906 256.527344 125.25 257.5 C 125.363281 257.621094 125.484375 257.742188 125.597656 257.859375 Z M 128.1875 260 C 128.949219 260.5 129.726562 260.988281 130.523438 261.46875 C 130.679688 261.628906 130.835938 261.78125 130.996094 261.9375 C 130.199219 261.453125 129.421875 260.964844 128.652344 260.460938 C 128.496094 260.308594 128.339844 260.160156 128.1875 260 Z M 131.53125 262.074219 C 132.195312 262.460938 132.867188 262.839844 133.554688 263.214844 C 133.722656 263.378906 133.890625 263.546875 134.058594 263.707031 C 133.371094 263.328125 132.691406 262.945312 132.023438 262.554688 C 131.859375 262.398438 131.695312 262.234375 131.53125 262.078125 Z M 134.546875 263.75 C 135.09375 264.035156 135.640625 264.316406 136.199219 264.59375 C 136.375 264.761719 136.550781 264.933594 136.722656 265.105469 C 136.171875 264.828125 135.625 264.550781 135.089844 264.265625 C 134.910156 264.09375 134.730469 263.925781 134.554688 263.753906 Z M 137.367188 265.722656 C 137.519531 265.867188 137.675781 266.015625 137.835938 266.160156 C 137.320312 265.910156 136.808594 265.652344 136.296875 265.394531 C 136.140625 265.25 135.984375 265.105469 135.824219 264.960938 C 136.335938 265.21875 136.851562 265.472656 137.367188 265.726562 Z M 137.644531 265.554688 C 137.457031 265.378906 137.273438 265.203125 137.085938 265.023438 C 137.542969 265.246094 138.007812 265.457031 138.476562 265.671875 C 138.65625 265.847656 138.839844 266.027344 139.023438 266.203125 C 138.558594 265.988281 138.097656 265.777344 137.644531 265.558594 Z M 136.390625 264.347656 C 136.222656 264.179688 136.050781 264.011719 135.878906 263.84375 C 136.371094 264.082031 136.863281 264.316406 137.367188 264.546875 C 137.53125 264.71875 137.699219 264.886719 137.863281 265.054688 C 137.367188 264.824219 136.875 264.585938 136.390625 264.347656 Z M 134.355469 262.734375 C 133.734375 262.410156 133.121094 262.082031 132.523438 261.746094 C 132.378906 261.601562 132.238281 261.453125 132.09375 261.308594 C 132.699219 261.640625 133.304688 261.96875 133.925781 262.285156 C 134.070312 262.4375 134.210938 262.589844 134.355469 262.738281 Z M 131.5625 261.195312 C 130.789062 260.75 130.03125 260.292969 129.289062 259.832031 C 129.167969 259.707031 129.046875 259.578125 128.925781 259.453125 C 129.65625 259.902344 130.402344 260.347656 131.160156 260.78125 C 131.292969 260.921875 131.429688 261.058594 131.5625 261.195312 Z M 128.289062 259.191406 C 127.382812 258.605469 126.496094 258.003906 125.636719 257.402344 C 125.53125 257.289062 125.429688 257.179688 125.320312 257.070312 C 126.171875 257.664062 127.046875 258.253906 127.945312 258.828125 C 128.058594 258.949219 128.171875 259.070312 128.289062 259.191406 Z M 124.179688 256.355469 C 122.691406 255.257812 121.277344 254.136719 119.941406 253.015625 C 119.886719 252.953125 119.832031 252.890625 119.773438 252.824219 C 121.078125 253.914062 122.457031 255.003906 123.917969 256.070312 C 124.003906 256.164062 124.09375 256.261719 124.179688 256.355469 Z M 118.660156 251.917969 C 117.570312 250.96875 116.539062 250.027344 115.5625 249.09375 C 115.039062 248.589844 114.519531 248.082031 114.003906 247.566406 C 114.441406 248 114.878906 248.429688 115.320312 248.851562 C 116.324219 249.808594 117.398438 250.78125 118.523438 251.761719 C 118.566406 251.8125 118.613281 251.863281 118.660156 251.914062 Z M 115.351562 249.316406 C 116.792969 250.695312 118.367188 252.105469 120.0625 253.511719 C 120.132812 253.59375 120.203125 253.667969 120.273438 253.75 C 118.589844 252.339844 117.023438 250.933594 115.585938 249.554688 C 115.300781 249.277344 115.015625 249 114.730469 248.722656 C 114.707031 248.699219 114.691406 248.675781 114.667969 248.652344 C 114.894531 248.871094 115.125 249.09375 115.355469 249.308594 Z M 115.375 250.238281 C 115.753906 250.601562 116.136719 250.957031 116.519531 251.316406 C 116.589844 251.390625 116.65625 251.46875 116.726562 251.550781 C 116.347656 251.195312 115.96875 250.84375 115.589844 250.480469 C 114.074219 249.023438 112.609375 247.515625 111.1875 245.964844 C 112.546875 247.4375 113.941406 248.863281 115.375 250.238281 Z M 111.007812 245.769531 C 110.71875 245.453125 110.429688 245.136719 110.144531 244.816406 C 110.429688 245.136719 110.71875 245.453125 111.007812 245.769531 Z M 108.894531 243.386719 C 108.851562 243.339844 108.808594 243.292969 108.769531 243.242188 C 108.8125 243.289062 108.855469 243.339844 108.894531 243.386719 Z M 118.832031 253.390625 C 120.324219 254.695312 121.847656 255.933594 123.394531 257.105469 C 123.507812 257.226562 123.621094 257.339844 123.734375 257.457031 C 122.175781 256.269531 120.640625 255.023438 119.132812 253.710938 C 119.03125 253.605469 118.933594 253.492188 118.832031 253.386719 Z M 124.722656 258.097656 C 125.863281 258.933594 127.015625 259.734375 128.183594 260.5 C 128.316406 260.632812 128.453125 260.757812 128.585938 260.890625 C 127.410156 260.121094 126.25 259.316406 125.101562 258.476562 C 124.972656 258.351562 124.847656 258.222656 124.722656 258.097656 Z M 129.730469 261.5 C 130.441406 261.945312 131.152344 262.378906 131.871094 262.800781 C 132.007812 262.933594 132.148438 263.066406 132.285156 263.191406 C 131.574219 262.777344 130.863281 262.351562 130.160156 261.90625 C 130.015625 261.773438 129.871094 261.636719 129.726562 261.496094 Z M 132.898438 263.390625 C 133.53125 263.746094 134.167969 264.101562 134.808594 264.4375 C 134.957031 264.578125 135.105469 264.722656 135.253906 264.863281 C 134.621094 264.523438 133.992188 264.179688 133.367188 263.824219 C 133.207031 263.679688 133.050781 263.535156 132.894531 263.382812 Z M 136.21875 265.746094 C 136.390625 265.902344 136.570312 266.0625 136.746094 266.21875 C 136.160156 265.917969 135.578125 265.609375 134.996094 265.292969 C 134.816406 265.132812 134.636719 264.972656 134.460938 264.816406 C 135.042969 265.132812 135.628906 265.441406 136.21875 265.742188 Z M 137.285156 266.289062 C 137.757812 266.519531 138.230469 266.746094 138.703125 266.96875 C 138.890625 267.136719 139.078125 267.304688 139.265625 267.46875 C 138.792969 267.25 138.324219 267.015625 137.851562 266.78125 C 137.660156 266.613281 137.472656 266.449219 137.28125 266.28125 Z M 139.667969 267.414062 C 140.070312 267.597656 140.46875 267.777344 140.871094 267.953125 C 141.054688 268.117188 141.238281 268.285156 141.421875 268.445312 C 141.03125 268.273438 140.640625 268.097656 140.246094 267.917969 C 140.050781 267.746094 139.859375 267.582031 139.664062 267.410156 Z M 140.949219 267.601562 C 140.78125 267.449219 140.613281 267.292969 140.441406 267.132812 C 140.820312 267.296875 141.199219 267.457031 141.578125 267.609375 C 141.742188 267.769531 141.90625 267.925781 142.074219 268.082031 C 141.699219 267.925781 141.324219 267.765625 140.949219 267.601562 Z M 138.667969 265.433594 C 138.492188 265.261719 138.324219 265.085938 138.148438 264.914062 C 138.574219 265.105469 139.007812 265.285156 139.4375 265.464844 C 139.609375 265.640625 139.773438 265.816406 139.945312 265.988281 C 139.515625 265.804688 139.085938 265.617188 138.664062 265.425781 Z M 137.558594 264.308594 C 137.394531 264.140625 137.238281 263.980469 137.082031 263.816406 C 137.53125 264.019531 137.988281 264.21875 138.445312 264.410156 C 138.605469 264.582031 138.757812 264.746094 138.914062 264.914062 C 138.460938 264.714844 138.003906 264.511719 137.558594 264.308594 Z M 136.515625 263.21875 C 136.367188 263.0625 136.222656 262.902344 136.074219 262.746094 C 136.542969 262.964844 137.019531 263.171875 137.503906 263.375 C 137.648438 263.539062 137.796875 263.699219 137.945312 263.867188 C 137.464844 263.65625 136.988281 263.441406 136.515625 263.222656 Z M 135.53125 262.15625 C 135.386719 261.992188 135.238281 261.835938 135.09375 261.671875 C 135.585938 261.902344 136.085938 262.121094 136.582031 262.332031 C 136.726562 262.5 136.871094 262.664062 137.015625 262.832031 C 136.515625 262.609375 136.019531 262.382812 135.527344 262.15625 Z M 134.578125 261.09375 C 134.464844 260.964844 134.347656 260.835938 134.234375 260.703125 C 134.746094 260.9375 135.253906 261.167969 135.769531 261.382812 C 135.890625 261.523438 136.007812 261.664062 136.128906 261.800781 C 135.609375 261.570312 135.09375 261.335938 134.578125 261.09375 Z M 133.734375 260.132812 C 129.09375 254.769531 124.816406 248.820312 120.332031 242.582031 C 114.8125 234.898438 109.109375 226.957031 102.011719 219.082031 C 95.375 211.710938 90.484375 198.886719 88.246094 182.976562 C 88.1875 182.570312 88.136719 182.164062 88.085938 181.757812 C 87.882812 180.136719 87.722656 178.523438 87.59375 176.921875 C 87.746094 178.550781 87.9375 180.199219 88.171875 181.855469 C 88.226562 182.261719 88.285156 182.667969 88.347656 183.074219 C 90.800781 198.980469 96.074219 212.078125 102.8125 219.015625 C 111.269531 227.722656 117.554688 236.625 123.632812 245.226562 C 127.539062 250.757812 131.28125 256.046875 135.320312 260.859375 C 134.785156 260.625 134.257812 260.386719 133.730469 260.136719 Z M 87.382812 181.726562 C 87.429688 182.136719 87.476562 182.542969 87.523438 182.957031 C 89.527344 198.746094 94.21875 211.742188 100.742188 219.554688 C 106.378906 226.296875 111.265625 233.054688 115.988281 239.585938 C 120.832031 246.285156 125.453125 252.671875 130.4375 258.433594 C 129.726562 258.042969 129.019531 257.640625 128.3125 257.21875 C 122.457031 250.5625 117.078125 243.066406 111.417969 235.1875 C 107.777344 230.121094 104.015625 224.882812 99.953125 219.636719 C 93.621094 211.460938 89.171875 198.402344 87.421875 182.871094 C 87.378906 182.460938 87.339844 182.054688 87.300781 181.640625 C 87.121094 179.789062 86.992188 177.949219 86.914062 176.117188 C 87.023438 177.972656 87.175781 179.84375 87.382812 181.726562 Z M 131.019531 259.101562 C 131.109375 259.207031 131.203125 259.3125 131.292969 259.414062 C 130.597656 259.035156 129.910156 258.644531 129.222656 258.238281 C 129.144531 258.144531 129.058594 258.054688 128.976562 257.960938 C 129.65625 258.359375 130.335938 258.742188 131.019531 259.101562 Z M 131.902344 260.09375 C 132.023438 260.230469 132.148438 260.371094 132.273438 260.507812 C 131.589844 260.140625 130.925781 259.765625 130.265625 259.382812 C 130.144531 259.253906 130.023438 259.121094 129.902344 258.988281 C 130.566406 259.367188 131.230469 259.742188 131.898438 260.09375 Z M 132.890625 261.183594 C 133.019531 261.324219 133.152344 261.46875 133.285156 261.609375 C 132.632812 261.265625 131.988281 260.90625 131.355469 260.546875 C 131.234375 260.417969 131.109375 260.285156 130.992188 260.15625 C 131.613281 260.507812 132.25 260.847656 132.894531 261.183594 Z M 130.421875 260.003906 C 129.617188 259.527344 128.828125 259.042969 128.058594 258.546875 C 127.953125 258.429688 127.839844 258.316406 127.734375 258.199219 C 128.496094 258.6875 129.28125 259.164062 130.074219 259.625 C 130.191406 259.753906 130.304688 259.878906 130.425781 260.003906 Z M 127.078125 257.90625 C 126.109375 257.265625 125.167969 256.609375 124.257812 255.945312 C 124.171875 255.855469 124.09375 255.761719 124.007812 255.671875 C 124.90625 256.320312 125.824219 256.957031 126.777344 257.582031 C 126.875 257.695312 126.976562 257.800781 127.078125 257.90625 Z M 122.816406 254.867188 C 121.253906 253.675781 119.78125 252.46875 118.402344 251.265625 C 118.371094 251.230469 118.347656 251.195312 118.316406 251.164062 C 119.660156 252.332031 121.101562 253.503906 122.625 254.65625 C 122.6875 254.726562 122.75 254.800781 122.816406 254.871094 Z M 117.105469 250.101562 C 116.597656 249.640625 116.105469 249.183594 115.625 248.726562 C 116.09375 249.164062 116.570312 249.609375 117.066406 250.054688 C 117.078125 250.070312 117.089844 250.085938 117.105469 250.101562 Z M 110.433594 245.601562 C 112.027344 247.371094 113.671875 249.070312 115.367188 250.703125 C 116.464844 251.757812 117.574219 252.773438 118.703125 253.757812 C 118.816406 253.878906 118.925781 253.996094 119.035156 254.117188 C 117.867188 253.089844 116.707031 252.035156 115.570312 250.941406 C 113.808594 249.242188 112.105469 247.472656 110.46875 245.644531 C 110.457031 245.632812 110.449219 245.617188 110.433594 245.601562 Z M 126.613281 259.953125 C 127.675781 260.695312 128.746094 261.410156 129.832031 262.09375 C 129.996094 262.25 130.15625 262.402344 130.316406 262.550781 C 129.234375 261.867188 128.15625 261.148438 127.089844 260.410156 C 126.925781 260.261719 126.769531 260.109375 126.613281 259.953125 Z M 131.421875 263.074219 C 132.066406 263.460938 132.714844 263.839844 133.371094 264.210938 C 133.542969 264.371094 133.71875 264.53125 133.894531 264.6875 C 133.246094 264.320312 132.605469 263.945312 131.964844 263.5625 C 131.78125 263.402344 131.597656 263.238281 131.421875 263.074219 Z M 135.019531 265.6875 C 135.222656 265.863281 135.421875 266.035156 135.625 266.210938 C 135.058594 265.902344 134.492188 265.589844 133.9375 265.269531 C 133.71875 265.085938 133.5 264.902344 133.285156 264.71875 C 133.863281 265.046875 134.441406 265.371094 135.023438 265.6875 Z M 136.144531 266.289062 C 136.675781 266.5625 137.207031 266.835938 137.742188 267.101562 C 137.949219 267.28125 138.160156 267.460938 138.375 267.640625 C 137.84375 267.375 137.316406 267.109375 136.792969 266.832031 C 136.574219 266.652344 136.363281 266.46875 136.144531 266.289062 Z M 138.855469 267.640625 C 139.289062 267.84375 139.71875 268.054688 140.152344 268.25 C 140.363281 268.429688 140.570312 268.605469 140.78125 268.785156 C 140.367188 268.59375 139.949219 268.40625 139.535156 268.207031 C 139.308594 268.019531 139.078125 267.832031 138.851562 267.640625 Z M 141.167969 268.699219 C 141.34375 268.78125 141.523438 268.863281 141.707031 268.9375 C 141.886719 269.015625 142.066406 269.085938 142.242188 269.160156 C 142.457031 269.34375 142.667969 269.527344 142.882812 269.703125 C 142.542969 269.558594 142.199219 269.417969 141.863281 269.269531 C 141.628906 269.078125 141.402344 268.886719 141.171875 268.695312 Z M 143.691406 270.382812 C 143.960938 270.605469 144.238281 270.828125 144.519531 271.046875 C 144.222656 270.921875 143.929688 270.796875 143.636719 270.671875 C 143.34375 270.449219 143.054688 270.222656 142.765625 270 C 143.074219 270.128906 143.382812 270.253906 143.691406 270.382812 Z M 145.414062 271.738281 C 145.726562 271.972656 146.035156 272.207031 146.347656 272.4375 C 146.121094 272.347656 145.890625 272.257812 145.664062 272.167969 C 145.316406 271.921875 144.976562 271.675781 144.632812 271.425781 C 144.890625 271.53125 145.148438 271.636719 145.410156 271.738281 Z M 147.332031 273.148438 C 147.703125 273.410156 148.082031 273.667969 148.460938 273.921875 C 148.320312 273.871094 148.179688 273.820312 148.042969 273.769531 C 147.621094 273.496094 147.203125 273.21875 146.789062 272.945312 C 146.972656 273.011719 147.152344 273.082031 147.332031 273.152344 Z M 149.597656 274.667969 C 150.054688 274.957031 150.515625 275.246094 150.980469 275.527344 C 150.949219 275.515625 150.917969 275.503906 150.886719 275.492188 C 150.359375 275.191406 149.839844 274.882812 149.328125 274.574219 C 149.417969 274.609375 149.507812 274.636719 149.597656 274.667969 Z M 152.371094 275.609375 C 152.421875 275.625 152.46875 275.640625 152.519531 275.65625 C 152.886719 275.886719 153.253906 276.117188 153.628906 276.34375 C 153.207031 276.101562 152.785156 275.859375 152.371094 275.609375 Z M 151.273438 274.921875 C 150.875 274.667969 150.480469 274.40625 150.089844 274.144531 C 150.214844 274.1875 150.332031 274.222656 150.457031 274.261719 C 150.816406 274.519531 151.175781 274.765625 151.542969 275.011719 C 151.453125 274.980469 151.363281 274.953125 151.273438 274.921875 Z M 149.140625 273.488281 C 148.796875 273.246094 148.457031 273 148.121094 272.746094 C 148.308594 272.816406 148.496094 272.878906 148.683594 272.949219 C 148.988281 273.183594 149.296875 273.414062 149.605469 273.644531 C 149.453125 273.589844 149.296875 273.542969 149.140625 273.488281 Z M 147.273438 272.113281 C 146.988281 271.890625 146.703125 271.671875 146.417969 271.445312 C 146.648438 271.53125 146.878906 271.613281 147.109375 271.691406 C 147.375 271.914062 147.644531 272.128906 147.917969 272.351562 C 147.699219 272.273438 147.488281 272.195312 147.273438 272.113281 Z M 145.660156 270.835938 C 145.429688 270.644531 145.195312 270.453125 144.972656 270.261719 C 145.242188 270.363281 145.511719 270.460938 145.785156 270.5625 C 145.996094 270.75 146.210938 270.933594 146.421875 271.121094 C 146.167969 271.027344 145.910156 270.9375 145.660156 270.839844 Z M 144.195312 269.59375 C 143.996094 269.417969 143.796875 269.242188 143.601562 269.066406 C 143.910156 269.183594 144.21875 269.308594 144.527344 269.421875 C 144.714844 269.597656 144.902344 269.769531 145.089844 269.941406 C 144.792969 269.828125 144.496094 269.714844 144.195312 269.597656 Z M 142.867188 268.398438 C 142.695312 268.238281 142.523438 268.078125 142.355469 267.917969 C 142.695312 268.054688 143.03125 268.183594 143.371094 268.3125 C 143.539062 268.476562 143.703125 268.636719 143.867188 268.792969 C 143.539062 268.667969 143.199219 268.53125 142.867188 268.394531 Z M 144.085938 268.578125 C 144.394531 268.6875 144.703125 268.800781 145.007812 268.914062 C 145.175781 269.078125 145.339844 269.246094 145.511719 269.40625 C 145.210938 269.300781 144.910156 269.183594 144.613281 269.074219 C 144.4375 268.910156 144.261719 268.742188 144.085938 268.578125 Z M 145.6875 269.144531 C 145.96875 269.238281 146.25 269.335938 146.535156 269.421875 C 146.699219 269.59375 146.871094 269.765625 147.035156 269.929688 C 146.761719 269.839844 146.492188 269.746094 146.21875 269.652344 C 146.039062 269.484375 145.863281 269.3125 145.6875 269.144531 Z M 147.171875 269.628906 C 147.429688 269.707031 147.691406 269.789062 147.949219 269.867188 C 148.117188 270.039062 148.285156 270.214844 148.457031 270.390625 C 148.207031 270.3125 147.953125 270.238281 147.707031 270.15625 C 147.527344 269.980469 147.351562 269.808594 147.171875 269.628906 Z M 151.105469 270.738281 C 156.429688 272.074219 161.832031 272.75 167.277344 272.75 C 168.09375 272.75 168.910156 272.734375 169.726562 272.707031 C 195.574219 271.746094 205.0625 267.765625 215.105469 263.542969 C 222.101562 260.601562 229.332031 257.5625 242.5 255.175781 C 252.828125 253.300781 263.097656 246.195312 271.75 235.011719 C 263.792969 245.429688 253.992188 252.867188 243.730469 255.25 C 232.0625 257.960938 224.988281 260.972656 218.144531 263.886719 C 207.039062 268.613281 197.445312 272.695312 171.488281 273.578125 C 164.820312 273.804688 158.15625 273.023438 151.628906 271.304688 C 151.449219 271.117188 151.273438 270.925781 151.101562 270.738281 Z M 242.449219 254.871094 C 229.246094 257.269531 222 260.316406 214.984375 263.261719 C 204.972656 267.46875 195.511719 271.445312 169.714844 272.402344 C 162.925781 272.652344 156.601562 271.867188 150.773438 270.378906 C 150.585938 270.167969 150.402344 269.960938 150.21875 269.746094 C 154.953125 270.90625 160 271.582031 165.355469 271.582031 C 166.210938 271.582031 167.078125 271.566406 167.949219 271.53125 C 193.730469 270.496094 202.734375 266.726562 212.261719 262.734375 C 219.292969 259.789062 226.5625 256.742188 241.199219 254.800781 C 251.886719 253.378906 262.652344 246.203125 271.761719 234.492188 C 263.101562 245.808594 252.804688 252.996094 242.445312 254.878906 Z M 150.230469 270.234375 C 149.992188 270.167969 149.75 270.105469 149.511719 270.039062 C 149.324219 269.835938 149.136719 269.628906 148.949219 269.421875 C 149.203125 269.492188 149.449219 269.558594 149.699219 269.625 C 149.875 269.828125 150.046875 270.03125 150.226562 270.238281 Z M 148.941406 269.878906 C 148.6875 269.808594 148.429688 269.730469 148.175781 269.65625 C 147.988281 269.457031 147.800781 269.257812 147.613281 269.058594 C 147.875 269.132812 148.136719 269.203125 148.402344 269.273438 C 148.582031 269.480469 148.757812 269.679688 148.941406 269.878906 Z M 147.582031 269.480469 C 147.308594 269.394531 147.03125 269.308594 146.757812 269.21875 C 146.566406 269.023438 146.375 268.828125 146.1875 268.628906 C 146.464844 268.71875 146.75 268.796875 147.03125 268.882812 C 147.214844 269.082031 147.398438 269.285156 147.582031 269.480469 Z M 146.128906 269.011719 C 145.835938 268.914062 145.542969 268.8125 145.25 268.707031 C 145.054688 268.515625 144.859375 268.320312 144.671875 268.125 C 144.976562 268.226562 145.277344 268.328125 145.585938 268.429688 C 145.765625 268.625 145.945312 268.816406 146.132812 269.007812 Z M 144.574219 268.476562 C 144.253906 268.359375 143.933594 268.242188 143.613281 268.121094 C 143.417969 267.929688 143.226562 267.738281 143.035156 267.546875 C 143.367188 267.671875 143.695312 267.789062 144.027344 267.910156 C 144.210938 268.101562 144.394531 268.289062 144.574219 268.476562 Z M 142.894531 267.847656 C 142.535156 267.707031 142.183594 267.566406 141.832031 267.421875 C 141.640625 267.234375 141.441406 267.050781 141.25 266.863281 C 141.613281 267.007812 141.980469 267.152344 142.34375 267.292969 C 142.527344 267.480469 142.710938 267.660156 142.894531 267.84375 Z M 140.691406 266.304688 C 140.511719 266.125 140.335938 265.945312 140.15625 265.769531 C 140.542969 265.925781 140.929688 266.078125 141.320312 266.226562 C 141.488281 266.40625 141.660156 266.585938 141.832031 266.765625 C 141.449219 266.613281 141.066406 266.460938 140.691406 266.304688 Z M 139.625 265.214844 C 139.464844 265.042969 139.300781 264.875 139.140625 264.699219 C 139.546875 264.867188 139.953125 265.027344 140.367188 265.183594 C 140.523438 265.359375 140.679688 265.535156 140.839844 265.703125 C 140.429688 265.542969 140.03125 265.378906 139.625 265.210938 Z M 138.628906 264.15625 C 138.476562 263.988281 138.328125 263.828125 138.175781 263.660156 C 138.601562 263.835938 139.027344 264.007812 139.460938 264.171875 C 139.609375 264.34375 139.757812 264.507812 139.90625 264.675781 C 139.476562 264.503906 139.050781 264.328125 138.628906 264.152344 Z M 137.679688 263.117188 C 137.53125 262.949219 137.382812 262.78125 137.234375 262.613281 C 137.679688 262.796875 138.125 262.976562 138.570312 263.152344 C 138.71875 263.324219 138.863281 263.496094 139.011719 263.664062 C 138.566406 263.488281 138.121094 263.304688 137.679688 263.117188 Z M 136.765625 262.078125 C 136.644531 261.9375 136.523438 261.796875 136.398438 261.65625 C 136.859375 261.847656 137.320312 262.03125 137.785156 262.207031 C 137.90625 262.355469 138.03125 262.503906 138.152344 262.648438 C 137.691406 262.464844 137.230469 262.273438 136.765625 262.078125 Z M 135.949219 261.125 C 131.761719 256.191406 127.914062 250.746094 123.878906 245.039062 C 117.792969 236.421875 111.5 227.519531 103.023438 218.792969 C 96.332031 211.898438 91.085938 198.855469 88.640625 183.015625 C 88.582031 182.613281 88.519531 182.207031 88.464844 181.800781 C 88.214844 180.015625 88.015625 178.246094 87.851562 176.492188 C 88.039062 178.277344 88.269531 180.078125 88.550781 181.898438 C 88.609375 182.300781 88.675781 182.710938 88.742188 183.113281 C 91.441406 199.164062 96.945312 212.144531 103.832031 218.726562 C 113.609375 228.070312 120.300781 237.773438 126.769531 247.15625 C 130.308594 252.292969 133.703125 257.210938 137.371094 261.703125 C 136.894531 261.515625 136.417969 261.320312 135.941406 261.117188 Z M 86.992188 181.671875 C 87.03125 182.085938 87.074219 182.492188 87.117188 182.90625 C 88.875 198.496094 93.347656 211.605469 99.710938 219.824219 C 103.765625 225.070312 107.527344 230.304688 111.167969 235.367188 C 116.617188 242.957031 121.8125 250.191406 127.421875 256.664062 C 126.542969 256.121094 125.675781 255.550781 124.808594 254.953125 C 118.121094 247.261719 112.003906 238.53125 105.5625 229.328125 C 103.414062 226.261719 101.191406 223.085938 98.921875 219.917969 C 92.746094 211.300781 88.515625 198.125 87.011719 182.820312 C 86.972656 182.410156 86.9375 182 86.902344 181.585938 C 86.707031 179.269531 86.589844 176.980469 86.542969 174.71875 C 86.613281 177.015625 86.761719 179.339844 86.988281 181.671875 Z M 128.101562 257.445312 C 128.171875 257.527344 128.25 257.609375 128.324219 257.695312 C 127.46875 257.171875 126.621094 256.621094 125.773438 256.050781 C 125.71875 255.992188 125.667969 255.929688 125.609375 255.867188 C 126.4375 256.417969 127.261719 256.941406 128.097656 257.445312 Z M 129.019531 258.476562 C 129.132812 258.601562 129.242188 258.71875 129.351562 258.84375 C 128.515625 258.335938 127.695312 257.820312 126.898438 257.292969 C 126.796875 257.1875 126.699219 257.082031 126.605469 256.976562 C 127.40625 257.5 128.214844 257.996094 129.023438 258.476562 Z M 125.925781 256.648438 C 124.90625 255.953125 123.921875 255.242188 122.96875 254.527344 C 122.894531 254.453125 122.828125 254.371094 122.761719 254.289062 C 123.71875 255.003906 124.683594 255.6875 125.65625 256.339844 C 125.746094 256.441406 125.839844 256.546875 125.929688 256.648438 Z M 121.558594 253.441406 C 119.902344 252.140625 118.359375 250.820312 116.929688 249.519531 C 116.902344 249.484375 116.878906 249.457031 116.847656 249.421875 C 118.339844 250.765625 119.84375 252.039062 121.371094 253.230469 C 121.4375 253.300781 121.496094 253.371094 121.558594 253.441406 Z M 110.707031 246.367188 C 110.765625 246.4375 110.828125 246.511719 110.886719 246.582031 C 108.980469 244.484375 107.160156 242.316406 105.4375 240.082031 C 107.109375 242.246094 108.867188 244.339844 110.707031 246.359375 Z M 105.28125 239.875 C 104.863281 239.332031 104.445312 238.78125 104.039062 238.226562 C 104.445312 238.78125 104.859375 239.332031 105.28125 239.875 Z M 123.574219 258.238281 C 124.78125 259.164062 126.003906 260.050781 127.242188 260.90625 C 127.421875 261.074219 127.597656 261.242188 127.777344 261.410156 C 126.542969 260.5625 125.320312 259.683594 124.117188 258.761719 C 123.933594 258.589844 123.753906 258.414062 123.574219 258.238281 Z M 128.667969 261.871094 C 129.640625 262.511719 130.621094 263.136719 131.613281 263.734375 C 131.808594 263.914062 132.007812 264.082031 132.203125 264.257812 C 131.214844 263.660156 130.234375 263.042969 129.257812 262.40625 C 129.058594 262.226562 128.863281 262.046875 128.664062 261.871094 Z M 133.511719 265.390625 C 133.765625 265.605469 134.019531 265.824219 134.277344 266.035156 C 133.402344 265.535156 132.53125 265.019531 131.671875 264.484375 C 131.394531 264.253906 131.117188 264.019531 130.847656 263.785156 C 131.726562 264.332031 132.617188 264.875 133.511719 265.390625 Z M 135.253906 266.367188 C 135.75 266.640625 136.246094 266.898438 136.746094 267.160156 C 137.011719 267.382812 137.28125 267.601562 137.550781 267.820312 C 137.066406 267.574219 136.589844 267.316406 136.113281 267.058594 C 135.824219 266.828125 135.539062 266.597656 135.253906 266.367188 Z M 137.929688 267.765625 C 138.40625 268.003906 138.886719 268.242188 139.363281 268.46875 C 139.632812 268.691406 139.90625 268.914062 140.179688 269.128906 C 139.71875 268.914062 139.265625 268.691406 138.808594 268.464844 C 138.511719 268.238281 138.21875 268.003906 137.921875 267.765625 Z M 140.550781 269.027344 C 140.925781 269.199219 141.296875 269.363281 141.675781 269.53125 C 141.953125 269.753906 142.230469 269.976562 142.511719 270.203125 C 142.144531 270.039062 141.785156 269.871094 141.417969 269.703125 C 141.128906 269.480469 140.839844 269.253906 140.550781 269.027344 Z M 143.484375 270.960938 C 143.796875 271.199219 144.113281 271.433594 144.425781 271.667969 C 144.140625 271.546875 143.859375 271.429688 143.574219 271.304688 C 143.222656 271.054688 142.867188 270.796875 142.523438 270.542969 C 142.84375 270.683594 143.167969 270.828125 143.484375 270.964844 Z M 145.503906 272.441406 C 145.878906 272.707031 146.261719 272.96875 146.644531 273.222656 C 146.453125 273.148438 146.261719 273.074219 146.070312 273 C 145.644531 272.722656 145.222656 272.441406 144.804688 272.15625 C 145.039062 272.253906 145.273438 272.347656 145.507812 272.441406 Z M 147.875 274.039062 C 148.332031 274.335938 148.800781 274.625 149.273438 274.910156 C 149.203125 274.882812 149.128906 274.859375 149.058594 274.828125 C 148.523438 274.523438 147.996094 274.207031 147.476562 273.882812 C 147.609375 273.933594 147.742188 273.980469 147.875 274.03125 Z M 153.691406 276.027344 C 153.726562 276.042969 153.765625 276.050781 153.796875 276.058594 C 154.074219 276.238281 154.355469 276.410156 154.636719 276.585938 C 154.316406 276.402344 154.003906 276.214844 153.6875 276.023438 Z M 152.660156 275.386719 C 152.261719 275.132812 151.871094 274.871094 151.480469 274.609375 C 151.589844 274.640625 151.699219 274.679688 151.8125 274.714844 C 152.160156 274.964844 152.515625 275.207031 152.875 275.449219 C 152.800781 275.429688 152.734375 275.40625 152.660156 275.382812 Z M 150.597656 273.996094 C 150.265625 273.757812 149.9375 273.519531 149.609375 273.277344 C 149.773438 273.332031 149.933594 273.382812 150.101562 273.4375 C 150.402344 273.675781 150.710938 273.910156 151.023438 274.140625 C 150.882812 274.09375 150.742188 274.042969 150.601562 273.996094 Z M 148.828125 272.679688 C 148.542969 272.457031 148.261719 272.238281 147.980469 272.011719 C 148.1875 272.082031 148.394531 272.152344 148.601562 272.21875 C 148.859375 272.441406 149.125 272.652344 149.394531 272.871094 C 149.207031 272.808594 149.019531 272.742188 148.832031 272.679688 Z M 147.277344 271.441406 C 147.046875 271.25 146.820312 271.054688 146.589844 270.859375 C 146.835938 270.941406 147.082031 271.03125 147.328125 271.117188 C 147.539062 271.304688 147.75 271.492188 147.964844 271.679688 C 147.734375 271.597656 147.503906 271.523438 147.273438 271.441406 Z M 145.878906 270.242188 C 145.679688 270.0625 145.476562 269.882812 145.277344 269.703125 C 145.558594 269.808594 145.839844 269.914062 146.121094 270.007812 C 146.308594 270.1875 146.5 270.359375 146.6875 270.539062 C 146.414062 270.445312 146.144531 270.34375 145.878906 270.242188 Z M 146.828125 270.242188 C 147.082031 270.324219 147.335938 270.414062 147.59375 270.496094 C 147.78125 270.679688 147.96875 270.859375 148.160156 271.035156 C 147.914062 270.957031 147.667969 270.871094 147.421875 270.785156 C 147.222656 270.601562 147.023438 270.425781 146.824219 270.242188 Z M 148.269531 270.710938 C 148.503906 270.78125 148.738281 270.855469 148.976562 270.925781 C 149.164062 271.109375 149.351562 271.296875 149.539062 271.476562 C 149.3125 271.40625 149.089844 271.339844 148.867188 271.265625 C 148.664062 271.082031 148.464844 270.894531 148.269531 270.710938 Z M 149.625 271.121094 C 149.839844 271.1875 150.058594 271.242188 150.273438 271.304688 C 150.460938 271.492188 150.648438 271.683594 150.835938 271.867188 C 150.628906 271.808594 150.417969 271.746094 150.214844 271.6875 C 150.015625 271.5 149.820312 271.3125 149.625 271.121094 Z M 150.886719 271.476562 C 151.09375 271.53125 151.304688 271.589844 151.511719 271.644531 C 151.695312 271.835938 151.882812 272.027344 152.070312 272.21875 C 151.871094 272.164062 151.675781 272.105469 151.472656 272.050781 C 151.277344 271.859375 151.082031 271.667969 150.886719 271.476562 Z M 152.085938 271.789062 C 157.699219 273.210938 163.402344 273.933594 169.152344 273.933594 C 169.9375 273.933594 170.71875 273.921875 171.503906 273.898438 C 197.515625 273.015625 207.132812 268.921875 218.265625 264.179688 C 225.097656 261.273438 232.15625 258.265625 243.800781 255.5625 C 256.195312 252.683594 267.921875 242.480469 276.570312 228.570312 C 268.3125 242.101562 257.117188 252.1875 245.019531 255.644531 C 234.953125 258.519531 227.914062 261.585938 221.707031 264.292969 C 209.792969 269.480469 199.507812 273.960938 173.273438 274.769531 C 166.34375 274.980469 159.433594 274.164062 152.675781 272.386719 C 152.480469 272.191406 152.28125 271.996094 152.085938 271.796875 Z M 241.160156 254.503906 C 226.484375 256.453125 219.195312 259.503906 212.140625 262.457031 C 202.640625 266.4375 193.664062 270.199219 167.9375 271.226562 C 161.480469 271.488281 155.453125 270.761719 149.878906 269.355469 C 149.703125 269.148438 149.53125 268.9375 149.359375 268.730469 C 153.796875 269.792969 158.523438 270.414062 163.519531 270.414062 C 164.390625 270.414062 165.277344 270.398438 166.171875 270.359375 C 191.980469 269.246094 200.984375 265.453125 209.691406 261.785156 C 216.976562 258.714844 223.859375 255.8125 239.898438 254.429688 C 250.363281 253.527344 261.445312 246.621094 270.710938 235.335938 C 261.824219 246.378906 251.453125 253.136719 241.160156 254.503906 Z M 149.363281 269.226562 C 149.105469 269.160156 148.84375 269.09375 148.585938 269.019531 C 148.410156 268.820312 148.234375 268.613281 148.0625 268.410156 C 148.324219 268.480469 148.59375 268.546875 148.859375 268.613281 C 149.027344 268.824219 149.191406 269.027344 149.363281 269.230469 Z M 148.039062 268.867188 C 147.761719 268.789062 147.488281 268.707031 147.214844 268.628906 C 147.035156 268.433594 146.859375 268.238281 146.6875 268.035156 C 146.96875 268.117188 147.25 268.191406 147.535156 268.265625 C 147.703125 268.464844 147.871094 268.667969 148.042969 268.867188 Z M 146.644531 268.453125 C 146.347656 268.363281 146.050781 268.269531 145.757812 268.175781 C 145.578125 267.984375 145.402344 267.789062 145.222656 267.59375 C 145.523438 267.6875 145.828125 267.78125 146.128906 267.871094 C 146.300781 268.066406 146.46875 268.261719 146.644531 268.457031 Z M 145.15625 267.976562 C 144.835938 267.871094 144.519531 267.765625 144.207031 267.652344 C 144.027344 267.464844 143.847656 267.273438 143.667969 267.082031 C 143.992188 267.195312 144.316406 267.304688 144.644531 267.410156 C 144.8125 267.601562 144.984375 267.789062 145.15625 267.976562 Z M 143.558594 267.421875 C 143.210938 267.300781 142.863281 267.167969 142.523438 267.039062 C 142.34375 266.859375 142.167969 266.671875 141.988281 266.488281 C 142.339844 266.621094 142.691406 266.75 143.046875 266.875 C 143.21875 267.058594 143.386719 267.246094 143.558594 267.429688 Z M 141.507812 265.976562 C 141.339844 265.796875 141.171875 265.617188 141.003906 265.441406 C 141.378906 265.582031 141.75 265.722656 142.128906 265.851562 C 142.285156 266.03125 142.449219 266.210938 142.605469 266.390625 C 142.234375 266.257812 141.867188 266.117188 141.503906 265.980469 Z M 140.550781 264.9375 C 140.390625 264.761719 140.238281 264.589844 140.082031 264.414062 C 140.472656 264.558594 140.863281 264.707031 141.261719 264.84375 C 141.410156 265.019531 141.5625 265.199219 141.710938 265.367188 C 141.324219 265.226562 140.9375 265.082031 140.550781 264.933594 Z M 139.648438 263.925781 C 139.488281 263.746094 139.332031 263.5625 139.175781 263.378906 C 139.582031 263.535156 139.992188 263.683594 140.402344 263.824219 C 140.554688 264.007812 140.703125 264.1875 140.855469 264.371094 C 140.453125 264.226562 140.046875 264.078125 139.648438 263.925781 Z M 138.761719 262.898438 C 138.628906 262.742188 138.5 262.585938 138.367188 262.429688 C 138.789062 262.589844 139.207031 262.738281 139.628906 262.882812 C 139.761719 263.042969 139.890625 263.207031 140.023438 263.367188 C 139.601562 263.214844 139.179688 263.0625 138.757812 262.898438 Z M 137.96875 261.953125 C 134.164062 257.355469 130.675781 252.292969 127.027344 247.003906 C 120.550781 237.605469 113.851562 227.890625 104.050781 218.527344 C 97.207031 211.984375 91.738281 199.066406 89.046875 183.085938 C 88.980469 182.679688 88.921875 182.277344 88.855469 181.871094 C 88.582031 180.09375 88.355469 178.324219 88.171875 176.582031 C 88.378906 178.367188 88.640625 180.171875 88.941406 181.976562 C 89.011719 182.382812 89.078125 182.785156 89.152344 183.191406 C 92.089844 199.367188 97.824219 212.234375 104.867188 218.480469 C 115.929688 228.285156 122.875 238.6875 129.597656 248.75 C 132.824219 253.574219 135.914062 258.199219 139.273438 262.441406 C 138.839844 262.285156 138.398438 262.125 137.964844 261.957031 Z M 86.605469 181.613281 C 86.640625 182.023438 86.675781 182.4375 86.710938 182.851562 C 88.226562 198.210938 92.476562 211.4375 98.679688 220.097656 C 100.945312 223.261719 103.167969 226.433594 105.316406 229.503906 C 111.476562 238.304688 117.398438 246.753906 123.855469 254.28125 C 122.777344 253.515625 121.707031 252.710938 120.648438 251.863281 C 112.597656 242.398438 105.464844 231.617188 98.164062 220.589844 L 97.90625 220.195312 C 91.890625 211.109375 87.878906 197.8125 86.609375 182.765625 C 86.574219 182.351562 86.546875 181.9375 86.519531 181.527344 C 86.390625 179.648438 86.308594 177.785156 86.273438 175.933594 C 86.332031 177.808594 86.441406 179.699219 86.601562 181.605469 Z M 124.667969 255.230469 C 124.710938 255.28125 124.753906 255.328125 124.796875 255.378906 C 123.765625 254.65625 122.742188 253.90625 121.726562 253.113281 C 121.707031 253.09375 121.6875 253.074219 121.671875 253.050781 C 122.660156 253.808594 123.660156 254.535156 124.667969 255.230469 Z M 120.328125 252.007812 C 120.277344 251.964844 120.226562 251.921875 120.175781 251.882812 C 120.222656 251.917969 120.269531 251.953125 120.316406 251.992188 C 120.320312 251.996094 120.324219 252.003906 120.328125 252.007812 Z M 114.015625 250.320312 C 114.121094 250.4375 114.222656 250.5625 114.328125 250.679688 C 111.859375 248.207031 109.519531 245.617188 107.324219 242.917969 C 109.441406 245.503906 111.675781 247.976562 114.015625 250.324219 Z M 126.144531 260.644531 C 127.199219 261.398438 128.261719 262.125 129.335938 262.828125 C 129.585938 263.046875 129.835938 263.265625 130.085938 263.488281 C 129.023438 262.800781 127.976562 262.089844 126.9375 261.359375 C 126.671875 261.125 126.40625 260.886719 126.144531 260.648438 Z M 131.757812 264.902344 C 132.058594 265.15625 132.367188 265.40625 132.667969 265.652344 C 131.800781 265.125 130.941406 264.585938 130.089844 264.027344 C 129.753906 263.75 129.417969 263.472656 129.085938 263.199219 C 129.96875 263.785156 130.859375 264.351562 131.757812 264.902344 Z M 133.367188 265.871094 C 134.132812 266.316406 134.898438 266.753906 135.671875 267.179688 C 135.984375 267.429688 136.292969 267.675781 136.605469 267.914062 C 135.863281 267.511719 135.128906 267.101562 134.398438 266.679688 C 134.054688 266.410156 133.710938 266.140625 133.371094 265.871094 Z M 137.535156 268.171875 C 137.941406 268.382812 138.34375 268.582031 138.753906 268.785156 C 139.074219 269.035156 139.394531 269.277344 139.71875 269.527344 C 139.339844 269.339844 138.964844 269.152344 138.59375 268.960938 C 138.238281 268.699219 137.890625 268.441406 137.539062 268.171875 Z M 140.039062 269.410156 C 140.441406 269.601562 140.847656 269.792969 141.257812 269.980469 C 141.570312 270.21875 141.886719 270.457031 142.199219 270.695312 C 141.835938 270.53125 141.46875 270.367188 141.105469 270.199219 C 140.75 269.9375 140.394531 269.679688 140.042969 269.414062 Z M 143.398438 271.566406 C 143.777344 271.835938 144.160156 272.101562 144.546875 272.363281 C 144.277344 272.25 144.007812 272.140625 143.742188 272.023438 C 143.308594 271.738281 142.882812 271.449219 142.457031 271.15625 C 142.765625 271.296875 143.082031 271.433594 143.398438 271.570312 Z M 145.890625 273.257812 C 146.359375 273.566406 146.835938 273.863281 147.3125 274.15625 C 147.175781 274.101562 147.035156 274.050781 146.898438 273.992188 C 146.359375 273.671875 145.828125 273.347656 145.300781 273.015625 C 145.496094 273.097656 145.695312 273.175781 145.890625 273.253906 Z M 148.894531 275.097656 C 149.152344 275.246094 149.410156 275.390625 149.675781 275.535156 C 149.371094 275.375 149.066406 275.210938 148.769531 275.046875 C 148.808594 275.0625 148.851562 275.078125 148.898438 275.097656 Z M 154.90625 276.386719 C 154.933594 276.394531 154.960938 276.402344 154.988281 276.410156 C 155.21875 276.5625 155.449219 276.707031 155.679688 276.851562 C 155.417969 276.695312 155.160156 276.542969 154.90625 276.386719 Z M 153.945312 275.785156 C 153.550781 275.53125 153.164062 275.277344 152.777344 275.011719 C 152.871094 275.042969 152.96875 275.066406 153.0625 275.097656 C 153.414062 275.351562 153.773438 275.597656 154.132812 275.847656 C 154.070312 275.828125 154.011719 275.808594 153.945312 275.785156 Z M 151.949219 274.433594 C 151.628906 274.203125 151.308594 273.964844 150.992188 273.726562 C 151.136719 273.773438 151.28125 273.816406 151.425781 273.859375 C 151.722656 274.089844 152.015625 274.316406 152.316406 274.542969 C 152.195312 274.503906 152.074219 274.46875 151.949219 274.429688 Z M 150.265625 273.167969 C 149.976562 272.945312 149.691406 272.71875 149.410156 272.488281 C 149.605469 272.550781 149.796875 272.621094 149.992188 272.679688 C 150.25 272.898438 150.507812 273.113281 150.769531 273.328125 C 150.601562 273.277344 150.4375 273.222656 150.269531 273.167969 Z M 148.757812 271.949219 C 148.53125 271.757812 148.304688 271.558594 148.082031 271.363281 C 148.308594 271.441406 148.535156 271.519531 148.761719 271.589844 C 148.976562 271.78125 149.1875 271.972656 149.402344 272.164062 C 149.1875 272.097656 148.976562 272.019531 148.761719 271.949219 Z M 149.46875 271.8125 C 149.679688 271.875 149.882812 271.9375 150.089844 272 C 150.300781 272.195312 150.507812 272.386719 150.722656 272.578125 C 150.523438 272.519531 150.332031 272.457031 150.136719 272.394531 C 149.914062 272.203125 149.691406 272.007812 149.46875 271.808594 Z M 150.777344 272.207031 C 150.96875 272.261719 151.160156 272.3125 151.347656 272.363281 C 151.550781 272.558594 151.757812 272.757812 151.972656 272.953125 C 151.792969 272.902344 151.613281 272.855469 151.441406 272.796875 C 151.214844 272.601562 150.992188 272.40625 150.777344 272.207031 Z M 151.996094 272.542969 C 152.179688 272.59375 152.363281 272.644531 152.546875 272.695312 C 152.75 272.898438 152.960938 273.09375 153.167969 273.289062 C 153 273.242188 152.824219 273.191406 152.652344 273.144531 C 152.433594 272.949219 152.214844 272.746094 151.996094 272.542969 Z M 153.160156 272.84375 C 159.039062 274.339844 165.011719 275.097656 171.042969 275.097656 C 171.789062 275.097656 172.53125 275.085938 173.273438 275.0625 C 199.566406 274.253906 209.878906 269.765625 221.820312 264.558594 C 228.019531 261.855469 235.046875 258.796875 245.097656 255.925781 C 256.015625 252.804688 266.207031 244.316406 274.179688 232.78125 C 266.359375 244.3125 256.5625 252.5 246.296875 256.007812 C 237.90625 258.878906 231.453125 261.789062 225.753906 264.355469 C 212.3125 270.410156 201.699219 275.199219 175.039062 275.929688 C 167.886719 276.125 160.761719 275.277344 153.808594 273.449219 C 153.585938 273.25 153.371094 273.046875 153.15625 272.839844 Z M 239.867188 254.109375 C 223.777344 255.5 216.875 258.40625 209.5625 261.488281 C 200.882812 265.140625 191.90625 268.925781 166.148438 270.035156 C 160.050781 270.300781 154.335938 269.636719 149.035156 268.328125 C 148.871094 268.125 148.707031 267.917969 148.546875 267.707031 C 152.683594 268.671875 157.066406 269.226562 161.6875 269.226562 C 162.578125 269.226562 163.480469 269.207031 164.386719 269.164062 C 190.3125 267.964844 198.96875 264.265625 207.339844 260.6875 C 214.480469 257.636719 221.21875 254.753906 238.59375 254.035156 C 248.429688 253.625 258.921875 247.832031 268.046875 237.929688 C 259.367188 247.484375 249.355469 253.285156 239.871094 254.105469 Z M 148.542969 268.207031 C 148.261719 268.132812 147.984375 268.0625 147.707031 267.988281 C 147.542969 267.789062 147.375 267.589844 147.214844 267.390625 C 147.496094 267.460938 147.78125 267.527344 148.066406 267.59375 C 148.222656 267.796875 148.378906 268.003906 148.542969 268.207031 Z M 147.1875 267.84375 C 146.894531 267.765625 146.597656 267.679688 146.308594 267.589844 C 146.140625 267.394531 145.972656 267.199219 145.804688 267.003906 C 146.101562 267.085938 146.40625 267.167969 146.707031 267.25 C 146.867188 267.449219 147.027344 267.644531 147.1875 267.84375 Z M 145.757812 267.429688 C 145.445312 267.328125 145.128906 267.230469 144.816406 267.132812 C 144.648438 266.941406 144.480469 266.75 144.3125 266.558594 C 144.632812 266.65625 144.953125 266.757812 145.277344 266.851562 C 145.433594 267.042969 145.597656 267.234375 145.757812 267.429688 Z M 144.234375 266.941406 C 143.894531 266.828125 143.558594 266.710938 143.222656 266.597656 C 143.050781 266.414062 142.886719 266.226562 142.71875 266.039062 C 143.066406 266.160156 143.410156 266.277344 143.757812 266.390625 C 143.914062 266.578125 144.078125 266.757812 144.238281 266.941406 Z M 142.304688 265.570312 C 142.144531 265.390625 141.984375 265.210938 141.828125 265.027344 C 142.1875 265.152344 142.550781 265.273438 142.914062 265.390625 C 143.070312 265.570312 143.21875 265.753906 143.371094 265.9375 C 143.015625 265.820312 142.65625 265.699219 142.304688 265.570312 Z M 141.433594 264.566406 C 141.277344 264.378906 141.117188 264.191406 140.957031 264 C 141.335938 264.128906 141.710938 264.253906 142.089844 264.367188 C 142.242188 264.558594 142.398438 264.75 142.554688 264.941406 C 142.179688 264.820312 141.804688 264.695312 141.433594 264.5625 Z M 140.578125 263.546875 C 140.441406 263.382812 140.3125 263.21875 140.175781 263.054688 C 140.566406 263.179688 140.953125 263.304688 141.34375 263.421875 C 141.476562 263.59375 141.613281 263.761719 141.746094 263.933594 C 141.355469 263.804688 140.964844 263.675781 140.574219 263.542969 Z M 139.8125 262.601562 C 136.339844 258.269531 133.167969 253.519531 129.855469 248.558594 C 123.4375 238.953125 116.164062 228.0625 105.074219 218.230469 C 98.074219 212.027344 92.386719 199.226562 89.453125 183.117188 C 89.378906 182.714844 89.3125 182.3125 89.246094 181.910156 C 88.957031 180.1875 88.707031 178.464844 88.503906 176.761719 C 88.734375 178.5 89.011719 180.253906 89.332031 182.015625 C 89.40625 182.421875 89.484375 182.820312 89.558594 183.226562 C 92.746094 199.523438 98.699219 212.265625 105.902344 218.1875 C 118.21875 228.316406 125.628906 239.832031 132.164062 249.996094 C 135.109375 254.574219 137.9375 258.96875 141.023438 262.996094 C 140.617188 262.871094 140.21875 262.738281 139.8125 262.601562 Z M 86.214844 181.550781 C 86.242188 181.964844 86.273438 182.378906 86.304688 182.792969 C 87.578125 197.894531 91.605469 211.242188 97.648438 220.371094 L 97.910156 220.765625 C 104.96875 231.4375 111.738281 241.660156 119.230469 250.710938 C 117.921875 249.613281 116.621094 248.453125 115.339844 247.242188 C 114.941406 246.863281 114.554688 246.476562 114.167969 246.09375 C 107.832031 237.992188 102.222656 229.238281 96.878906 220.484375 C 91.027344 210.898438 87.234375 197.484375 86.203125 182.722656 C 86.175781 182.308594 86.152344 181.898438 86.128906 181.480469 C 86.023438 179.589844 85.972656 177.714844 85.964844 175.84375 C 85.996094 177.734375 86.074219 179.636719 86.210938 181.550781 Z M 115.3125 252.085938 C 116.019531 252.769531 116.738281 253.4375 117.460938 254.097656 C 117.65625 254.300781 117.851562 254.507812 118.046875 254.710938 C 117.1875 253.933594 116.332031 253.136719 115.492188 252.324219 C 113.097656 250 110.820312 247.558594 108.671875 245.015625 C 110.769531 247.472656 112.984375 249.832031 115.3125 252.089844 Z M 119.964844 256.308594 C 122.015625 258.054688 124.121094 259.703125 126.273438 261.25 C 126.550781 261.496094 126.824219 261.742188 127.101562 261.984375 C 124.925781 260.441406 122.792969 258.796875 120.71875 257.046875 C 120.464844 256.800781 120.214844 256.558594 119.964844 256.308594 Z M 129.332031 263.890625 C 129.683594 264.183594 130.039062 264.472656 130.394531 264.761719 C 128.503906 263.53125 126.648438 262.222656 124.832031 260.84375 C 124.488281 260.546875 124.148438 260.238281 123.808594 259.9375 C 125.609375 261.328125 127.453125 262.648438 129.332031 263.890625 Z M 132.359375 265.820312 C 133.074219 266.253906 133.792969 266.683594 134.515625 267.097656 C 134.902344 267.394531 135.289062 267.6875 135.675781 267.972656 C 135.015625 267.601562 134.367188 267.222656 133.714844 266.835938 C 133.257812 266.5 132.808594 266.160156 132.359375 265.820312 Z M 136.253906 268.066406 C 136.875 268.40625 137.503906 268.734375 138.132812 269.058594 C 138.511719 269.339844 138.894531 269.621094 139.277344 269.890625 C 138.707031 269.601562 138.136719 269.3125 137.570312 269.011719 C 137.128906 268.699219 136.6875 268.386719 136.253906 268.066406 Z M 140.148438 270.066406 C 140.441406 270.207031 140.742188 270.347656 141.039062 270.484375 C 141.421875 270.761719 141.808594 271.035156 142.195312 271.304688 C 141.949219 271.191406 141.699219 271.074219 141.453125 270.960938 C 141.011719 270.667969 140.582031 270.367188 140.148438 270.066406 Z M 143.691406 272.316406 C 144.164062 272.628906 144.636719 272.933594 145.113281 273.238281 C 145.027344 273.199219 144.9375 273.164062 144.851562 273.125 C 144.304688 272.792969 143.753906 272.457031 143.214844 272.113281 C 143.371094 272.1875 143.527344 272.25 143.6875 272.316406 Z M 156.03125 276.695312 C 156.054688 276.703125 156.074219 276.710938 156.097656 276.714844 C 156.292969 276.84375 156.492188 276.96875 156.691406 277.097656 C 156.472656 276.964844 156.25 276.832031 156.027344 276.695312 Z M 155.125 276.121094 C 154.746094 275.875 154.371094 275.625 154.007812 275.375 C 154.09375 275.398438 154.175781 275.425781 154.261719 275.445312 C 154.597656 275.691406 154.9375 275.929688 155.285156 276.167969 C 155.230469 276.15625 155.175781 276.140625 155.125 276.125 Z M 153.238281 274.828125 C 152.910156 274.589844 152.585938 274.351562 152.265625 274.109375 C 152.402344 274.152344 152.539062 274.195312 152.679688 274.234375 C 152.96875 274.46875 153.261719 274.695312 153.558594 274.921875 C 153.453125 274.894531 153.34375 274.863281 153.238281 274.828125 Z M 151.585938 273.578125 C 151.304688 273.355469 151.027344 273.136719 150.753906 272.90625 C 150.929688 272.960938 151.109375 273.011719 151.28125 273.066406 C 151.539062 273.289062 151.796875 273.507812 152.0625 273.726562 C 151.902344 273.679688 151.746094 273.628906 151.585938 273.578125 Z M 152.019531 273.285156 C 152.179688 273.332031 152.34375 273.375 152.503906 273.414062 C 152.75 273.636719 153.007812 273.855469 153.261719 274.070312 C 153.117188 274.027344 152.972656 273.992188 152.832031 273.949219 C 152.558594 273.726562 152.289062 273.503906 152.023438 273.285156 Z M 153.199219 273.605469 C 153.355469 273.648438 153.507812 273.695312 153.667969 273.734375 C 153.910156 273.957031 154.160156 274.175781 154.410156 274.394531 C 154.273438 274.355469 154.136719 274.316406 154.003906 274.285156 C 153.730469 274.0625 153.460938 273.835938 153.199219 273.605469 Z M 154.316406 273.902344 C 160.453125 275.464844 166.71875 276.265625 173.023438 276.265625 C 173.699219 276.265625 174.378906 276.257812 175.0625 276.238281 C 201.777344 275.503906 212.417969 270.710938 225.890625 264.636719 C 231.578125 262.070312 238.027344 259.164062 246.402344 256.296875 C 257.710938 252.429688 268.445312 242.9375 276.625 229.570312 C 277.347656 228.386719 278.046875 227.183594 278.71875 225.957031 C 270.996094 240.253906 260.042969 251.386719 247.589844 256.386719 C 240.988281 259.039062 235.652344 261.558594 230.492188 263.992188 C 215.75 270.953125 204.101562 276.449219 176.828125 277.105469 C 169.492188 277.28125 162.203125 276.410156 155.101562 274.566406 C 154.835938 274.34375 154.574219 274.121094 154.316406 273.890625 Z M 271.15625 233.863281 C 261.367188 246.054688 249.554688 253.28125 238.589844 253.738281 C 221.160156 254.457031 214.394531 257.351562 207.230469 260.414062 C 198.886719 263.980469 190.253906 267.671875 164.382812 268.867188 C 158.652344 269.128906 153.269531 268.535156 148.261719 267.335938 C 148.105469 267.128906 147.949219 266.921875 147.792969 266.71875 C 151.613281 267.574219 155.648438 268.066406 159.882812 268.066406 C 160.785156 268.066406 161.695312 268.046875 162.617188 268 C 188.664062 266.71875 197.109375 262.992188 204.5625 259.707031 C 211.71875 256.558594 217.890625 253.835938 237.300781 253.667969 C 248.621094 253.570312 260.929688 246.359375 271.152344 233.867188 Z M 147.785156 267.214844 C 147.492188 267.144531 147.195312 267.066406 146.902344 266.988281 C 146.746094 266.789062 146.589844 266.589844 146.429688 266.386719 C 146.730469 266.460938 147.03125 266.535156 147.332031 266.605469 C 147.480469 266.8125 147.636719 267.015625 147.785156 267.214844 Z M 146.402344 266.851562 C 146.089844 266.769531 145.78125 266.679688 145.46875 266.589844 C 145.308594 266.394531 145.148438 266.199219 144.988281 266.003906 C 145.308594 266.089844 145.621094 266.179688 145.945312 266.265625 C 146.09375 266.460938 146.25 266.65625 146.402344 266.851562 Z M 144.9375 266.433594 C 144.605469 266.328125 144.273438 266.226562 143.945312 266.125 C 143.785156 265.9375 143.625 265.75 143.46875 265.558594 C 143.804688 265.660156 144.140625 265.769531 144.480469 265.867188 C 144.636719 266.058594 144.785156 266.246094 144.9375 266.433594 Z M 143.101562 265.125 C 142.945312 264.933594 142.785156 264.738281 142.625 264.542969 C 142.980469 264.648438 143.332031 264.75 143.683594 264.847656 C 143.835938 265.046875 143.988281 265.25 144.144531 265.445312 C 143.796875 265.34375 143.449219 265.230469 143.101562 265.125 Z M 142.28125 264.113281 C 142.140625 263.9375 142.003906 263.761719 141.867188 263.589844 C 142.234375 263.695312 142.601562 263.804688 142.972656 263.902344 C 143.101562 264.082031 143.238281 264.261719 143.375 264.441406 C 143.015625 264.332031 142.648438 264.222656 142.285156 264.113281 Z M 141.542969 263.167969 C 138.359375 259.046875 135.460938 254.539062 132.433594 249.839844 C 125.882812 239.65625 118.460938 228.117188 106.105469 217.957031 C 98.960938 212.078125 93.039062 199.40625 89.871094 183.171875 C 89.792969 182.773438 89.71875 182.371094 89.644531 181.96875 C 89.332031 180.269531 89.066406 178.578125 88.839844 176.898438 C 89.089844 178.617188 89.390625 180.34375 89.730469 182.085938 C 89.804688 182.484375 89.886719 182.886719 89.972656 183.289062 C 93.351562 199.457031 99.691406 212.402344 106.941406 217.921875 C 120.5 228.253906 127.957031 240.355469 134.53125 251.035156 C 137.230469 255.417969 139.820312 259.621094 142.667969 263.496094 C 142.292969 263.390625 141.914062 263.277344 141.542969 263.167969 Z M 85.65625 175.753906 C 85.660156 177.65625 85.710938 179.574219 85.824219 181.496094 C 85.84375 181.914062 85.871094 182.328125 85.898438 182.738281 C 86.9375 197.550781 90.742188 211.011719 96.621094 220.636719 C 101.320312 228.339844 106.664062 236.714844 112.757812 244.667969 C 109.773438 241.601562 107.027344 238.355469 104.507812 234.992188 C 101.238281 230.078125 98.378906 225.246094 95.859375 220.757812 C 90.097656 210.480469 86.613281 197.308594 85.800781 182.664062 C 85.78125 182.25 85.757812 181.832031 85.742188 181.421875 C 85.660156 179.527344 85.636719 177.632812 85.65625 175.75 Z M 100.535156 229.332031 C 98.585938 226.339844 96.816406 223.289062 95.214844 220.226562 C 95.339844 220.457031 95.457031 220.6875 95.585938 220.914062 C 97.230469 223.839844 98.875 226.644531 100.535156 229.332031 Z M 110.265625 247.3125 C 111.878906 249.125 113.550781 250.867188 115.273438 252.542969 C 117.199219 254.414062 119.175781 256.179688 121.203125 257.855469 C 121.511719 258.148438 121.824219 258.445312 122.132812 258.734375 C 119.839844 256.863281 117.605469 254.878906 115.445312 252.773438 C 113.785156 251.15625 112.1875 249.488281 110.648438 247.777344 C 110.519531 247.625 110.386719 247.46875 110.261719 247.3125 Z M 116.773438 254.460938 C 119.566406 257.074219 122.480469 259.5 125.484375 261.726562 C 125.910156 262.085938 126.335938 262.449219 126.761719 262.800781 C 123.691406 260.578125 120.730469 258.164062 117.878906 255.558594 C 117.507812 255.195312 117.136719 254.824219 116.765625 254.457031 Z M 128.160156 263.636719 C 129.683594 264.6875 131.234375 265.691406 132.800781 266.644531 C 133.277344 267.007812 133.757812 267.359375 134.234375 267.707031 C 132.714844 266.804688 131.210938 265.863281 129.734375 264.871094 C 129.207031 264.464844 128.679688 264.054688 128.160156 263.632812 Z M 136.136719 268.582031 C 136.621094 268.847656 137.109375 269.117188 137.601562 269.378906 C 138.089844 269.722656 138.578125 270.054688 139.070312 270.386719 C 138.683594 270.191406 138.308594 269.992188 137.929688 269.789062 C 137.324219 269.394531 136.722656 268.988281 136.136719 268.582031 Z M 139.601562 270.402344 C 140.050781 270.628906 140.507812 270.855469 140.960938 271.074219 C 141.4375 271.398438 141.914062 271.714844 142.398438 272.023438 C 142.023438 271.851562 141.652344 271.667969 141.28125 271.488281 C 140.714844 271.128906 140.15625 270.773438 139.601562 270.402344 Z M 144.328125 273.234375 C 144.695312 273.453125 145.066406 273.675781 145.429688 273.886719 C 145.285156 273.824219 145.140625 273.761719 144.996094 273.695312 C 144.574219 273.460938 144.152344 273.21875 143.742188 272.976562 C 143.9375 273.066406 144.132812 273.148438 144.332031 273.234375 Z M 157.097656 276.980469 C 157.097656 276.980469 157.128906 276.992188 157.148438 276.996094 C 157.3125 277.105469 157.480469 277.210938 157.648438 277.320312 C 157.460938 277.207031 157.28125 277.09375 157.097656 276.976562 Z M 156.25 276.441406 C 155.867188 276.191406 155.492188 275.933594 155.121094 275.679688 C 155.199219 275.703125 155.277344 275.722656 155.355469 275.742188 C 155.691406 275.996094 156.035156 276.238281 156.382812 276.480469 C 156.335938 276.46875 156.292969 276.453125 156.246094 276.445312 Z M 154.394531 275.15625 C 154.078125 274.925781 153.769531 274.691406 153.460938 274.453125 C 153.585938 274.488281 153.714844 274.523438 153.835938 274.554688 C 154.121094 274.789062 154.40625 275.019531 154.699219 275.246094 C 154.597656 275.214844 154.496094 275.1875 154.394531 275.160156 Z M 154.59375 274.765625 C 154.714844 274.792969 154.832031 274.832031 154.953125 274.863281 C 155.226562 275.09375 155.503906 275.316406 155.789062 275.542969 C 155.695312 275.519531 155.605469 275.496094 155.511719 275.472656 C 155.203125 275.242188 154.894531 275.003906 154.59375 274.765625 Z M 155.664062 275.039062 C 161.980469 276.621094 168.441406 277.441406 174.949219 277.441406 C 175.574219 277.441406 176.203125 277.433594 176.832031 277.421875 C 204.171875 276.761719 215.84375 271.253906 230.621094 264.277344 C 235.777344 261.84375 241.109375 259.328125 247.699219 256.675781 C 258.960938 252.152344 269.492188 242.296875 277.339844 228.933594 C 277.988281 227.828125 278.617188 226.703125 279.21875 225.5625 C 271.804688 239.757812 261.195312 251.035156 248.871094 256.773438 C 244.234375 258.933594 240.144531 260.984375 236.1875 262.972656 C 219.125 271.53125 206.800781 277.710938 178.601562 278.292969 C 171.148438 278.445312 163.757812 277.574219 156.566406 275.742188 C 156.257812 275.515625 155.960938 275.28125 155.667969 275.042969 Z M 246.867188 251.65625 C 247.015625 251.605469 247.160156 251.554688 247.308594 251.503906 C 247.160156 251.554688 247.015625 251.605469 246.867188 251.65625 Z M 147.042969 266.214844 C 146.738281 266.140625 146.425781 266.070312 146.125 265.988281 C 145.96875 265.78125 145.808594 265.570312 145.652344 265.363281 C 145.96875 265.441406 146.28125 265.511719 146.59375 265.582031 C 146.742188 265.792969 146.890625 266.003906 147.042969 266.214844 Z M 145.632812 265.855469 C 145.304688 265.769531 144.976562 265.679688 144.652344 265.589844 C 144.496094 265.390625 144.335938 265.1875 144.179688 264.988281 C 144.511719 265.078125 144.84375 265.164062 145.171875 265.246094 C 145.324219 265.449219 145.472656 265.65625 145.625 265.855469 Z M 143.859375 264.578125 C 143.71875 264.394531 143.578125 264.207031 143.4375 264.023438 C 143.785156 264.113281 144.128906 264.203125 144.476562 264.285156 C 144.613281 264.476562 144.75 264.664062 144.886719 264.851562 C 144.546875 264.761719 144.199219 264.675781 143.859375 264.578125 Z M 143.144531 263.621094 C 140.214844 259.671875 137.558594 255.363281 134.785156 250.863281 C 128.195312 240.160156 120.726562 228.03125 107.121094 217.667969 C 99.929688 212.191406 93.628906 199.3125 90.265625 183.214844 C 90.183594 182.816406 90.105469 182.417969 90.023438 182.015625 C 89.695312 180.347656 89.410156 178.6875 89.164062 177.039062 C 89.4375 178.726562 89.75 180.429688 90.113281 182.136719 C 90.199219 182.535156 90.28125 182.933594 90.371094 183.335938 C 93.988281 199.601562 100.566406 212.425781 107.964844 217.640625 C 122.75 228.066406 130.164062 240.703125 136.707031 251.859375 C 139.1875 256.089844 141.570312 260.148438 144.207031 263.894531 C 143.851562 263.804688 143.5 263.714844 143.144531 263.621094 Z M 85.351562 175.671875 C 85.324219 177.585938 85.351562 179.507812 85.433594 181.4375 C 85.453125 181.855469 85.46875 182.269531 85.496094 182.683594 C 86.160156 194.582031 88.578125 205.511719 92.542969 214.722656 C 91.101562 211.53125 89.847656 208.355469 88.792969 205.246094 C 86.875 198.171875 85.71875 190.550781 85.394531 182.621094 C 85.375 182.203125 85.363281 181.789062 85.351562 181.375 C 85.296875 179.472656 85.300781 177.570312 85.351562 175.675781 Z M 109.183594 246.558594 C 109.296875 246.703125 109.414062 246.847656 109.527344 246.988281 C 108.148438 245.394531 106.8125 243.765625 105.539062 242.101562 C 106.714844 243.621094 107.933594 245.105469 109.183594 246.558594 Z M 130.417969 265.691406 C 130.515625 265.765625 130.613281 265.839844 130.710938 265.914062 C 129.269531 264.96875 127.859375 263.988281 126.472656 262.976562 C 127.769531 263.917969 129.085938 264.824219 130.417969 265.695312 Z M 125.492188 262.253906 C 125.386719 262.171875 125.28125 262.089844 125.171875 262.015625 C 125.28125 262.09375 125.386719 262.175781 125.492188 262.253906 Z M 133.527344 267.648438 C 134.640625 268.320312 135.773438 268.964844 136.910156 269.585938 C 137.152344 269.746094 137.394531 269.914062 137.636719 270.070312 C 136.4375 269.414062 135.25 268.730469 134.078125 268.023438 C 133.894531 267.898438 133.710938 267.773438 133.527344 267.644531 Z M 140.726562 271.566406 C 140.9375 271.667969 141.140625 271.769531 141.351562 271.871094 C 141.667969 272.070312 141.992188 272.269531 142.3125 272.46875 C 142.183594 272.40625 142.054688 272.347656 141.933594 272.289062 C 141.527344 272.050781 141.125 271.8125 140.726562 271.570312 Z M 158.089844 277.234375 C 158.089844 277.234375 158.117188 277.242188 158.128906 277.242188 C 158.273438 277.339844 158.425781 277.4375 158.574219 277.53125 C 158.410156 277.433594 158.25 277.332031 158.089844 277.230469 Z M 157.273438 276.710938 C 156.914062 276.46875 156.554688 276.226562 156.203125 275.972656 C 156.273438 275.992188 156.34375 276.007812 156.414062 276.023438 C 156.738281 276.265625 157.066406 276.503906 157.398438 276.738281 C 157.355469 276.726562 157.3125 276.71875 157.273438 276.707031 Z M 157.207031 276.21875 C 163.65625 277.800781 170.253906 278.617188 176.910156 278.617188 C 177.472656 278.617188 178.039062 278.613281 178.601562 278.597656 C 206.871094 278.015625 219.222656 271.820312 236.320312 263.25 C 240.277344 261.265625 244.367188 259.214844 248.996094 257.054688 C 260.199219 251.835938 270.515625 241.617188 278.039062 228.273438 C 278.253906 227.898438 278.460938 227.519531 278.667969 227.140625 C 271.605469 240.296875 261.75 250.957031 250.152344 257.160156 C 247.8125 258.410156 245.5625 259.632812 243.394531 260.8125 C 224.011719 271.355469 210.011719 278.96875 180.375 279.472656 C 172.894531 279.601562 165.488281 278.746094 158.285156 276.972656 C 157.917969 276.726562 157.558594 276.480469 157.210938 276.226562 Z M 236.929688 253 C 242.320312 253 247.953125 251.398438 253.496094 248.371094 C 248.058594 251.378906 242.4375 253.046875 236.929688 253 Z M 203.058594 257.949219 C 195.59375 261.300781 187.128906 265.089844 160.816406 266.503906 C 159.929688 266.550781 159.054688 266.574219 158.167969 266.574219 C 154.347656 266.574219 150.539062 266.148438 146.777344 265.3125 C 146.636719 265.109375 146.492188 264.910156 146.351562 264.703125 C 149.648438 265.371094 152.972656 265.710938 156.308594 265.710938 C 157.21875 265.710938 158.140625 265.6875 159.050781 265.636719 C 185.796875 264.15625 194.425781 260.136719 201.359375 256.910156 C 208.273438 253.695312 213.738281 251.148438 234.683594 252.90625 C 234.941406 252.929688 235.199219 252.941406 235.460938 252.957031 C 215.972656 252.160156 210.261719 254.71875 203.050781 257.953125 Z M 146.324219 265.207031 C 146 265.132812 145.679688 265.058594 145.359375 264.976562 C 145.21875 264.78125 145.074219 264.589844 144.933594 264.394531 C 145.261719 264.46875 145.589844 264.542969 145.917969 264.609375 C 146.050781 264.808594 146.1875 265.011719 146.324219 265.207031 Z M 144.664062 264.015625 C 141.953125 260.195312 139.515625 256.039062 136.972656 251.707031 C 130.417969 240.527344 122.980469 227.851562 108.144531 217.390625 C 100.808594 212.21875 94.273438 199.460938 90.675781 183.273438 C 90.585938 182.871094 90.5 182.476562 90.414062 182.074219 C 90.066406 180.410156 89.757812 178.761719 89.492188 177.121094 C 90.078125 180.480469 90.839844 183.878906 91.761719 187.238281 C 95.777344 201.875 102.0625 212.855469 109 217.375 C 124.996094 227.792969 132.296875 240.933594 138.746094 252.535156 C 141.03125 256.648438 143.226562 260.597656 145.667969 264.246094 C 145.332031 264.171875 145 264.101562 144.664062 264.019531 Z M 84.980469 181.359375 C 84.980469 180.667969 84.992188 179.976562 85.003906 179.289062 C 85.011719 179.984375 85.023438 180.679688 85.042969 181.378906 C 85.058594 181.792969 85.070312 182.210938 85.085938 182.628906 C 85.34375 188.804688 86.097656 194.796875 87.324219 200.492188 C 86.929688 199.078125 86.574219 197.6875 86.261719 196.320312 C 85.5625 191.929688 85.132812 187.441406 84.996094 182.902344 C 84.988281 182.386719 84.976562 181.875 84.976562 181.359375 Z M 140.746094 272.191406 C 141.261719 272.445312 141.78125 272.695312 142.296875 272.945312 C 143.378906 273.566406 144.46875 274.164062 145.570312 274.734375 C 145.539062 274.722656 145.503906 274.707031 145.472656 274.691406 C 143.878906 273.90625 142.296875 273.074219 140.746094 272.195312 Z M 159.050781 277.46875 C 165.542969 279 172.199219 279.792969 178.921875 279.792969 C 179.40625 279.792969 179.894531 279.792969 180.386719 279.777344 C 210.09375 279.277344 224.128906 271.644531 243.542969 261.082031 C 245.714844 259.898438 247.960938 258.683594 250.300781 257.425781 C 260.976562 251.71875 270.335938 242.195312 277.5 229.785156 C 270.867188 241.449219 261.957031 251.136719 251.441406 257.535156 C 228.339844 271.601562 212.636719 280.246094 182.15625 280.648438 C 174.761719 280.746094 167.457031 279.925781 160.347656 278.257812 C 159.90625 278 159.472656 277.734375 159.046875 277.46875 Z M 289.222656 194.042969 C 289.078125 194.847656 288.917969 195.65625 288.75 196.460938 C 288.609375 197.121094 288.460938 197.78125 288.304688 198.433594 C 288.246094 198.6875 288.1875 198.9375 288.125 199.1875 C 288.066406 199.402344 288.015625 199.613281 287.960938 199.832031 C 287.945312 199.898438 287.921875 199.972656 287.90625 200.039062 C 287.519531 201.503906 287.09375 202.964844 286.628906 204.414062 C 283.042969 215.359375 277.273438 225.765625 269.917969 234.292969 C 259.042969 246.894531 246.214844 253.566406 234.71875 252.605469 C 213.691406 250.84375 208.195312 253.398438 201.238281 256.636719 C 194.332031 259.847656 185.730469 263.851562 159.042969 265.328125 C 154.707031 265.566406 150.378906 265.234375 146.109375 264.34375 C 143.59375 260.632812 141.351562 256.59375 139.011719 252.386719 C 132.550781 240.757812 125.226562 227.574219 109.171875 217.117188 C 102.296875 212.640625 96.058594 201.722656 92.058594 187.15625 C 88.847656 175.476562 87.625 163.273438 88.648438 154.15625 C 100.605469 110.789062 140.382812 78.847656 187.492188 78.847656 C 244.019531 78.847656 290.003906 124.835938 290.003906 181.359375 C 290.003906 185.65625 289.734375 189.886719 289.222656 194.042969 Z M 125.023438 262.429688 C 126.265625 263.441406 127.523438 264.414062 128.800781 265.355469 C 123.546875 261.671875 118.660156 257.515625 114.191406 252.941406 C 117.621094 256.390625 121.242188 259.558594 125.023438 262.425781 Z M 161.300781 278.792969 C 167.730469 280.222656 174.316406 280.960938 180.972656 280.960938 C 181.367188 280.960938 181.769531 280.960938 182.164062 280.953125 C 212.722656 280.554688 228.460938 271.890625 251.609375 257.800781 C 260.976562 252.097656 269.226562 243.6875 275.753906 233.25 C 269.664062 243.148438 261.867188 251.617188 252.730469 257.921875 C 231.621094 272.484375 212.75 281.5625 183.9375 281.824219 C 176.71875 281.890625 169.648438 281.105469 162.808594 279.574219 C 162.292969 279.324219 161.789062 279.058594 161.300781 278.792969 Z M 254.015625 258.304688 C 232.527344 275.039062 210.824219 282.886719 185.714844 283.003906 C 185.554688 283.003906 185.398438 283.003906 185.242188 283.003906 C 178.925781 283.003906 172.742188 282.40625 166.742188 281.265625 C 165.894531 280.949219 165.070312 280.613281 164.28125 280.257812 C 170.417969 281.496094 176.703125 282.132812 183.070312 282.132812 C 183.359375 282.132812 183.652344 282.132812 183.941406 282.132812 C 212.835938 281.867188 231.75 272.769531 252.910156 258.171875 C 259.867188 253.371094 266.046875 247.320312 271.296875 240.34375 C 270.808594 241.027344 270.320312 241.707031 269.824219 242.378906 C 265.222656 248.335938 259.933594 253.703125 254.019531 258.304688 Z M 254.015625 258.304688 " fill-opacity="1" fill-rule="nonzero"/></g><g transform="matrix(1, 0, 0, 1, 180, 172)"><g clip-path="url(#a367d6e320)"><g clip-path="url(#d2aed9ab7d)"><g fill="#f7c6b7" fill-opacity="1"><g transform="translate(0.305632, 53.967836)"><g><path d="M 16.234375 -49.78125 L 16.234375 -49.125 C 14.679688 -49.21875 13.515625 -48.597656 12.734375 -47.265625 C 11.960938 -45.929688 11.578125 -43.328125 11.578125 -39.453125 L 11.578125 -23.296875 C 12.835938 -26.003906 14.445312 -27.6875 16.40625 -28.34375 C 18.375 -29 20.742188 -28.84375 23.515625 -27.875 C 24.628906 -27.488281 25.765625 -27.097656 26.921875 -26.703125 C 28.085938 -26.316406 29.203125 -26.207031 30.265625 -26.375 C 31.335938 -26.550781 32.3125 -27.242188 33.1875 -28.453125 L 33.1875 -39.453125 C 33.1875 -43.328125 32.796875 -45.929688 32.015625 -47.265625 C 31.242188 -48.597656 30.082031 -49.21875 28.53125 -49.125 L 28.53125 -49.78125 L 44.828125 -49.78125 L 44.828125 -49.125 C 43.234375 -49.21875 42.046875 -48.597656 41.265625 -47.265625 C 40.492188 -45.929688 40.109375 -43.328125 40.109375 -39.453125 L 40.109375 -10.265625 C 40.109375 -6.429688 40.492188 -3.859375 41.265625 -2.546875 C 42.046875 -1.234375 43.234375 -0.601562 44.828125 -0.65625 L 44.828125 0 L 28.53125 0 L 28.53125 -0.65625 C 30.082031 -0.601562 31.242188 -1.234375 32.015625 -2.546875 C 32.796875 -3.859375 33.1875 -6.429688 33.1875 -10.265625 L 33.1875 -26.5 C 31.976562 -23.78125 30.378906 -22.09375 28.390625 -21.4375 C 26.398438 -20.78125 24.019531 -20.9375 21.25 -21.90625 C 20.132812 -22.289062 18.992188 -22.675781 17.828125 -23.0625 C 16.660156 -23.457031 15.539062 -23.566406 14.46875 -23.390625 C 13.40625 -23.222656 12.441406 -22.507812 11.578125 -21.25 L 11.578125 -10.265625 C 11.578125 -6.429688 11.960938 -3.859375 12.734375 -2.546875 C 13.515625 -1.234375 14.679688 -0.601562 16.234375 -0.65625 L 16.234375 0 L 0 0 L 0 -0.65625 C 1.550781 -0.601562 2.710938 -1.234375 3.484375 -2.546875 C 4.265625 -3.859375 4.65625 -6.429688 4.65625 -10.265625 L 4.65625 -39.453125 C 4.65625 -43.328125 4.265625 -45.929688 3.484375 -47.265625 C 2.710938 -48.597656 1.550781 -49.21875 0 -49.125 L 0 -49.78125 Z M 16.234375 -49.78125 "/></g></g></g></g></g></g><g transform="matrix(1, 0, 0, 1, 154, 144)"><g clip-path="url(#7da01245f3)"><g fill="#203a7e" fill-opacity="1"><g transform="translate(1.013582, 54.852203)"><g><path d="M 45.34375 -2.984375 C 44.851562 -1.921875 44.125 -1.15625 43.15625 -0.6875 C 42.1875 -0.226562 41.171875 0 40.109375 0 C 38.304688 0 36.847656 -0.421875 35.734375 -1.265625 C 34.617188 -2.117188 33.722656 -3.203125 33.046875 -4.515625 C 32.171875 -6.117188 31.40625 -7.910156 30.75 -9.890625 C 30.09375 -11.878906 29.5 -13.867188 28.96875 -15.859375 C 28.4375 -17.847656 27.851562 -19.671875 27.21875 -21.328125 C 26.050781 -24.628906 24.410156 -26.316406 22.296875 -26.390625 C 20.191406 -26.460938 17.878906 -25.285156 15.359375 -22.859375 C 14.628906 -22.128906 13.945312 -21.363281 13.3125 -20.5625 C 12.6875 -19.757812 12.109375 -18.992188 11.578125 -18.265625 L 11.578125 -10.265625 C 11.578125 -6.429688 11.960938 -3.859375 12.734375 -2.546875 C 13.515625 -1.234375 14.679688 -0.601562 16.234375 -0.65625 L 16.234375 0 L 0 0 L 0 -0.65625 C 1.550781 -0.601562 2.710938 -1.234375 3.484375 -2.546875 C 4.265625 -3.859375 4.65625 -6.429688 4.65625 -10.265625 L 4.65625 -39.453125 C 4.65625 -43.328125 4.265625 -45.929688 3.484375 -47.265625 C 2.710938 -48.597656 1.550781 -49.21875 0 -49.125 L 0 -49.78125 L 16.234375 -49.78125 L 16.234375 -49.125 C 14.679688 -49.21875 13.515625 -48.597656 12.734375 -47.265625 C 11.960938 -45.929688 11.578125 -43.328125 11.578125 -39.453125 L 11.578125 -20.59375 C 12.492188 -21.8125 13.398438 -22.90625 14.296875 -23.875 C 15.191406 -24.84375 16.148438 -25.859375 17.171875 -26.921875 L 33.1875 -44.03125 C 33.625 -44.519531 33.960938 -45.003906 34.203125 -45.484375 C 34.453125 -45.972656 34.429688 -46.53125 34.140625 -47.15625 C 34.035156 -47.445312 33.960938 -47.617188 33.921875 -47.671875 C 33.523438 -48.453125 33.035156 -48.898438 32.453125 -49.015625 C 31.878906 -49.140625 31.101562 -49.175781 30.125 -49.125 L 30.125 -49.78125 L 42.28125 -49.78125 L 42.28125 -49.125 C 41.164062 -49.175781 40.328125 -48.984375 39.765625 -48.546875 C 39.210938 -48.109375 38.597656 -47.550781 37.921875 -46.875 C 37.335938 -46.289062 36.753906 -45.707031 36.171875 -45.125 C 35.585938 -44.539062 35.003906 -43.957031 34.421875 -43.375 L 20.8125 -28.828125 C 21.488281 -29.066406 22.164062 -29.269531 22.84375 -29.4375 C 23.53125 -29.601562 24.257812 -29.6875 25.03125 -29.6875 C 27.5625 -29.6875 29.476562 -28.972656 30.78125 -27.546875 C 32.09375 -26.117188 33.066406 -24.429688 33.703125 -22.484375 C 34.035156 -21.472656 34.46875 -20.101562 35 -18.375 C 35.539062 -16.65625 36.125 -14.847656 36.75 -12.953125 C 37.382812 -11.054688 38.039062 -9.320312 38.71875 -7.75 C 39.394531 -6.175781 40.050781 -5.023438 40.6875 -4.296875 C 41.21875 -3.710938 41.859375 -3.257812 42.609375 -2.9375 C 43.359375 -2.625 44.097656 -2.785156 44.828125 -3.421875 Z M 45.34375 -2.984375 "/></g></g></g></g></g></svg>